<?xml version="1.0" encoding="utf-8"?>
<!-- Generator: Adobe Illustrator 25.0.1, SVG Export Plug-In . SVG Version: 6.00 Build 0)  -->
<svg version="1.0" id="katman_1" xmlns="http://www.w3.org/2000/svg" xmlns:xlink="http://www.w3.org/1999/xlink" x="0px" y="0px"
	 viewBox="0 0 560 400" style="enable-background:new 0 0 560 400;" xml:space="preserve">
<style type="text/css">
	.st0{fill:#B4B4B4;fill-opacity:0.64;stroke:#B1B1B1;stroke-width:9.911111e-02;}
	.st1{fill-rule:evenodd;clip-rule:evenodd;}
</style>
<path class="st0" d="M502.6,246.2c-11.8,0.1-23.6,0-35.4,0.1c-1.8-0.2-4.1,0.7-3.9,2.8c-0.2,8.5,0,17.1-0.1,25.6
	c-0.2,1.7,0.8,3.9,2.9,3.8c12.1,0,24.3,0.1,36.4-0.1c0.1-0.7,0.3-2.2,0.5-2.9c-12.2-0.3-24.5-0.1-36.7-0.1c0-8.6-0.1-17.4,0-26.1
	c12.2,0,24.5,0.3,36.6-0.1C502.9,248.5,502.7,246.9,502.6,246.2L502.6,246.2z M446.9,246.5c-1.7,0-3.4,0.2-4.9,0.1v3.4
	c2.3,0,4.4,0.1,6.7,0.2c-0.2,8.3,0.1,16.7-0.1,25.2c-2.5-0.1-5-0.1-7.4,0.1c0,0.7,0.2,2.4,0.2,3.2h18.3c0-0.8,0.1-2.5,0.1-3.4h-7.5
	c0-8.1,0.1-16.1,0-24.2c-0.1-1.4,0-3.5-1.6-4.1C449.5,246.5,448.2,246.5,446.9,246.5L446.9,246.5z M412.1,246.7c-5,0-10,0.1-15,0.4
	c0,1.2,0.1,2.5,0.1,3.7c6,0.1,11.9-0.2,17.8,0.2c-0.1,9.3,0,18.8,0,28.1c1.5,0,2.9-0.1,4.4-0.2c-0.2-9.3-0.2-18.7-0.1-28
	c5.8-0.1,11.7-0.1,17.5,0c0-1.3,0.1-2.7,0.2-4.1C428.7,246.8,420.4,246.6,412.1,246.7L412.1,246.7z M256.6,246.7c-0.2,0-0.4,0-0.6,0
	c-9.3,0.1-18.6-0.2-27.9,0.2v5.1c9.6,0.3,19.4,0.1,29,0.1v7.4c-9.3,0.3-18.7,0-28.2,0.1c-2.9-0.2-5.8,1.8-5.8,4.7
	c-0.2,3.7-0.4,7.5,0.2,11.3c0.8,2.8,4.1,3.4,6.7,3.2c10.8-0.1,21.7,0.2,32.5-0.1c0.1-8.9,0.2-17.9,0-26.7
	C262.6,249,259.8,246.6,256.6,246.7L256.6,246.7z M336.4,246.7c-7.4,0-14.8,0.1-22.2,0.1v4.6c10.1,0.1,20.1,0.1,30.2,0
	c0.1,3.2,0.1,6.4,0,9.6c-10,0.1-20,0-30,0c-2.3-0.2-4.9,1.1-5,3.5c-0.1,3.9-0.3,7.8,0.1,11.7c0.9,3,4.5,3,7.1,2.9
	c10.7-0.1,21.5,0.3,32.3-0.1c-0.1-9.3,0.1-18.7-0.1-28c0.2-2.6-2.5-4.3-5.1-4.2C341.4,246.7,338.9,246.7,336.4,246.7L336.4,246.7z
	 M358.3,246.7c-2.7,0-5.6,1.5-5.2,4.3c-0.1,7.9-0.1,15.7,0,23.5c-0.2,2.5,1.9,4.6,4.5,4.3c11.7,0,23.4,0.1,35-0.1v-4.1
	c-11.7-0.2-23.4,0-35-0.1c-0.3-7.8-0.2-15.6,0-23.4c11.6,0.1,23.3,0.1,35,0v-4.3c-11.3-0.1-22.5-0.1-33.8-0.1L358.3,246.7
	L358.3,246.7z M196.2,246.7c-3.5,0-7.1,0-10.6,0.1c-3.1-0.2-6.4,2.1-6.4,5.1c-0.4,6.9,0,13.8-0.1,20.6c-0.2,3.1,2.1,6.3,5.4,6.4
	c8.3,0.3,16.7,0,24.9,0.2c3-0.1,6.9,0.2,8.6-2.7c1.4-3.2,0.8-6.8,0.9-10.1c0.3-3-1.7-6.3-5.1-6.4c-6-0.3-11.9,0-17.8-0.1v5.8
	c5.7,0.1,11.6,0.1,17.3,0.1v7.5c-9.4,0-19-0.1-28.5,0c-0.1-6.8,0-13.7-0.1-20.4c9.6-0.4,19.3-0.2,28.9-0.1c0.2-2,0.2-4,0.3-6
	C208,246.7,202.1,246.7,196.2,246.7L196.2,246.7z M266.9,246.7c0.1,8.3,0.1,16.5,0,24.9c0.1,2-0.1,4.2,1.5,5.5
	c1.8,2,4.7,1.6,7.1,1.7h29.6c-0.1-1.6-0.2-3.4-0.2-5c-10.9,0.1-21.9,0.1-32.8,0c-0.2-9-0.1-18.1,0-27
	C270.4,246.7,268.7,246.7,266.9,246.7L266.9,246.7z M246.2,265.1c3.6,0,7.3,0,10.9,0.1c0.1,2.8,0.1,5.5,0,8.2c-9.7,0-19.4,0.1-29,0
	c-0.1-2.7-0.1-5.4-0.1-8.1C234.1,265.2,240.1,265.1,246.2,265.1L246.2,265.1z M325.8,265.7c6.2,0,12.4,0.1,18.7,0
	c0.1,2.9,0.1,5.8,0.1,8.6c-10.3-0.2-20.6,0.4-30.8-0.3c0.4-2.7-0.8-6,0.9-8.2C318.4,265.7,322.1,265.7,325.8,265.7L325.8,265.7z"/>
<path class="st1" d="M123.7,120.8c-36.7,0-66.7,30-66.7,66.7c0,36.7,30,66.7,66.7,66.7s66.7-30,66.7-66.7
	C190.4,150.8,160.4,120.8,123.7,120.8z M108.3,139.5c0.1,0,0.1,0,0.1,0c0.1,0,0.1,0,0.1,0c0,0,0.1,0,0.1,0c0,0,0,0,0.1,0
	c0.1,0,0.2,0,0.2,0s0.1,0,0.2,0s0.2,0,0.2,0s0.1,0,0.2,0c0.1,0,0.1,0,0.2,0.1c0,0,0,0,0,0h0c0.1,0,0.1,0,0.1,0c0.1,0,0.1,0,0.2,0
	c0,0,0.1,0,0.2,0.1c0.1,0,0.2,0.1,0.2,0.1c0,0,0.1,0,0.2,0.1c0,0,0,0,0,0c0,0,0.1,0,0.1,0c0.1,0,0.1,0,0.1,0.1c0,0,0,0,0.1,0
	c0,0,0.1,0,0.1,0c0,0,0,0,0,0.1c0,0,0.1,0,0.1,0l0,0c0,0,0,0,0,0l0,0c0,0,0,0,0,0s0,0,0.1,0.1c0,0,0,0,0,0c0,0,0,0,0,0
	c0,0,0.1,0,0.1,0.1c0.1,0.1,0.2,0.2,0.3,0.3c0,0,0,0,0.1,0c0,0,0,0,0,0.1c0,0.1,0.1,0.1,0.1,0.2c0,0,0,0,0,0.1c0,0,0,0,0.1,0.1
	c0,0,0,0.1,0,0.1c0,0.1,0.1,0.1,0.1,0.1c0,0,0,0.1,0,0.1c0,0,0.1,0,0.1,0.1c0,0,0,0.1,0,0.1c0,0,0,0.1,0,0.1c0,0,0,0,0,0.1
	c0,0,0,0,0,0.1c0,0.1,0.1,0.1,0.1,0.2c0,0.1,0,0.1,0,0.2c0,0,0,0.1,0,0.1c0,0,0,0.1,0,0.1c0,0,0,0.1,0,0.1c0,0,0,0.1,0,0.1v0.3
	c0,0.1,0,0.1,0,0.2c0,0-0.1,0-0.1,0c0,0,0,0,0,0l0,0c0,0,0,0,0.3-0.2c0,0,0,0,0,0.1s0,0,0,0.1c0,0.1,0,0.1,0,0.2c0,0,0,0.1,0,0.2
	c0,0,0,0,0,0.1v0.1c0,0,0,0,0,0.1c0,0,0,0-0.1,0c0,0,0,0.1,0,0.2c0,0-0.1,0.1-0.1,0.1c0,0,0,0,0,0.1c0,0,0,0,0,0
	c0,0-0.1,0.1-0.1,0.1c0,0,0,0,0,0c0,0.1-0.1,0.1-0.1,0.2c0,0-0.1,0.1-0.1,0.1c0,0,0,0,0,0.1c0,0,0,0,0,0v0c0,0,0,0,0,0
	c0,0,0,0,0,0.1c0,0,0,0-0.1,0c0,0,0,0,0,0c0,0,0,0,0,0.1c0,0,0,0-0.1,0c0,0,0,0,0,0.1c0,0,0,0.1,0,0.1c0,0,0,0-0.1,0l0,0h-0.1
	c-0.1,0-0.1,0-0.1,0.1c0,0,0,0.1,0,0.2c0,0.1,0,0.1,0,0.2c0,0,0,0,0,0.1c-0.1,0-0.1,0-0.1,0.1c0,0.1,0,0-0.1,0c0,0,0,0.1,0,0.1v0.1
	c0,0,0,0,0,0.1c0,0,0,0-0.1,0l0,0c0,0,0,0,0,0h0v0l-0.1,0l0,0h0c0,0-0.1,0-0.1,0c0,0,0,0,0,0.1c0,0,0,0,0,0v0.1c0,0,0,0,0,0
	c0,0-0.1,0-0.1,0s0,0,0-0.1s0-0.1-0.1,0c0,0,0,0.1,0,0.1c0,0-0.1,0-0.1,0c0,0,0,0.1,0,0.1c0,0,0.1,0.1,0,0.1c0,0,0,0,0,0
	c0,0,0,0,0,0.1c0,0-0.1,0.1-0.1,0c0,0,0,0,0,0s0,0,0,0c0,0,0,0,0-0.1c0,0,0-0.1,0-0.1c0,0,0,0-0.1,0c0,0,0,0,0,0c0,0,0,0,0,0.1
	c0,0,0,0,0,0.1c0,0-0.1,0-0.1,0c0,0,0,0.1,0,0.1c-0.1,0-0.1,0-0.2,0c0,0.1-0.1,0.1-0.1,0.2l0,0v0c0,0-0.1,0-0.1,0c0,0,0,0,0,0.1
	c0,0-0.1,0-0.1,0c0,0,0,0,0,0.1c0,0,0,0-0.1,0c0,0,0,0,0,0.1c0,0-0.1,0-0.1,0.1c0,0,0,0-0.1,0c0,0,0,0,0,0.1c0,0,0,0,0,0.1
	c0,0-0.1,0-0.1,0.1c0,0-0.1,0-0.1,0.1c0,0-0.1,0.1-0.1,0.2c0,0-0.1,0-0.1,0.1c0,0-0.1,0.1-0.1,0.1c-0.1,0-0.1,0.1-0.1,0.1
	c0,0-0.1,0.1-0.1,0.1c0,0-0.1,0-0.1,0c0,0,0,0,0,0.1c-0.1,0.1-0.2,0.2-0.3,0.4c-0.1,0-0.1,0.1-0.1,0.2c0,0.1,0,0.1,0,0.1
	c-0.1,0-0.1,0.1-0.2,0.2c0,0-0.1,0.1-0.1,0.2c0,0,0,0.1,0,0.1c0,0,0,0-0.1,0c0,0,0,0,0,0c-0.1,0-0.2,0.1-0.1,0.2
	c-0.1,0-0.1,0-0.1,0.1c0,0-0.1,0.1-0.1,0.1c-0.2-0.1-0.1,0.2-0.1,0.3c-0.1,0-0.1,0-0.1,0.1c-0.1,0-0.1,0-0.1,0.1
	c-0.1,0-0.1,0.1-0.1,0.2c0,0-0.1,0.1-0.1,0.2c0,0,0,0,0,0.1c0,0-0.1,0.1-0.1,0.2c0,0,0,0.1,0,0.1c0,0-0.1,0.1-0.1,0.1
	c0,0-0.1,0-0.1,0c0,0,0,0.1,0,0.1c0,0-0.1,0.1-0.1,0.1v0c0,0-0.1,0-0.1,0.1c0,0.1-0.1,0.2-0.1,0.3c0,0.1,0,0.1-0.1,0.2
	c0,0,0,0.1,0,0.1c0,0,0,0,0,0c0,0,0,0,0,0c-0.1,0.1-0.1,0.2-0.1,0.2c0,0.1,0,0.1-0.1,0.1c0,0-0.1,0.1-0.1,0.1l0,0
	c-0.1,0.1-0.2,0.3-0.2,0.4c-0.1,0.2-0.2,0.5-0.3,0.7c0,0-0.1,0.4-0.2,0.4v0.1c-0.1,0-0.1,0.1-0.1,0.2c0,0,0,0,0,0.1c0,0,0,0,0,0
	c0,0,0,0,0,0.1c0,0,0,0-0.1,0c-0.1,0.1-0.1,0.1-0.1,0.2c0,0,0,0,0,0v0.1c-0.1,0,0,0.2-0.1,0.1c0,0,0,0.1,0,0.1c0,0-0.1,0-0.1,0
	c0,0,0,0,0,0.1c0,0.1-0.1,0.2-0.2,0.3c0,0,0,0.1,0,0.1c0,0-0.1,0.1-0.1,0.1c-0.1,0.1-0.1,0.2-0.1,0.3c0,0.1-0.1,0.2-0.1,0.2
	c0,0.1-0.1,0.2-0.1,0.2c0.1,0,0,0.1,0,0.1c0,0,0,0.1,0,0.2c0,0.1,0,0.1,0,0.1c0,0,0,0.1,0,0.1c0,0,0,0.1,0,0.2c0,0,0,0,0,0
	s0,0,0,0.1c0,0,0,0,0,0c0,0,0,0,0,0c0,0-0.1,0.1-0.1,0.1c0,0.1,0,0.2-0.1,0.2c0,0-0.1,0.2-0.1,0.2c0,0,0,0,0,0.1c0,0,0,0.1,0,0.1
	c0,0.1-0.1,0.1-0.1,0.2c-0.1,0.2-0.2,0.2-0.3,0.4c0,0,0,0.1-0.1,0.2c0,0.1,0,0.1-0.1,0.2c0,0,0,0.1,0,0.1c0,0-0.1,0.1-0.1,0.1
	c0,0,0,0-0.1,0.1c-0.1,0-0.1,0.1-0.1,0.1c0,0,0,0.1,0,0.1v0.1c0,0,0,0,0,0l0,0c0,0-0.1,0.1-0.1,0.1c0,0,0,0.1,0,0.1c0,0,0,0.1,0,0.1
	c0,0-0.1,0-0.1,0v0.3c0,0,0,0.1,0,0.1c0,0,0,0-0.1,0s0,0,0,0c0,0,0,0,0,0c0,0-0.1,0.1,0,0.1c0,0,0,0,0,0v0c0,0,0,0,0,0v0
	c0,0,0,0.1,0,0.1v0l0,0c0,0,0,0,0,0c0,0,0,0-0.1,0c0,0,0,0,0,0.1c0,0-0.1,0.1-0.1,0.2c0,0,0,0,0,0.1c0,0,0,0.1-0.1,0.1
	c0,0,0,0.1,0,0.1c0,0-0.1,0-0.1,0.1v0.1c0,0,0,0,0,0.1c0,0,0,0.1,0,0.1c0,0.1,0,0.1,0,0.2c0,0,0,0.1,0,0.1c0,0-0.1,0-0.1,0
	c0,0,0,0.1,0,0.1c0,0,0,0.1,0,0.1c0,0-0.1,0-0.1,0c-0.1,0,0,0.1,0,0.1c0,0-0.1,0.1-0.1,0.1s0.1,0,0.1,0.1c0,0,0,0.1,0,0.1
	c0,0-0.1,0-0.1,0.1c0,0,0,0,0,0.1c0,0,0,0,0,0.1c0,0,0,0,0,0.1c0,0,0,0,0,0.1c0,0.1,0,0.1-0.1,0.2c-0.1,0-0.1,0.1-0.1,0.2
	c0,0,0,0.1-0.1,0.2c0,0,0,0.1,0,0.2c0,0,0,0.1,0,0.1c0,0,0,0,0,0c0,0,0,0,0,0c0,0.1-0.1,0.2-0.1,0.2c0,0.1,0,0.2,0,0.2
	c0,0,0,0,0,0.1c0,0,0.1,0,0,0c-0.1,0-0.1,0-0.1,0c0,0,0,0-0.1,0.1c0,0,0,0.1,0,0.1c0.1,0,0,0.1,0,0.2c0,0.1-0.1,0.1-0.1,0.2
	c0,0-0.1,0.1,0,0.2c0,0,0,0,0,0.1c0,0,0,0.1,0,0.1c0,0,0,0.1-0.1,0.1c0,0-0.1,0.1-0.1,0.1c0,0,0,0,0,0.1c0,0,0,0.1,0,0.1
	c0,0.1,0,0.1,0,0.2c0,0.1-0.1,0.1-0.1,0.2c0,0,0,0,0,0.1c0,0,0,0,0,0.1c0,0.1,0,0.2,0,0.2c0,0.1,0.1,0.1,0.1,0.2c0,0,0,0.1,0,0.1
	c0,0,0,0.1,0,0.1c0,0-0.1,0-0.1,0c-0.1,0.1-0.1,0.2-0.1,0.3c0,0.1,0,0.1-0.1,0.1c0,0-0.1,0-0.1,0.1c0,0,0,0,0,0.1
	c0,0.1-0.1,0.1-0.1,0.2c0,0,0,0.1,0,0.2c0,0.1,0,0.1-0.1,0.2c0,0.1,0,0.2-0.1,0.3c0,0.1-0.1,0.1-0.1,0.2c0,0,0,0,0,0.1
	c0,0,0,0,0,0.1c0,0.2-0.1,0.3-0.2,0.4c-0.1,0.1-0.1,0.2-0.2,0.4s-0.2,0.2-0.2,0.4c0,0.1,0,0.1,0,0.2c0,0,0.1,0,0,0.1
	c0,0-0.1,0-0.1,0.1c0,0,0,0.1,0,0.2c0,0,0,0.1,0,0.2c0,0,0,0,0,0.1c0,0,0,0,0,0.1s0,0.1,0,0.1v0.1c0,0,0,0,0,0.1v0.1
	c0,0.1,0,0.1,0,0.2c0,0.1,0,0.1,0,0.2v0.1c0,0,0,0,0,0.1c0,0,0,0.1,0,0.2c0,0,0,0.1,0,0.2c0,0,0,0.1,0,0.1c0,0,0,0,0,0.1
	c0,0,0,0.1-0.1,0.1c0,0.1,0,0.1,0,0.2c0,0.1,0,0.1,0,0.1v0.1c0,0,0,0.1,0,0.1c0,0,0,0.1-0.1,0.1c0,0,0,0,0,0.1c0,0,0,0,0,0.1
	c0,0,0,0.1,0,0.1s0,0,0,0.1c0,0.1,0,0.1-0.1,0.1c-0.1,0-0.1,0-0.1,0c0,0-0.1,0-0.1,0c-0.1,0-0.1,0.1-0.1,0.1c0,0-0.1,0.1-0.1,0.1
	c0,0.1,0,0.1,0,0.2c0,0,0,0.1,0,0.2c0,0,0,0.1,0,0.2c0,0,0,0,0,0v0c0,0,0,0,0,0.1c0,0-0.1,0.1-0.1,0.1c0,0,0,0.1,0,0.2v0.1
	c0,0,0,0,0,0.1s0,0,0,0.1c0,0.1-0.1,0.1-0.2,0.2c0,0,0,0.1,0,0.2c0,0.1,0,0.1,0,0.2c0,0-0.1,0.1-0.1,0.1c-0.1,0.1,0,0.2-0.1,0.3v0.1
	c0,0,0,0,0,0c0,0,0,0.1,0,0.1c-0.1,0-0.1,0.1-0.1,0.1v0.1c0,0,0,0,0,0c0,0,0,0,0,0c-0.1,0-0.1,0-0.1,0c0,0,0,0.1,0,0.1c0,0,0,0,0,0
	c0,0,0,0,0,0c0,0,0,0.1,0,0.1c0,0,0,0.1,0,0.1c0,0,0,0,0,0.1v0.1c0,0,0,0,0,0.1v0.1c0,0,0,0,0,0c0,0,0,0.1,0,0.1c0,0,0,0.1,0,0.1
	c0,0.1,0,0.1,0,0.2v0.1c0,0,0,0,0,0.1c0,0,0,0,0,0.1c0,0,0,0,0,0.1c0,0,0,0,0,0.1v0.1c0,0,0,0,0,0s0,0.1,0,0.1c0,0.1,0,0-0.1,0v0.1
	c0,0.1,0,0.1,0,0.2v0c0,0,0,0,0,0v0.1c0,0,0,0.1,0,0.1c0,0,0,0,0,0.1c0,0.1,0,0.1,0,0.2v0.1c0,0-0.1,0-0.1,0c0,0,0,0.1,0,0.1
	c0,0,0,0,0,0.1c0,0.1,0,0.2,0,0.3c0,0,0,0,0,0c0,0,0,0,0,0c0,0-0.1,0-0.1,0.1c0,0,0.1,0,0.1,0.1c-0.1,0-0.1,0.1-0.1,0.1
	c0,0-0.1,0.1-0.1,0.2c-0.1,0.1-0.1,0.2-0.1,0.4c0,0,0,0.1,0,0.1v0.1c0,0,0,0,0,0.1c0,0,0,0.1,0,0.1c0,0,0,0,0,0c0,0,0,0,0,0.1v0.2
	c0,0,0,0.1,0,0.1c0,0,0,0.1-0.1,0.1c0,0,0,0.1,0,0.2c0,0.1,0,0.1,0,0.2c0,0,0,0.1,0,0.2c0,0,0,0.1-0.1,0.1c0,0,0,0.1,0,0.2
	c0,0,0,0.1,0,0.1c0,0,0,0,0,0l0,0c0,0,0,0,0,0c0,0,0,0,0,0.1c0,0.1-0.1,0.2,0,0.2c0,0,0,0,0,0.1c0,0,0,0,0,0.1c0,0,0,0.1,0,0.1
	c-0.1,0.1-0.1,0.1-0.1,0.2c0,0.1,0,0.1,0,0.2c0,0,0,0.1,0,0.2c0,0-0.1,0.1-0.1,0.2s0.1,0,0.1,0.1v0.1c0,0,0,0,0,0.1
	c0,0.1,0,0.1-0.1,0.1c-0.1,0-0.1,0.1,0,0.1c0,0,0,0,0,0.1c0,0,0,0,0,0.1c0,0,0,0.1-0.1,0.1c0,0-0.1,0-0.1,0.1v0.1h0c0,0,0.1,0,0.1,0
	c0.1,0,0,0.1,0,0.1c0,0.1,0,0.1-0.1,0.2c0,0,0,0.1-0.1,0.1h-0.1c0,0-0.1,0-0.1,0.1c0,0,0,0.1,0,0.2c-0.1,0.2-0.2,0.5-0.2,0.7
	c0,0,0,0.1,0,0.1c0,0,0.1,0,0.1,0.1v0.1c0,0,0,0,0,0.1c0,0,0,0,0,0.1c0,0,0,0,0,0.1c0,0,0,0.1,0,0.2c0,0.1,0,0.1,0,0.2
	c0,0.1,0,0.1,0,0.2c0,0,0,0,0,0.1c0,0,0,0,0,0.1c0,0,0,0.1,0,0.1c0,0-0.1,0-0.1,0c0,0,0,0,0,0.1c0,0,0,0,0,0v0l0,0c0,0,0,0,0,0
	c0,0,0,0,0,0c0,0-0.1,0-0.1,0c0,0,0,0,0,0l0,0c0,0,0,0,0,0.1v0.1c0,0,0,0,0,0.1c0,0,0,0,0,0.1v0.1c0,0,0,0,0,0c0,0,0,0,0,0v0.1
	c0,0,0,0,0,0.1c0,0,0,0.1,0,0.1c0,0,0,0,0,0c0,0-0.1,0-0.1,0.1c0,0,0,0,0,0.1c-0.1,0-0.1,0.1,0,0.1c0,0,0,0.1,0,0.1c0,0,0,0,0,0v0
	c0,0,0,0.1-0.1,0.1c-0.1,0.1-0.1,0.2-0.1,0.3c0,0,0.1,0.1,0,0.1c0,0,0,0.1,0,0.1c0,0,0.1,0.1,0.1,0.1c0,0,0,0.1-0.1,0.1
	c0,0,0,0.1,0,0.1v0.1c0,0,0,0.1,0,0.1c0,0,0,0,0,0v0.2c0,0.1,0,0.3,0,0.3l0,0h0c0,0-0.1,0-0.1,0.1c-0.1,0-0.1,0-0.1,0.1v0
	c0,0,0,0,0,0c0,0,0,0,0,0.1c0,0,0,0,0,0.1c0,0,0,0,0.1,0.1c0,0,0,0,0,0.1c0,0,0,0,0,0.1v0c0,0,0,0,0,0v0.1c0,0,0.1,0.1,0.1,0.1h-0.1
	c0,0,0,0,0,0c0,0,0,0,0,0.1c0,0,0,0.1,0,0.1v0.1c0,0,0,0,0,0.1c0,0,0,0.1,0,0.2c0,0,0,0.1,0,0.2c0,0,0,0,0,0.1c0,0,0,0-0.1,0
	c-0.1,0,0,0.1,0,0.1c0,0,0,0.1,0,0.1c0,0,0,0,0,0.1v0.1c0,0,0,0,0,0.1c0,0,0,0.1,0,0.1c0,0,0,0,0,0.1c0,0,0,0,0,0v0l0,0v0.2
	c0,0,0,0,0,0.1v0.2c0,0,0,0.1,0,0.1c0,0,0,0,0,0.1c0,0.1,0,0.1,0,0.2c0,0,0,0,0,0h0c0,0,0,0,0,0.1c0,0,0,0,0,0v0.1
	c0,0.1,0,0.1,0,0.1c0,0,0.1,0.1,0.1,0.1c0,0,0-0.1,0.1,0c0,0,0,0,0,0.1c0,0,0,0,0,0s0,0,0,0c0,0,0,0,0,0c0,0,0,0,0,0v0c0,0,0,0,0,0
	v0.1c0,0,0,0.1,0,0.1s0.1,0,0.1,0c0,0,0,0,0,0.1v0.1c0,0,0,0,0,0.1c0,0,0,0.1,0,0.1c0,0.1,0,0.1,0,0.2c0,0,0,0.1,0,0.2
	c0,0-0.1,0-0.1,0h0c0,0,0,0,0,0h0v0.2c0,0,0,0.1,0,0.1c0,0,0,0.1-0.1,0.1c0,0,0,0.1,0,0.2c0,0-0.1,0-0.1,0.1c0,0,0,0,0,0v0h-0.1
	c0,0,0,0.1,0,0.1c0,0,0,0-0.1,0c0,0,0,0,0,0h0c0,0.1-0.1,0.1-0.1,0.2v0.1c0,0,0,0,0,0.1v0.1l0,0c0,0,0,0.1,0,0.1v0.1c0,0,0,0,0,0
	c0,0.1,0,0.1,0,0.2c0,0,0,0.1,0,0.2c0,0.1,0,0.1-0.1,0.2c0,0.1,0,0.1,0,0.2s0,0.1,0,0.2c0,0,0,0.1,0,0.2c0,0-0.1,0.1-0.1,0.1
	c0,0,0,0,0,0.1c0,0,0,0.1,0,0.1s0,0,0,0.1v0.1c0,0,0,0,0,0.1v0.1c0,0.1,0,0.1,0.1,0.2c0,0,0.1,0,0.1,0c0.1,0,0,0,0,0c0,0,0,0,0.1,0
	c0,0,0,0,0,0.1c0,0,0,0,0,0.1c0,0,0,0,0,0.1c0,0-0.1,0.1-0.1,0.1c0,0,0,0,0,0c0,0,0,0,0,0c0,0,0,0.1-0.1,0c0,0,0,0-0.1,0
	c0,0,0,0,0,0c0,0,0,0,0,0c0,0-0.1,0-0.1,0c0,0,0,0,0,0v0c0,0-0.1,0-0.1,0c0,0,0,0,0,0c0,0,0,0.1,0,0.1v0.2c0,0,0,0,0,0
	c0,0,0,0,0,0.1c0,0,0,0,0,0.1s0,0,0,0.1c0,0,0,0,0,0c0,0,0,0,0,0c0,0,0,0,0,0v0c0,0-0.1,0-0.1,0c0,0,0,0,0,0.1c0,0,0,0.1,0,0.1
	c0,0,0,0.1,0,0.1v0.1c0,0.1,0,0.1,0,0.2c0,0-0.1,0.1-0.1,0.2v0.2c0,0,0,0.1,0,0.1c0,0,0,0.1,0,0.1c0,0,0,0.1,0,0.2c0,0,0,0-0.1,0
	c0,0,0,0.1,0,0.1c0,0,0,0.1,0,0.1c0,0,0,0.1,0,0.1s0,0.1,0,0.1c0,0,0,0,0,0.1c0,0.1,0,0.1,0,0.2c0,0,0,0.1,0,0.1c0,0,0,0.1,0,0.1
	c0,0.1,0,0.1-0.1,0.2v0c0,0,0,0,0,0s0,0,0,0v0c0,0.1,0,0.2,0,0.2c-0.1,0.1-0.1,0.1-0.1,0.2v0.1c0,0,0,0,0,0.1c0,0.1,0,0.1,0,0.2
	c0,0,0,0.1,0,0.1c0,0,0,0,0,0.1c0,0.1,0,0.2,0,0.2c0,0,0,0.1,0,0.2c0,0,0,0.1,0,0.2c0,0.1,0,0.1,0,0.2c0,0-0.1,0-0.1,0.1
	c0,0,0.1,0,0,0.1c0,0,0,0,0,0c0,0,0,0,0,0v0.1c0,0.1,0,0.1,0,0.2c0,0,0,0.1,0,0.2c0,0-0.1,0.1-0.1,0.2c0,0,0,0,0,0c0,0,0,0.1,0,0.1
	v0.4c0,0,0,0,0,0c0,0,0,0.1,0,0.1c0,0,0,0.1,0,0.1c0,0.1,0,0.1,0,0.2c0,0,0,0,0,0.1c0,0,0,0.1,0,0.1c0,0,0,0.1,0,0.2
	c0,0.1,0,0.1,0,0.2c0,0.1,0,0.1,0,0.2c0,0,0,0,0,0.1v0.1c0,0.1,0,0.1,0,0.2v0.2c0,0,0,0,0,0c0,0,0,0,0,0c0,0,0,0,0,0.1
	c0,0.1,0,0.1,0,0.2c0,0-0.1,0.1,0,0.1v0.1c0,0,0,0,0,0.1v0.1c0,0,0,0.1,0,0.1c0,0-0.1,0-0.1,0.1s0,0,0,0.1c0,0.1,0,0.1,0,0.2
	s0,0.1,0,0.2c0,0,0,0,0,0.1c0,0,0,0.1,0,0.2v0.1c0,0,0,0.1,0,0.1l0,0v0c0,0-0.1,0.1-0.1,0.2c0.1,0.1,0,0.1,0,0.2c0,0.1,0,0.1,0,0.2
	c0,0.1,0,0.1,0,0.2c0,0,0,0,0,0.1v0.1c0,0,0,0.1,0,0.1v0.3c0,0,0,0,0,0c0,0,0,0,0,0c0,0,0,0,0,0v0.1c0,0,0,0,0,0v0.1c0,0,0,0,0,0.1
	v0.1c0,0,0,0,0,0.1c0,0.1,0,0.1,0,0.2c0,0,0,0.1,0,0.1s-0.1,0-0.1,0.1c0,0,0,0,0,0.1c0,0,0,0,0,0c0,0,0,0,0,0c0,0,0,0.1,0,0.1
	c0,0.1,0,0.1,0,0.2c0,0.1-0.1,0.1-0.1,0.2v0.1c0,0,0,0,0,0.1v0.2c0,0.1,0,0.1,0,0.2c0,0,0,0.1,0,0.1c0,0.1,0,0.1,0,0.2
	c0,0.1,0,0.1,0,0.2c0,0.1,0,0.1,0,0.2c0,0-0.1,0.1,0,0.2c0,0,0,0,0,0.1c0,0,0,0-0.1,0v0.2c0,0.1,0,0.1,0,0.2c-0.1,0,0,0.1-0.1,0.2
	v0.1c0,0,0.1,0,0.1,0c0,0,0,0-0.1,0.1c0,0.1,0,0.2-0.1,0.3v0.1c0,0,0,0.1,0,0.1c0,0.1,0,0.1-0.1,0.2c0,0,0,0.1,0,0.1c0,0,0,0,0,0.1
	c0,0,0,0.1,0,0.2c0,0,0,0.1,0,0.1c0,0-0.1,0-0.1,0.1c0,0.1,0,0.1,0,0.2c0,0-0.1,0.1-0.1,0.2c0,0,0,0.1-0.1,0.1c0,0,0,0,0,0
	c0,0,0,0,0,0.1c0,0,0,0.1,0,0.1c0,0,0,0.1-0.1,0.1c0,0,0,0,0,0c0,0,0,0-0.1,0c0,0,0,0.1,0,0.1c0,0,0,0-0.1,0c0,0,0,0-0.1,0.1
	c0,0-0.1,0.1-0.1,0.1c-0.1,0-0.1,0.1-0.2,0.1c0,0,0,0,0,0c0,0-0.1,0-0.1,0c-0.1,0-0.1,0-0.1,0c0,0,0,0-0.1,0.1c0,0-0.1,0-0.1,0
	c0,0,0,0,0,0c0,0-0.3,0.1-0.4,0.1c-0.1,0-0.1,0-0.2,0h-0.1c0,0,0,0-0.1,0c-0.1,0-0.1,0-0.2,0h-0.1c0,0,0,0-0.1,0c-0.1,0-0.1,0-0.2,0
	c0,0-0.1,0-0.1,0c0,0-0.1,0-0.1,0c-0.1,0-0.1,0-0.2-0.1c-0.1,0-0.1,0-0.2,0c0,0,0,0-0.1-0.1c0,0,0,0,0,0c0,0-0.1,0-0.1,0
	c0,0-0.1,0-0.1-0.1c0,0,0,0-0.1,0c0,0,0,0,0-0.1c0,0,0,0,0,0c0,0,0,0,0,0c0,0,0,0-0.1-0.1c0,0,0-0.1-0.1-0.1c0,0,0,0-0.1,0
	c0-0.1,0-0.1-0.1-0.2c0,0,0-0.1-0.1-0.1c0,0,0,0,0-0.1c0,0,0-0.1,0-0.1c0,0,0,0,0-0.1c0-0.1-0.1-0.1-0.1-0.2c0,0,0,0,0,0
	c0,0-0.1,0,0,0c0,0,0,0,0-0.1c0,0,0-0.1-0.1-0.2v-0.1c0,0,0-0.1,0-0.1v-0.1c0,0,0-0.1-0.1-0.2c0,0,0,0,0-0.1c0,0,0,0,0,0
	c0,0,0,0,0,0c0,0,0-0.1,0-0.1c0,0,0-0.1,0-0.1c0,0,0,0-0.1-0.1c0,0,0-0.1,0-0.1c0-0.1,0-0.1,0-0.2c0,0,0,0,0-0.1c0,0,0,0,0,0v0
	c0,0-0.1-0.1-0.1-0.1c0,0,0-0.1-0.1-0.1c0,0,0,0,0-0.1c0,0,0,0,0-0.1c0,0,0-0.1,0-0.2v-0.1c0,0,0,0,0,0c0,0,0,0,0-0.1
	c0-0.1-0.1,0-0.1-0.1c0,0,0,0,0-0.1v0c0,0,0,0,0,0c0,0,0,0,0,0l0,0c0,0,0,0,0,0s0-0.1,0-0.1s0-0.1,0-0.1c0,0,0-0.1,0-0.1
	s-0.1,0,0-0.1c0,0,0-0.1,0-0.2c0-0.1,0-0.1-0.1-0.2c0,0,0,0,0-0.1v-0.1c0,0,0,0,0-0.1V218c0,0,0-0.1,0-0.1c-0.1,0,0-0.1,0-0.1
	c0-0.1,0-0.1,0-0.2c0-0.1,0-0.2,0-0.3c0-0.1,0-0.2,0-0.3c0,0,0,0,0-0.1c0,0,0-0.1,0-0.1c0,0,0,0-0.1-0.1c0,0,0,0,0,0
	c0.1,0,0,0,0-0.1v0c0,0,0,0,0,0c0,0,0.1-0.1,0-0.1h-0.1c0,0,0,0,0,0v-0.2c0-0.1,0-0.1,0-0.2c0-0.1,0-0.1,0-0.2c0-0.1,0-0.1,0-0.2
	c0,0,0,0,0,0v-0.1c0,0,0,0,0-0.1v-0.2c0-0.1-0.1-0.1-0.1-0.2c0,0,0,0,0-0.1c0,0-0.1,0-0.1,0c-0.1,0-0.1-0.1,0-0.2c0,0,0.1,0,0.1-0.1
	v-0.1c0-0.1,0-0.2,0-0.2V214c0,0,0,0,0-0.1c0,0,0,0,0-0.1c0,0,0-0.1,0-0.1v-0.1c0,0,0-0.1,0-0.1c0,0,0,0-0.1-0.1c0,0-0.1,0-0.1-0.1
	c0,0,0.1,0,0.1,0v-0.2c0,0,0,0,0-0.1c0,0,0,0,0,0l0,0c0,0,0-0.1,0-0.1c0,0,0-0.1,0-0.1c0-0.1,0-0.1,0-0.2c0-0.1,0-0.1,0-0.2
	c0-0.1,0-0.1,0-0.2c0,0,0-0.1-0.1-0.2c0,0,0,0,0-0.1c0,0,0,0-0.1,0c0,0-0.1,0-0.1,0c0,0,0,0,0,0c0,0-0.1,0-0.1,0c0,0-0.1,0-0.1,0
	c0,0,0,0,0,0c0,0,0,0,0,0c0,0,0,0,0.1,0c0,0,0,0,0.1,0c0.1,0,0.1-0.1,0.1-0.1c0,0,0.1,0,0.1-0.1c0,0,0,0,0-0.1c0,0,0-0.1,0-0.1
	c0,0,0-0.1,0-0.1c0,0-0.1-0.1-0.1-0.1c0,0-0.1,0-0.1,0c-0.1,0-0.1,0-0.1,0c0-0.1,0-0.1,0-0.2c0,0,0-0.1,0-0.1c0,0,0-0.1,0-0.1
	c0,0,0-0.1,0-0.1c0,0,0-0.1,0-0.1c0.1,0,0.1-0.1,0.1-0.1c0,0,0-0.1-0.1-0.1V210c0,0,0,0,0-0.1c0,0,0,0,0-0.1v-0.1c0,0,0-0.1-0.1-0.2
	c0,0,0,0,0-0.1c0,0,0-0.1,0-0.1c0,0,0,0,0,0v-0.2c-0.1,0,0-0.2-0.1-0.3c0,0,0,0,0-0.1c0,0,0,0,0-0.1c0,0,0-0.1,0-0.1
	c0,0-0.1-0.1,0-0.1c0,0,0,0,0,0l0,0c0,0-0.1-0.1-0.1-0.1c0,0,0-0.1,0-0.1c0,0,0,0,0-0.1v-0.1c0,0,0-0.1,0-0.1c0,0,0-0.1,0-0.1
	c0,0,0,0,0-0.1c0,0,0,0,0,0c0,0,0,0,0,0v-0.2c0,0,0-0.1,0-0.1v-0.1c0,0,0.1-0.1,0-0.1c0,0,0,0,0,0c0-0.1,0-0.1,0-0.2
	c0-0.1,0-0.1,0-0.2v-0.1c0,0,0,0,0,0c0,0,0-0.1,0-0.2c0,0,0-0.1,0-0.1c0,0,0-0.1,0-0.1c0,0,0,0,0-0.1c0,0,0,0,0,0v0h0
	c0-0.1,0-0.2,0-0.2c0,0,0-0.1,0-0.1c0,0,0-0.1,0-0.1c0,0,0,0,0,0c0,0,0,0,0,0v-0.1c0,0,0-0.1,0-0.2c0-0.1,0-0.1,0-0.2
	c0,0-0.1,0-0.1-0.1v-0.1c0-0.1,0-0.2,0-0.2c0,0-0.1,0-0.1-0.1c0,0,0.1,0,0.1-0.1c0,0-0.1-0.1,0-0.1c0,0,0,0,0,0c0,0,0-0.1,0-0.1
	c0-0.1,0-0.1,0-0.2v-0.1c0-0.1-0.1-0.1-0.1-0.2c0,0,0-0.1,0-0.1c0,0,0-0.1,0-0.1c0-0.1-0.1-0.2-0.1-0.3c0-0.1,0-0.2,0-0.2
	c0-0.1,0-0.1,0-0.2c0-0.1,0-0.1,0-0.2c0,0,0-0.1,0-0.1c0-0.1,0-0.2,0-0.2c0-0.1,0-0.2-0.1-0.3c0-0.1,0-0.2-0.1-0.3c0,0,0-0.1,0-0.1
	v-0.1c0,0,0,0,0,0c0-0.1,0-0.1,0-0.1c0,0,0-0.1,0-0.1v-0.3c0-0.1,0-0.1,0-0.1c0,0,0-0.1,0-0.1c0-0.1-0.1-0.2-0.1-0.3
	c0-0.1,0-0.1,0-0.2c0,0,0,0,0,0v-0.1c0,0,0-0.1,0-0.2c0-0.1,0-0.2-0.1-0.3c0,0,0-0.1,0-0.1c0-0.1-0.1-0.2-0.1-0.3c0-0.1,0-0.1,0-0.2
	c0,0,0-0.1,0-0.2c0-0.1,0-0.1-0.1-0.1V198c0-0.2,0-0.5-0.1-0.7c0-0.1,0-0.2,0-0.3c0,0,0-0.1,0-0.1c0,0,0-0.1,0-0.1c0,0,0-0.1,0-0.1
	c0-0.1,0-0.1,0-0.2c0-0.1,0-0.2-0.1-0.3c0-0.1-0.1-0.2-0.1-0.4c0-0.1,0-0.1,0-0.2c0,0,0,0-0.1-0.1c0,0,0-0.1,0-0.1
	c-0.1,0.1,0-0.2-0.1-0.2c0,0,0.1,0,0-0.1c-0.1,0,0,0,0-0.1c0-0.1,0-0.2,0-0.4c0,0,0-0.1,0-0.2c0,0,0,0,0-0.1s0,0,0-0.1
	c0-0.1,0-0.2,0-0.3c0,0,0-0.1,0-0.1c0,0-0.1-0.1-0.1-0.2c0-0.1,0-0.2,0-0.2c0-0.1,0-0.2-0.1-0.3c0-0.1,0-0.2,0-0.3c0,0,0-0.1,0-0.1
	c0,0,0,0,0,0c0,0,0,0,0,0c0,0,0-0.1,0-0.1c0,0,0-0.1,0-0.2c0-0.1,0-0.2,0-0.3c-0.1-0.1-0.1-0.2-0.1-0.3c0,0,0-0.1,0-0.1
	c0-0.1,0-0.2,0-0.2c0-0.1,0-0.2-0.1-0.3c0-0.1,0-0.2-0.1-0.3c0,0,0-0.1,0-0.1c0,0-0.1,0-0.1-0.1c0-0.1,0-0.2,0-0.3
	c0,0-0.1,0.1-0.1,0.1c0-0.1,0.1-0.1,0.1-0.2c0-0.1,0-0.2,0-0.3c0,0,0,0,0-0.1c0,0,0,0-0.1,0c0,0,0,0,0-0.1c0,0,0,0,0,0
	c0,0,0,0,0-0.1c0,0,0,0-0.1,0c0,0-0.1-0.1-0.1-0.1c-0.1-0.1-0.1-0.2,0-0.3c0,0,0.1-0.1,0-0.1c0,0-0.1,0-0.1-0.1c0,0,0-0.1,0-0.2
	c0,0,0,0,0-0.1c0,0,0-0.1,0,0c0,0,0,0,0-0.1s0,0,0,0c0,0,0.1,0,0.1,0v0c0,0,0,0,0,0c0,0-0.1-0.1-0.1-0.1c-0.1,0,0,0,0-0.1
	c0,0,0-0.1,0-0.1v-0.1c0,0,0,0,0-0.1c0,0,0,0,0.1,0c0.1,0,0.1,0,0.1-0.1c0-0.1,0-0.1-0.1-0.1c-0.1,0-0.1,0-0.1,0.1
	c0,0,0,0.1-0.1,0.1c0,0,0,0-0.1-0.1c0,0,0,0,0,0c-0.1-0.1,0-0.1,0-0.1c0,0,0,0,0-0.1c0,0,0,0,0,0V187c0,0,0,0,0,0c0,0,0,0,0,0
	c0,0-0.1,0-0.1,0c-0.1,0-0.1-0.1-0.1-0.1c0,0,0,0,0-0.1c0,0,0,0,0,0c0,0-0.1,0-0.1,0c0,0,0,0-0.1,0c0,0,0,0-0.1,0c0,0,0,0-0.1-0.1
	c0,0-0.1,0-0.2,0c-0.1,0-0.1,0-0.1,0.1c0,0,0,0,0,0v0.1c0,0.1-0.1,0.1-0.1,0.1c0,0,0,0,0,0.1v0l0,0c0,0,0,0,0,0.1c0,0,0,0,0,0
	c0,0,0,0-0.1,0c0,0,0,0,0,0c0,0,0,0,0,0c0,0,0,0,0,0.1c0,0,0,0,0,0.1c0,0,0,0-0.1,0h0c0,0,0,0.1,0,0.1c0,0-0.1,0-0.1,0
	c0,0,0,0,0,0.1c0,0-0.2-0.1-0.2-0.1c0,0,0,0.1,0,0.1c0,0-0.1,0-0.1,0v0.1c0,0-0.1,0.1,0,0.1c0,0,0,0,0,0c0,0,0.1,0,0.1,0
	c0.1,0,0,0,0,0c0,0,0.1,0,0.1,0.1c0,0,0,0.1,0,0c0,0,0,0,0,0c0,0-0.1,0-0.1,0c0,0-0.1,0-0.1,0c0,0,0,0.1,0,0c0,0-0.1-0.1-0.1,0
	c0,0,0,0.1,0,0.1c0,0,0,0.1,0,0.1c0,0,0,0.1,0,0.1c0,0,0,0,0,0c0.1,0,0,0.1,0,0.2c0,0,0.1,0,0,0.1c0,0,0,0,0,0c0,0,0.1,0.1,0,0.1
	c0,0-0.1-0.1-0.1,0c0,0,0,0.1,0,0.1c0,0,0.1,0,0.1,0c0,0,0,0.1-0.1,0.1c0,0-0.1,0-0.1,0c0,0,0,0,0,0.1c0,0,0,0,0,0c0,0,0,0,0,0
	c0,0,0,0,0,0.1c0,0,0,0,0,0c0,0,0.1,0,0.1,0l0,0.1h0c0,0,0,0,0,0s0,0,0,0c0,0,0,0,0,0c0,0,0,0-0.1,0c0,0,0,0.1,0,0.1v0
	c0,0,0,0-0.1,0c-0.1,0,0,0.1,0,0.2c0,0,0,0,0,0.1c0,0,0,0,0,0c0,0,0,0.1,0,0.1c0,0-0.1,0-0.1,0c0,0,0,0,0,0.1c0,0-0.1,0.1-0.1,0.1
	c0,0,0,0,0,0.1c0,0-0.1,0-0.1,0c0,0,0,0.1,0,0.2c0,0-0.1,0.1,0,0.1c0,0,0.1,0,0.1,0c0,0,0,0,0,0c0,0,0,0-0.1,0c0,0,0,0.1,0,0.1
	c0,0,0,0,0,0.1v0.1c0,0,0,0,0,0.1c0,0,0,0,0,0c0,0,0,0,0,0c0,0,0,0,0,0.1c0,0,0,0-0.1,0c0,0,0,0-0.1,0c0,0,0,0,0,0c0,0-0.1,0-0.1,0
	c0,0-0.1,0.1,0,0.1h0.1c0,0,0,0,0.1,0c0,0,0,0,0,0c0,0,0,0-0.1,0c0,0,0,0,0,0.1c0,0-0.1,0-0.1,0c0,0,0,0,0,0.1v0.1c0,0,0,0,0.1,0.1
	c0,0,0,0,0,0.1c0,0-0.1,0.1-0.1,0.1c0,0-0.1,0.1,0,0.1c0,0,0,0,0,0c0,0,0,0,0,0v0c0,0,0,0,0,0c0,0,0,0,0,0.1c0,0,0.1,0,0,0
	c0,0,0,0,0,0v0c0,0,0,0,0,0c-0.1,0-0.1,0-0.1,0v0.1c0,0,0,0.1,0,0.1c0,0,0,0,0,0c0,0,0,0.1,0,0.2c0.1,0,0.2,0,0.2,0
	c0,0.1-0.1,0.1-0.1,0.1c-0.1,0-0.1,0.1-0.2,0.1c0,0.1-0.1,0.2-0.1,0.3c0,0,0,0.1,0,0.1c0,0.1,0,0.1,0,0.2c0,0.1-0.1,0.1-0.1,0.1
	c-0.1,0,0,0.1-0.1,0.1c0,0.1-0.1,0.1-0.2,0.2c-0.1,0.1,0,0,0,0.1c0,0,0,0.1-0.1,0.1c-0.1,0.1-0.1,0.1-0.1,0.2c0,0,0,0.1,0,0.2
	c0,0,0,0-0.1,0.1c0,0,0,0.1,0,0.2c0,0.1,0,0-0.1,0.1c0,0,0,0-0.1,0.1c0,0,0,0.1,0,0.1c0,0.1,0,0.1,0,0.2c-0.1,0-0.1,0-0.1,0.1
	c-0.1,0.1-0.1,0.2,0,0.3c0,0,0.1,0,0,0.1c0,0-0.1,0-0.2,0c0,0,0,0.1-0.1,0.1c0,0,0,0-0.1,0.1c0,0.1-0.1,0.1-0.2,0.2
	c-0.1,0.1-0.3,0.2-0.4,0.2c-0.1,0-0.1,0-0.2,0.1c0,0,0,0-0.1,0.1c-0.1,0-0.1,0-0.1,0c0,0,0,0.1-0.1,0.1c0,0-0.1,0-0.1,0
	c-0.1,0-0.2,0-0.3,0c-0.1,0-0.1,0-0.2,0h-0.3c-0.1,0-0.1,0-0.2,0c-0.1,0-0.1,0-0.2-0.1c-0.1,0-0.3-0.1-0.5-0.2
	c-0.3-0.1-0.6-0.5-0.8-0.8c-0.1-0.2-0.2-0.4-0.2-0.6c-0.1-0.4,0.1-0.9,0.2-1.3c0-0.2,0.1-0.4,0.2-0.6c0.1-0.2,0.2-0.4,0.2-0.6
	c0-0.1,0-0.2,0-0.3c0-0.1,0.1-0.2,0.1-0.3c0.1-0.1,0.1-0.2,0.1-0.3c0,0,0.1-0.1,0.1-0.1c0-0.1,0-0.1,0-0.2c0-0.1,0.1-0.2,0.1-0.3
	c0-0.1,0.1-0.2,0.1-0.3c0,0,0,0-0.1,0c0.1-0.3,0.3-0.7,0.5-1c0.1-0.3,0.3-0.6,0.4-0.9c0-0.1,0-0.2,0.1-0.4c0,0,0.1-0.3,0.1-0.2
	c-0.1-0.2,0-0.2,0.1-0.3c-0.2-0.1,0.1-0.2,0.1-0.3c0.1-0.1,0.1-0.3,0.2-0.5c0.1-0.2,0-0.2,0-0.4c0-0.1,0-0.2,0.1-0.4
	c0.1-0.2,0.3-0.4,0.4-0.6c0-0.3,0.1-0.5,0.2-0.7c0.1-0.1,0-0.2,0.1-0.4c0-0.1,0.2-0.2,0.1-0.3c0-0.1,0-0.2,0.1-0.3
	c0.1-0.1,0.1-0.2,0.1-0.3c0-0.2,0.1-0.4,0.2-0.6c0.1-0.2,0.2-0.5,0.3-0.7c0-0.1,0.1-0.3,0.1-0.4c0-0.1,0-0.2,0-0.3s0.1-0.2,0.1-0.4
	c0.1-0.2,0.1-0.3,0.2-0.5c0.1-0.1,0.1-0.2,0.1-0.3c0-0.1,0.1-0.3,0.1-0.4s0-0.2,0.1-0.3c0.1-0.1,0.1-0.2,0.2-0.3
	c0.2-0.4,0.2-0.7,0.3-1.1c0-0.1,0.1-0.2,0.1-0.3c0-0.1,0.1-0.2,0.1-0.3c0,0,0-0.1,0-0.1c0,0,0.1-0.1,0.1-0.1c0-0.2,0.1-0.5,0.2-0.7
	c0,0,0,0,0,0c0,0,0,0,0,0c0,0,0,0,0-0.1c0,0,0-0.1,0.1-0.1c0,0,0-0.1,0.1-0.2c0,0,0-0.1,0-0.1c0,0,0,0,0-0.1c0-0.1,0-0.2,0.1-0.3
	c0,0,0.1-0.1,0.1-0.1c0,0,0.1-0.1,0.1-0.1c0.1-0.2,0.1-0.4,0.2-0.6c0-0.2,0.2-0.4,0.3-0.5c0.1-0.1,0.1-0.3,0.3-0.4
	c0.1-0.1,0.2-0.1,0.3-0.2c0.1-0.1,0.2-0.2,0.3-0.2c0.1,0,0.1-0.1,0.2-0.1c0.1,0,0.2,0,0.2-0.1c0,0,0.1,0,0.1,0c0,0,0,0,0.1-0.1
	c0,0,0.1,0,0.1,0c0.1,0,0.1,0,0.2-0.1s0.1,0,0.2,0s0.2,0,0.2,0c0,0,0.1,0,0.1,0c0.1,0,0.1,0,0.1,0c0.1,0,0.2,0,0.3,0
	c0.1,0,0.2,0,0.3,0c0,0,0.1,0,0.1,0c0.1,0,0.2,0,0.3,0.1c0,0,0.1,0,0.1,0c0.1,0,0.2,0.1,0.3,0.1c0.1,0,0.1,0.1,0.1,0.1
	c0,0,0.1,0.1,0.1,0.1c0.1,0,0.1,0.1,0.2,0.1c0,0,0.1,0.1,0.1,0.1c0,0,0.1,0.1,0.1,0.1c0,0,0,0,0,0.1c0,0,0,0,0.1,0.1
	c0,0.1,0.1,0.1,0.1,0.2c0,0,0,0.1,0,0.1c0,0,0.1,0,0.1,0.1c0,0,0,0.1,0,0.1c0,0,0,0.1,0.1,0.1c0,0.1,0.1,0.3,0.1,0.4
	c0,0.1,0.1,0.1,0.1,0.2c0,0.1,0,0.1,0,0.2c0,0.2,0,0.3,0.1,0.5c0,0,0,0.1,0,0.1v0.1c0,0.1,0,0.2,0,0.2c0.1,0,0,0.1,0,0.1
	c0,0,0,0.1,0,0.1c0,0.1,0,0.1,0,0.2c0,0.1,0,0.2,0,0.2c0,0,0,0,0,0.1v0.1c0,0.1,0.1,0.1,0.1,0.2v0.2c0,0,0,0,0,0v0c0,0,0.1,0,0.1,0
	c0,0,0,0,0,0.1c0,0,0,0.1,0,0.1c0,0,0,0.1,0,0.1v0.1c0,0.1,0.1,0.1,0.1,0.2c0,0.1,0,0.1,0,0.2c0,0,0,0,0,0.1c0,0,0,0,0,0
	c0,0,0,0,0,0c0,0.1,0,0.1,0,0.2c0,0,0,0,0.1,0.1v0.1c0,0.1,0,0.2,0,0.3c0,0,0,0.1,0,0.1v0.1c0,0.1,0,0.1,0.1,0.2c0,0.1,0,0.1,0,0.2
	c0,0,0,0.1,0,0.2c0,0.1,0,0.2,0.1,0.3c0,0,0,0,0,0.1c0,0,0,0.1,0,0.1v0.1c0,0,0,0,0,0.1v0.1c0,0.1,0,0.1,0.1,0.2
	c0,0,0.1,0.1,0.1,0.2c0,0,0,0,0,0.1c0,0,0,0,0,0.1c0,0.1,0,0.2,0.1,0.2c0,0,0,0,0.1,0.1c0,0,0,0,0,0.1c0,0,0.1,0,0,0.1
	c0,0-0.1,0-0.1,0c-0.1,0,0,0.2,0,0.2c0,0,0.1,0,0.1,0c0,0,0,0.1,0,0.1c0,0-0.1,0-0.1,0c0,0,0,0,0,0.1c0,0,0.1,0,0.1,0
	c0.1,0,0.1,0,0.1,0c0,0-0.1,0-0.1,0c0,0,0,0.2,0,0.2c0,0.1,0,0.1,0.1,0.1c0,0,0,0,0,0.1c0,0.1,0,0.1-0.1,0.2c0,0,0,0.1,0,0.2
	c0.1,0.1,0.1,0,0.2,0.1c0,0,0.1,0,0.1,0.1c0,0-0.1,0-0.1,0.1c0,0,0.1,0,0.1,0.1c0,0-0.1,0-0.1,0.1c0,0,0,0,0.1,0.1v0.1
	c0,0,0,0.1,0,0.1v0.1c0,0,0.1,0,0.1,0.1c0,0,0,0.1-0.1,0.1c-0.1,0-0.1,0-0.1,0.1c0,0,0,0.1,0,0.1c0,0,0,0,0,0.1c0,0-0.1,0,0,0.1
	c0.1,0,0,0.1,0,0.1l0,0v0c0,0,0,0,0,0.1c0,0,0,0.1,0,0.1c0,0,0,0,0,0c0,0,0,0,0,0c0,0,0,0.1,0,0.1c0,0,0,0.1,0,0.2
	c0,0,0.1,0,0.1,0.1c0,0,0,0,0,0.1c0,0,0,0,0,0.1c0,0,0.1,0,0.1,0c0,0,0,0-0.1,0.1c0,0,0,0,0,0.1c0,0.1,0,0.1,0,0.2
	c0,0.1,0,0.1,0,0.2c0,0.1,0,0.2,0.1,0.3c0,0,0.1,0.1,0,0.1c0,0.1-0.1,0,0,0.1c0,0.2,0.1,0.4,0.1,0.7c0,0,0.1,0,0.1,0
	c0,0,0,0.1,0,0.1c0,0.1-0.1,0.1-0.1,0.2c0,0.1,0,0.1,0.1,0.2c0,0.1,0,0.1,0,0.2c0,0.1,0,0.1,0,0.2c0,0.1,0,0.1,0.1,0.1
	c0.1,0,0.1,0,0.1,0.1c0,0.1,0,0.1,0,0.1c-0.1,0,0,0.1,0,0.1c0,0,0,0.1,0,0.1c0,0,0.1,0,0.1,0c0.1,0,0,0,0,0.1c0,0,0.1,0,0.1,0.1
	c0,0,0,0,0,0.1c0,0.1,0.1,0.2,0.1,0.3c0,0,0.1,0.1,0.1,0.1c0,0,0,0.1,0,0.2c0,0.1,0.1,0.1,0.1,0.2v0.2c0,0.1,0,0.1,0,0.2
	c0,0.1,0,0.1,0,0.2c0,0.1,0.1,0.2,0.1,0.3c0,0,0.2,0.1,0.2,0.2c0,0,0,0.1,0,0.1c-0.1,0-0.1,0-0.2,0c0,0,0,0.1,0,0.1c0,0,0,0.1,0,0.1
	c0,0,0,0.1,0,0.1c0,0,0,0.1,0,0.1c0.1,0,0.1,0.2,0.1,0.3c0,0,0.1,0.1,0.1,0.2c0,0,0.1,0.1,0.1,0.1c0,0.1,0,0.1,0,0.1
	c0,0,0,0,0.1,0.1c0,0.1,0,0.2,0,0.3v0.4c0,0.1,0,0.2,0,0.3c0,0,0,0.1,0,0.1c0,0.1,0.1,0.1,0.1,0.1c0,0,0,0.1,0,0.1c0,0,0,0,0,0.1
	c-0.1,0,0,0.1,0.1,0.1c0,0,0,0.1,0,0.1c0,0,0.1,0.1,0.1,0.1c0,0,0,0.1,0,0.2c0,0,0.1,0.1,0.1,0.2c0.1,0.1,0.1,0.2,0,0.2
	c0,0,0,0.1,0,0.1c0,0,0,0,0,0.1c0,0,0,0,0,0c0,0,0,0.1,0,0.1c0,0,0,0.1,0,0.1c0,0,0,0.1-0.1,0.1c0,0.1-0.1,0,0,0.1
	c0,0,0.1,0,0.1,0.1c0,0.1-0.1,0.1-0.1,0.1c-0.1,0.1,0,0.1,0,0.2v0.2c0,0,0,0.1,0,0.1c0,0,0,0.1,0,0.1c0,0,0.1,0.1,0.1,0
	c0,0,0.1,0,0.1,0s0,0,0,0c0,0,0,0,0.1,0c0,0-0.1,0.1-0.2,0.1c0,0,0,0,0,0.1c0,0,0,0.1,0,0.1c0,0.1,0,0.2,0.1,0.1c0,0,0,0,0,0
	c0,0,0.1,0,0.1,0c0,0-0.1,0-0.1,0c0,0,0,0.1,0,0.1c0,0.1,0,0.1,0.1,0.1c0,0,0.1,0,0.1,0.1c0,0,0.1,0.2,0.1,0.3c0,0.1-0.1,0,0,0.4
	c0.1,0.2,0,0.2-0.1,0.3c0,0,0.1,0.1,0,0.2c0,0-0.1,0.1-0.1,0.1c0,0.1,0.1,0.2,0.1,0.4c0,0.1,0.1,0.2,0.1,0.3c0,0.1,0,0.3,0,0.4v0.4
	c0,0.1,0,0.1,0,0.2c0,0-0.1,0-0.1,0.1c0.2,0.1,0.3,0,0.3,0.2c0,0.1-0.1,0.1-0.1,0.2c0,0.1,0,0.1,0.1,0.2c0,0.2,0,0.3,0,0.5
	c0,0.1,0,0.1,0,0.2c0,0,0,0.1,0.1,0.2c0.2-0.1,0.1-0.1,0.3,0c0,0.1,0,0.2,0.1,0.2c0.1,0,0-0.1,0.1-0.2c0-0.1,0-0.1,0-0.2
	c0,0,0.1,0,0.1,0c0-0.2,0.1-0.4,0.1-0.7v-0.2c0,0,0.1-0.1,0.1-0.1c0-0.1,0-0.2,0-0.4c0-0.2,0-0.4,0-0.5c0-0.3,0.1-0.7,0.1-1
	c0.1-0.7,0.3-1.4,0.3-2.2c0-0.2,0-0.4,0.1-0.6c0.2-0.5,0.2-1.1,0.3-1.6c0.1-0.3,0.1-0.6,0.1-0.9c0-0.1,0.1-0.3,0.1-0.4
	c0-0.4,0.2-0.8,0.2-1.2c0-0.2,0.1-0.5,0.1-0.7c0.1-0.6,0.3-1.1,0.3-1.7c0-0.3,0.1-0.6,0.1-0.9c0-0.2,0-0.3,0.1-0.5
	c0.1-0.2,0.1-0.4,0.1-0.7c0.1-0.3,0.1-0.6,0.2-0.8c0-0.2,0.1-0.3,0.1-0.5c0-0.1,0-0.4,0.1-0.5c-0.1-0.1,0-0.4,0.1-0.5
	c0-0.2,0.1-0.4,0.1-0.6c0-0.2,0.1-0.4,0.1-0.6c0.1-0.4,0.1-0.8,0.2-1.1c0-0.2,0.1-0.4,0.1-0.6c0.1-0.4,0.2-0.8,0.3-1.1
	c0-0.2,0.1-0.5,0.2-0.7c0-0.1,0-0.2,0.1-0.3c0-0.1,0-0.2,0-0.3c0-0.1,0.1-0.1,0.1-0.1c0,0,0-0.1,0-0.2c0-0.1,0.1-0.3,0.1-0.4
	c0.1-0.2,0.1-0.4,0.2-0.6c0-0.2,0-0.4,0.1-0.5c0.1-0.4,0.3-0.8,0.3-1.2c0.1-0.5,0.3-1,0.4-1.5c0-0.2,0.1-0.5,0.3-0.7
	c0-0.1,0-0.2,0.1-0.4c0-0.1,0.1-0.2,0.1-0.3c0-0.1,0-0.2,0-0.2c0-0.2,0.1-0.3,0.1-0.5c0.1-0.5,0.2-1,0.4-1.5
	c0.1-0.2,0.2-0.5,0.3-0.7c0.1-0.2,0.1-0.5,0.2-0.8c0.1-0.5,0.3-1,0.4-1.5c0-0.1,0.1-0.3,0.1-0.4c0-0.1,0-0.2,0-0.3
	c0-0.1,0-0.3,0.1-0.4c0.1-0.1,0.2-0.1,0.2-0.3c0-0.2,0-0.4,0-0.6c0-0.2,0.2-0.4,0.3-0.5c0.1-0.2,0-0.4,0.1-0.6
	c0.1-0.1,0.1-0.4,0.2-0.5c-0.1-0.1,0-0.3,0.1-0.5c0-0.2,0.1-0.4,0.1-0.6c0.1-0.2,0.1-0.3,0.2-0.5c0-0.3,0.2-0.5,0.4-0.8
	c0.1-0.1,0.1-0.3,0.1-0.4c0.1-0.3,0.2-0.5,0.3-0.8c0-0.2,0.1-0.4,0.1-0.6c0-0.1,0.1-0.1,0.1-0.3c0-0.1,0.1-0.1,0.1-0.2
	c0-0.1,0-0.1,0.1-0.2c0-0.1,0.1-0.1,0.1-0.2c0.3-0.9,0.6-1.8,1-2.7c0.2-0.4,0.3-0.7,0.4-1.1c0.1-0.3,0.2-0.6,0.4-0.9
	c0.1-0.2,0.1-0.5,0.3-0.8c0.1-0.2,0.1-0.4,0.3-0.6c0.1-0.2,0.2-0.4,0.2-0.6c0-0.2,0.1-0.3,0.2-0.5c0.1-0.4,0.3-0.8,0.5-1.2
	c0.1-0.3,0.2-0.6,0.4-0.9c0.1-0.3,0.2-0.6,0.3-0.9c0.1-0.1,0.1-0.3,0.2-0.4c0-0.1,0.1-0.2,0.2-0.3c0.2-0.4,0.3-0.8,0.4-1.1
	c0.1-0.2,0.1-0.4,0.2-0.6c0.1-0.2,0.2-0.4,0.2-0.6c0.1-0.4,0.3-0.7,0.5-1.1c0.1-0.2,0.1-0.4,0.2-0.6c0.1-0.2,0.2-0.4,0.2-0.6
	c0-0.2,0.1-0.3,0.2-0.5c0.1-0.2,0.2-0.4,0.2-0.5c0.1-0.3,0.3-0.7,0.4-1c0.1-0.2,0.2-0.3,0.2-0.5c0.1-0.1,0.2-0.4,0.3-0.5
	c0-0.1,0.1-0.2,0.1-0.3c0.1-0.2,0.2-0.3,0.3-0.5c0-0.1,0.1-0.1,0.2-0.2s0.1-0.1,0.2-0.2c0,0,0-0.1,0.1-0.1c0,0,0.1,0,0.1-0.1
	c0,0,0,0,0.1,0c0-0.1,0.1-0.1,0.2-0.1c0,0,0-0.1,0-0.1c0,0,0.1,0,0.1,0c0,0,0,0,0.1,0c0.1-0.1,0.1-0.2,0.3-0.2
	c0.3-0.2,0.6-0.5,1-0.7c0.1,0,0.1-0.1,0.2-0.1c0.1,0,0.1,0,0.3-0.1s0.1-0.1,0.2-0.1c0.1,0,0.2,0,0.3,0
	C108.2,139.5,108.3,139.5,108.3,139.5L108.3,139.5L108.3,139.5z M146.9,157.9C146.9,157.9,146.9,157.9,146.9,157.9l0.3,0
	c0,0,0.1,0,0.1,0c0,0,0,0,0.1,0c0,0,0.1,0,0.1,0c0,0,0.1,0,0.1,0c0.1,0,0.2,0,0.2,0c0,0,0,0,0.1,0c0,0,0,0,0,0.1s0,0.1,0.1,0.1
	c0,0,0,0.1,0.1,0.1c0,0,0,0,0,0.1c0,0,0,0.1,0.1,0.1c0,0,0,0,0.1,0.1c0,0,0.1,0,0.1,0.1v0.1c0,0,0,0.2,0,0.2c0,0,0,0,0,0
	c0,0,0,0,0,0c0,0,0,0,0,0.1v0.1c0,0,0,0,0,0l0,0c0,0-0.1,0.1-0.1,0.2c0,0.1-0.1,0.1-0.1,0.2c0,0,0,0.1,0,0.2v0.1c0,0,0,0,0,0.1
	c0,0,0,0.1,0,0.1c0,0,0,0-0.1,0.1c0,0,0,0.1,0,0.1s0,0-0.1,0.1c0,0-0.1,0.1-0.1,0.1c0,0,0,0.1,0,0.1c0,0-0.1,0-0.2,0.1
	c0,0.1-0.1,0.2-0.2,0.2s-0.2,0.1-0.2,0.2c0,0-0.1,0.1-0.1,0.2c-0.1,0-0.1,0.1-0.1,0.2c0,0.1-0.1,0.1-0.1,0.2
	c-0.1,0.1-0.3,0.2-0.4,0.3c-0.1,0-0.2,0.1-0.2,0.1c0,0,0,0-0.1,0.1c0,0,0,0.1-0.1,0.1c0,0-0.1,0-0.2,0c-0.1,0-0.1,0.1-0.2,0.1
	c-0.1,0.1-0.2,0.1-0.3,0.1c0,0,0,0-0.1,0c0,0-0.2,0-0.2,0c0,0,0,0-0.1,0H145c-0.1,0-0.1,0.1-0.2,0c-0.1,0-0.2,0-0.3,0
	c-0.1,0-0.3,0-0.4-0.1c-0.1,0-0.1-0.1-0.2-0.1c-0.1,0-0.1,0-0.2-0.1c-0.1-0.1-0.2-0.1-0.3-0.3c0,0,0,0,0-0.1c0,0,0-0.1,0-0.1
	c0-0.1,0-0.1,0-0.2c0-0.1,0-0.2-0.1-0.2c0-0.1-0.1-0.1-0.1-0.2c0-0.1,0-0.1,0-0.2c0,0,0-0.1,0-0.1c0,0,0.1-0.1,0.1-0.1
	c0,0,0-0.1,0-0.2c0,0,0-0.1,0-0.1c0,0,0,0,0,0v0c0,0,0-0.1,0-0.1c0,0,0.1-0.2,0.1-0.2c0,0,0-0.1,0-0.1c0-0.1,0.1-0.2,0.1-0.2
	c0,0,0,0,0-0.1c0,0,0,0,0.1-0.1c0,0,0,0,0.1-0.1s0-0.1,0.1-0.1c0,0,0.1-0.1,0.1-0.1c0,0,0,0,0,0v0c0,0,0.1,0,0.1,0c0,0,0,0,0-0.1
	c0,0,0,0,0-0.1c0,0,0.1,0,0.1,0c0,0,0,0,0.1-0.1c0,0,0.1-0.1,0.1-0.1c0,0,0-0.1,0-0.1c0,0,0.1,0,0.1,0c0,0,0,0,0,0c0,0,0,0,0,0l0,0
	c0,0,0.1,0,0.1,0c0,0,0.1,0,0.1,0c0,0,0,0,0.1,0c0,0,0,0,0,0c0,0,0.1,0,0.1,0c0,0,0,0,0.1-0.1c0,0,0.1,0,0.1,0c0,0,0.1,0,0.2-0.1
	c0,0,0.1,0,0.1,0c0.1,0,0.1,0,0.2,0c0,0,0,0,0.1,0c0,0,0.1,0,0.1,0c0.1,0,0.1,0,0.2,0c0.1,0,0.1,0,0.2,0c0,0,0.1,0,0.1,0
	c0,0,0,0,0,0c0,0,0,0,0,0L146.9,157.9C146.8,157.9,146.9,157.9,146.9,157.9L146.9,157.9z M163.1,159.4h0.4c0.1,0,0.3,0,0.4,0
	c0.1,0,0.2,0,0.3,0.1c0.2,0.1,0.5,0.1,0.7,0.2c0,0,0.1,0.1,0.1,0.1c0.1,0,0.1,0.1,0.1,0.1c0,0,0.1,0.2,0.2,0.2c0,0,0.1-0.2,0.1-0.1
	c0,0,0,0.1,0,0.1c0,0.1,0,0.1,0,0.1c0.1,0,0.1,0.1,0.1,0.1c0.1,0,0.1,0,0.1,0.1c0,0.1,0,0.1,0,0.2c0.1,0,0.1-0.1,0.1,0
	c0,0-0.1,0.1-0.1,0.1c0,0.1,0.1,0.2,0.1,0.3c0,0,0,0.1,0,0.1c0.1,0,0.1,0,0.2,0c0.1,0,0.1,0.1,0.2,0.2c0,0.1-0.2,0-0.2,0
	c0,0.1,0,0.2,0,0.4c0,0,0.1,0.1,0.1,0.1c0,0.1,0,0.2,0.1,0.2c0,0,0.1,0,0.2,0c0.1,0,0,0,0,0.1c0,0.1-0.1,0.1-0.1,0.1
	c-0.1,0.1,0,0.1,0,0.2c0,0,0,0.1,0,0.1c0,0,0,0,0.1,0c0,0,0,0,0,0c0,0,0,0,0,0c0,0-0.1,0-0.1,0s0,0-0.1,0h-0.1c0,0,0,0-0.1,0
	c0,0-0.1,0.1-0.1,0.1c0,0.1,0,0.2,0,0.3v0.2c0,0.1,0,0.1,0.1,0.1c0,0,0,0.1,0,0.1c0,0,0,0,0,0.1c0,0,0,0.1,0,0.1c0,0,0.1,0,0.1,0
	c0.1,0,0.1-0.2,0.2-0.1c0,0,0,0,0,0.1c0,0,0,0,0,0c0,0.1,0,0.1,0,0.1c0,0.1,0,0.2,0,0.3c0.1,0,0,0.2,0.1,0.1c0,0,0,0.1,0,0.1
	c-0.1,0-0.1,0-0.1,0c-0.1,0-0.1,0-0.1,0.1c0,0.1,0,0,0.1,0.1c0,0,0,0.1,0,0.1c0,0-0.1,0-0.1,0c0,0,0.1,0,0.1,0c0.1,0,0,0-0.1,0
	c0,0,0,0.1,0,0.1c0,0,0,0,0,0.1c0,0.1,0,0.1,0,0.1c0,0,0,0.1,0,0.2c0,0.1,0,0.1,0.1,0.1c0,0,0,0,0,0v0.1c-0.1,0,0,0-0.1,0
	c0,0-0.1,0-0.1,0c-0.1,0-0.1,0-0.1,0c0,0.1-0.1,0.3,0,0.4c0,0.1,0.1,0.1,0.1,0.1c0.1,0,0.1,0,0.1,0.1c0,0.1-0.1,0.1-0.1,0.1
	c-0.1,0-0.1,0-0.1,0.1c0,0,0,0.2,0,0.2c0,0,0.1,0,0.1,0c0,0,0,0,0,0c0,0,0.1,0,0.1,0.1c0.1,0.1,0,0.1-0.1,0c-0.1,0-0.1,0-0.2,0
	c0,0,0,0.2,0,0.2s0.1,0,0.1,0.1c0,0-0.1,0.1-0.1,0.1c0,0.1,0,0.3,0,0.4v0.4c0,0.1,0,0.3,0,0.4s0,0.3,0,0.4c0,0.1,0,0.1,0,0.2
	c0,0.1,0,0,0.1,0.1c0.1,0,0,0,0.1,0.1c0,0,0,0.1,0,0.1c0,0-0.1,0-0.2,0c-0.1,0,0,0,0,0.1c0,0,0,0,0,0l0,0c0,0,0,0,0,0.1
	c0,0,0.1,0,0.1,0.1c0,0-0.1,0-0.1,0c0,0.1,0,0.1,0,0.1c0,0,0,0.1,0,0.1c0,0,0,0.1,0,0.1c0,0,0,0,0,0.1c0.1,0,0.1,0,0.2,0.1
	c0.1,0,0,0.1,0,0.1c0,0.1-0.2,0-0.1,0.1c0,0,0,0.1,0,0.1c0,0,0,0,0,0.1c0,0,0,0,0.1,0.1c0,0,0,0,0,0.1c0,0,0,0,0,0.1c0,0,0,0,0,0.1
	c0,0,0-0.1,0-0.1c-0.1,0-0.1,0-0.1,0.1c0,0,0,0.1-0.1,0.1c0,0-0.1,0.1,0,0.1c0,0,0,0,0,0.1v0.1c0,0.1,0,0.2,0,0.3
	c-0.1,0.1-0.1,0-0.1,0c-0.1,0-0.1,0-0.1,0.1c0,0,0,0.1,0,0.1c0,0,0,0,0,0.1c0,0,0,0,0,0c0,0,0.1,0,0.1,0c0-0.1,0-0.1,0-0.1
	c0.1,0,0.1,0,0.1,0.1v0.1c0,0-0.1,0-0.1,0c-0.1,0-0.1,0.1,0,0.1c0,0,0.2,0,0.1,0c0,0-0.1,0-0.1,0c-0.1,0.1,0,0.2,0.1,0.2
	c0,0,0.1,0,0.1,0c0,0,0,0.1,0,0.1c0,0-0.1-0.1-0.1,0c0,0-0.1,0.1,0,0.1c0,0.1,0,0,0,0.1c0,0.1,0,0.1,0,0.1c0,0,0,0,0,0.1
	c0,0,0,0,0,0.1c0,0,0,0,0,0c0,0.1,0,0,0.1,0c0,0,0.1,0,0.1,0c0,0-0.2,0.2-0.1,0.2c0,0,0,0.1,0,0.2c0,0.1,0.1,0,0.1,0c0,0,0,0,0.1,0
	c0,0,0,0,0.1,0c0.1,0,0,0.1,0,0.1c0,0.1-0.1,0.2-0.2,0.2c-0.1,0,0,0,0,0.1c0,0,0,0,0,0c0,0-0.1,0-0.1,0c0.1,0,0,0.1,0.1,0.1
	c0,0,0.1,0,0.1,0c0.1,0,0,0.1,0.1,0.1v0.1l0,0c0,0.1,0,0.1,0,0.2c0,0,0.1-0.1,0.1,0c0,0,0,0,0,0.1l0,0c0,0.1,0,0.1,0.1,0.1
	c0,0,0.1,0,0.2,0c0.1,0,0,0.1,0.1,0.2c0,0,0.1,0.1,0.2,0.1v0c0.1,0,0.1,0,0.2,0c0.1,0,0.1,0,0.2,0c0.2,0,0.5-0.1,0.6-0.2
	c0.1,0,0.2,0,0.3-0.1c0,0,0.3,0,0.3-0.1c0.1,0,0.1,0,0.1,0c0.1,0,0.2-0.1,0.3-0.1c0.1,0,0.2-0.1,0.3-0.1c0,0,0.1,0,0.1,0
	c0.1,0,0.1,0,0.2-0.1c0,0,0,0,0,0v0h0.1c0,0,0.1,0,0.1-0.1c0,0,0.1,0,0.1,0c0,0,0,0,0,0c0,0,0,0,0,0c0,0,0.1-0.1,0.2-0.1
	c0,0,0.1,0,0.1,0c0.1,0,0.1,0,0.1-0.1c0.1-0.1,0.1,0,0.2-0.1c0,0,0,0,0.1,0c0-0.1,0.1-0.1,0.1-0.1c0.1,0,0.1,0,0.1,0
	c0.1,0,0,0,0.1-0.1c0.1,0,0.1,0,0.1,0c0.1,0,0.2-0.1,0.3-0.2c0.1,0,0.2-0.1,0.3-0.1c0.1,0,0.1-0.1,0.3-0.1c0.1,0,0.2-0.1,0.3-0.1
	l0,0c0.1,0,0.1-0.1,0.2-0.1c0,0,0.1,0,0.1,0c0,0,0,0,0,0c0.1,0,0.1-0.1,0.1-0.1c0,0,0.2-0.1,0.3-0.1c0.2-0.1,0.4-0.1,0.6-0.2
	c0,0,0,0,0.1,0c0.1,0,0.2-0.1,0.3-0.1l0.3-0.1c0.1,0,0.1,0,0.2,0c0,0,0,0,0.1,0c0,0,0,0,0,0c0,0,0.1,0,0.1,0c0.1,0,0.1,0,0.1,0
	c0.2,0,0.4,0,0.5,0c0.1,0,0.2,0,0.2,0c0.1,0,0.1,0,0.2,0c0.1,0,0.2,0,0.2,0c0,0,0.1,0,0.2,0s0.2,0,0.2,0c0.1,0,0.1,0,0.2,0
	c-0.1,0-0.1,0-0.1-0.1c0,0,0.1,0.1,0.1,0c0.1,0,0,0.1,0.1,0.1c0,0,0.1,0.1,0.2,0.1c0,0,0,0,0-0.1c0.1,0,0.1,0,0.2,0
	c0,0,0,0.1,0.1,0.1c0.1,0,0,0,0,0.1c0,0,0,0,0,0c0,0,0.1,0,0.1,0c0.1,0,0.1,0,0.1,0.1c0,0,0.1,0.1,0.1,0.1c0,0,0,0,0,0.1
	c0,0.1,0,0.1,0.1,0.1c0,0,0.1,0,0.1,0.1c0,0,0,0.1,0.1,0.1c0,0,0,0.1,0,0.1c0,0,0,0,0,0v0.1c0,0,0.1,0,0.1,0.1c0,0.1,0,0.1,0,0.1
	c0,0,0.1,0,0.1,0.1c0,0,0.1,0,0.1,0c0,0,0,0,0,0.1c0,0,0,0,0,0c-0.1,0-0.1,0-0.1,0.1c0,0,0,0,0,0.1c0,0-0.2,0.1-0.1,0.1
	c0,0,0.1,0,0.1,0c0,0,0,0.1,0,0.2c0,0,0.1,0,0.1,0v0c0,0-0.1,0.1-0.1,0.6c0,0-0.1,0-0.1,0c0,0.1,0,0.1,0,0.2c0,0-0.1,0.1-0.1,0.1
	c0,0.1,0,0.1,0,0.1c0,0,0,0-0.1,0s0,0,0-0.1c-0.1-0.1-0.2,0.1-0.1,0.2h0c0,0.1,0,0.1-0.1,0.1c0,0,0,0.1,0,0.1s0,0,0,0.1
	c0,0,0.1,0.1,0,0.2c0,0-0.1,0-0.1-0.1c0,0,0,0,0,0c0,0,0,0,0,0.1s0,0.1,0,0.1c0,0-0.1,0.1-0.1,0.1c0,0.1-0.1,0.1-0.2,0.2
	c0,0.1-0.1,0.2-0.2,0.3c0,0-0.1,0-0.1,0.1c0,0.1-0.1,0.1-0.1,0.1c0.1,0.1,0,0.1-0.1,0.1c-0.1,0-0.2,0.1-0.1,0.1c0,0-0.1,0-0.1,0
	c-0.2,0-0.4,0.2-0.5,0.4c-0.1,0-0.2,0.1-0.3,0.2c-0.1,0-0.4,0.2-0.5,0.3c-0.1,0-0.1,0.1-0.2,0.1c-0.2,0-0.4,0.1-0.6,0.2
	c-0.2,0.1-0.3,0.1-0.5,0.2c-0.1,0-0.2,0-0.4,0.1c-0.2,0.1-0.5,0.1-0.7,0.2c-0.1,0-0.3,0.1-0.4,0.1c-0.1,0-0.2,0.1-0.4,0.1
	c-0.2,0.1-0.5,0.1-0.7,0.2c-0.1,0-0.7,0.2-0.8,0.2c-0.1,0-0.2,0.1-0.3,0.1c-0.3,0.1-0.5,0.2-0.7,0.2c-0.1,0-0.2,0-0.2,0.1
	c-0.1,0-0.3,0.1-0.3,0.1c-0.1,0-0.1,0-0.2,0c-0.1,0-0.2,0.1-0.2,0.1c-0.1,0-0.1,0-0.2,0.1c-0.1,0-0.1,0.1-0.2,0.1
	c-0.1,0-0.1,0-0.2,0c0,0-0.1,0.1-0.1,0.1c-0.1,0-0.2,0.1-0.3,0.1c-0.1,0-0.2,0.1-0.3,0.1c0,0,0,0-0.1,0.1c0,0-0.1,0-0.1,0.1
	c0,0-0.1,0-0.1,0c-0.1,0-0.1,0-0.1,0.1c-0.1,0-0.2,0.1-0.3,0.1c-0.1,0-0.2,0.1-0.3,0.1s-0.2,0.1-0.3,0.1c-0.1,0-0.2,0.1-0.3,0.1
	c-0.1,0-0.2,0-0.3,0.1c0,0-0.1,0-0.1,0.1c-0.1,0-0.1,0-0.1,0.1c-0.1,0-0.2,0.1-0.3,0.1v0h-0.1c0,0,0,0-0.1,0c0,0-0.1,0-0.2,0.1
	c-0.1,0-0.2,0.1-0.3,0.1c-0.1,0-0.2,0.1-0.4,0.2c-0.1,0-0.2,0.1-0.3,0.1c-0.1,0-0.1,0-0.2,0c-0.1,0-0.1,0.1-0.1,0.1
	c-0.1,0-0.2,0-0.3,0.1c0,0-0.1,0.1-0.1,0.1c-0.1,0-0.2,0.1-0.3,0.1c-0.1,0-0.1,0-0.2,0c0,0-0.1,0.1-0.1,0.1v0
	c-0.1,0-0.2,0.1-0.3,0.1c0,0-0.1,0-0.1,0.1c0,0-0.1,0-0.1,0c-0.1,0-0.2,0.1-0.3,0.1c0,0,0,0,0,0c0,0,0,0,0,0c0,0-0.1,0-0.1,0
	c0,0,0,0-0.1,0.1c0,0-0.1,0-0.1,0.1c-0.1,0-0.3,0.1-0.4,0.1c-0.1,0-0.1,0-0.1,0c0,0-0.1,0-0.1,0.1l0,0c0,0,0,0-0.1,0
	c-0.1,0-0.2,0.1-0.2,0.1c-0.1,0-0.3,0.1-0.4,0.2c-0.1,0.1-0.2,0.1-0.3,0.1c-0.1,0-0.2,0.1-0.3,0.1c0,0-0.3,0.1-0.3,0.2
	c-0.1,0.1-0.3,0.1-0.4,0.2c0,0,0,0,0,0c0,0-0.1,0-0.1,0c0,0,0,0-0.1,0.1c-0.1,0-0.2,0.1-0.3,0.1c-0.1,0-0.2,0.1-0.3,0.1
	c0,0,0,0-0.1,0c0,0,0,0,0,0c0,0-0.1,0.1-0.2,0c0,0,0,0.1-0.1,0.1c0,0-0.1,0-0.1,0.1c-0.1,0-0.2,0.1-0.3,0.1c-0.1,0-0.1,0-0.1,0
	c0,0-0.1,0-0.1,0.1c0,0-0.2,0.1-0.2,0.1c-0.1,0-0.2,0-0.3,0c-0.1,0-0.1,0-0.1,0.1c-0.1,0-0.1,0-0.2,0.1c-0.1,0-0.2,0.1-0.4,0.1
	c-0.1,0-0.1,0-0.1,0.1c0,0-0.2,0.1-0.3,0.1c-0.1,0-0.1,0.1-0.1,0.1c-0.1,0-0.2,0.1-0.3,0.1c-0.1,0-0.1,0-0.1,0.1
	c0,0-0.1,0.1-0.1,0.1c0,0-0.1,0-0.1,0c0,0-0.1,0-0.1,0.1c0,0-0.1,0-0.1,0.1c0,0-0.1,0-0.1,0c0,0-0.1,0.1-0.2,0.1c0,0,0,0-0.1,0
	c0,0-0.1,0-0.1,0c0,0.1-0.2,0.1-0.2,0.1c0,0-0.1,0-0.1,0.1c0,0-0.1,0-0.1,0c-0.1,0-0.2,0.1-0.3,0.2c-0.1,0-0.2,0.1-0.3,0.1
	c0,0-0.1,0-0.1,0.1c0,0-0.2,0.1-0.3,0.1c0,0-0.1,0-0.1,0.1c-0.2,0.1-0.4,0.2-0.6,0.3c-0.1,0-0.2,0.1-0.3,0.2c0,0-0.1,0-0.1,0
	c-0.1,0,0,0.1-0.1,0.1c-0.1,0-0.2,0.1-0.3,0.1c-0.1,0-0.1,0.1-0.2,0.1c0,0-0.1,0-0.1,0.1c0,0-0.1,0-0.1,0c0,0,0,0,0,0h-0.1
	c0,0-0.1,0-0.1,0.1c0,0-0.1,0-0.2,0.1c0,0-0.1,0.1-0.1,0.1c-0.1,0-0.2,0.1-0.3,0.2c0,0-0.1,0-0.1,0.1c0,0-0.1,0-0.1,0.1
	c-0.1,0-0.1,0-0.2,0c0,0-0.1,0.1-0.1,0.1c0,0-0.1,0-0.1,0c0,0-0.1,0.1-0.1,0.1c-0.1,0.1-0.2,0.1-0.3,0.1c-0.1,0-0.1,0.1-0.2,0.1
	c-0.1,0.1-0.2,0.1-0.3,0.1c-0.1,0-0.2,0.1-0.3,0.2c-0.1,0.1-0.2,0.1-0.3,0.1c-0.1,0-0.2,0.1-0.3,0.2c-0.2,0.1-0.4,0.2-0.6,0.3
	c-0.1,0-0.2,0.1-0.3,0.2c-0.1,0-0.2,0.1-0.2,0.1c-0.2,0.1-0.4,0.2-0.6,0.3c-0.1,0-0.2,0.1-0.3,0.2c-0.1,0-0.1,0.1-0.1,0.1
	c0,0,0,0-0.1,0c0,0-0.1,0-0.1,0c0,0,0,0-0.1,0.1c0,0,0,0,0,0c-0.1,0-0.1,0-0.1,0.1c0,0-0.1,0.1-0.1,0.1c-0.1,0-0.2,0-0.3,0.1
	c-0.1,0-0.2,0.1-0.3,0.2c-0.1,0-0.2,0.1-0.2,0.2c-0.1,0-0.1,0-0.1,0.1c0,0-0.1,0-0.1,0.1c-0.1,0-0.2,0.1-0.3,0.1
	c-0.1,0-0.2,0-0.3,0.1c0,0-0.2,0.1-0.2,0.1c0,0.1-0.1,0.1-0.1,0.1c0,0,0,0-0.1,0.1c0,0,0,0-0.1,0c-0.1,0.1-0.2,0.1-0.3,0.2
	c0,0,0,0,0,0c-0.1,0-0.2,0.1-0.3,0.1c-0.1,0-0.1,0.1-0.1,0.1c0,0-0.1,0-0.1,0c-0.1,0-0.1,0-0.1,0.1c0,0,0,0,0,0
	c-0.1,0-0.1,0-0.1,0.1c-0.1,0,0,0-0.1,0.1c0,0-0.1,0-0.1,0.1c0,0,0.1,0,0.1,0c0,0.1-0.1,0-0.1,0c-0.1,0-0.1,0-0.2,0
	c0,0-0.1,0-0.1,0.1c0,0,0,0,0,0s0,0,0,0.1c0,0-0.1,0-0.1,0c-0.1,0-0.1,0-0.1,0c-0.1,0-0.2,0.1-0.3,0.2c-0.1,0.1-0.2,0.1-0.2,0.2
	c-0.1,0-0.1,0-0.1,0.1c0,0,0,0-0.1,0.1c-0.1,0-0.1,0.1-0.3,0.1c0,0-0.1,0-0.1,0.1c0,0-0.1,0-0.1,0c-0.1,0.1-0.2,0.1-0.2,0.2
	c0,0-0.2,0.2-0.3,0.2c0,0,0,0-0.1,0c0,0,0,0-0.1,0c0,0,0,0-0.1,0c0,0,0,0-0.1,0c0,0,0,0,0,0c0,0,0,0-0.1,0h0c0,0-0.1,0-0.1,0.1v0
	c0,0-0.1,0.1-0.1,0c-0.1,0-0.1,0.1-0.1,0.1c0,0-0.1,0-0.1,0.1c0,0,0,0-0.1,0v0c0,0-0.1,0-0.1,0l0,0c0,0,0,0,0,0h0l0,0c0,0,0,0,0,0v0
	c0,0,0,0,0,0c0,0,0,0,0,0.1c0,0,0,0-0.1,0c0,0-0.1,0-0.1,0.1h-0.1c0,0,0,0-0.1,0c0,0,0,0-0.1,0c0,0,0,0-0.1,0c0,0,0,0,0,0
	c0,0,0,0,0,0s0,0,0,0c0,0,0,0.1,0,0.1c0,0,0,0.1-0.1,0.1c0,0,0,0,0,0c0,0,0,0-0.1,0c-0.1,0-0.2,0-0.2,0c0,0,0,0.1,0,0.1
	c0,0-0.1,0-0.1,0c0,0,0,0,0,0.1c-0.1,0-0.1,0-0.1,0c0,0-0.1,0.1-0.1,0.1h0c0,0-0.1,0.1-0.1,0.1c-0.1,0-0.1,0-0.1,0.1c0,0,0,0,0,0.1
	l0,0c0,0,0,0,0,0c0,0,0,0,0,0c0,0,0,0.1,0,0.1c0,0,0,0,0,0.1v0.1c0,0-0.1,0.1-0.1,0.1c0,0.1,0.1,0,0.1,0.1c0,0,0,0,0,0.1
	c0,0,0,0,0,0.1c0,0,0,0-0.1,0c0,0-0.1,0-0.1,0c0,0,0,0,0,0c0,0,0,0,0.1,0c0,0,0,0.1,0,0.1c0,0-0.1,0.1-0.1,0.1c0,0,0,0.1,0,0.1
	s0.1,0,0.1,0.1c0,0,0,0,0,0.1v0.1c0,0-0.1,0-0.1,0v0.1c0,0,0,0.1,0.1,0.1c0,0,0,0,0.1,0c0,0,0,0,0,0.1c0,0,0,0,0,0.1c0,0,0,0,0,0
	c0,0,0,0,0,0.1c0,0,0,0-0.1,0c0,0,0,0-0.1,0c0,0,0,0,0,0v0.1l0,0c0,0,0.1,0.1,0.1,0.1c0,0,0,0,0,0c0,0,0,0,0,0c0,0,0,0.1,0,0.1
	c0,0,0,0.1,0,0.2c0,0,0,0,0,0.1c0,0-0.1,0-0.1,0c0,0,0,0.1,0,0.1c0,0-0.1,0-0.1,0c0,0,0,0,0.1,0h0.1c0,0,0,0,0,0c0,0,0,0,0,0.1
	c0,0,0,0,0.1,0c0,0,0,0.1,0,0.2v0.1c0,0,0,0.1,0,0.1c0,0,0,0,0,0.1c0,0,0,0.1,0,0.1s-0.1,0-0.1,0.1c0,0,0.1,0,0.1,0.1c0,0,0,0,0,0.1
	c0,0,0,0.1,0,0.1c0,0,0,0-0.1,0v0.1c0,0,0,0,0,0.1c0,0,0,0.1,0,0.1c0,0,0.1,0,0.1,0l0,0h0v0c0,0,0,0-0.1,0.1c0,0,0.1,0,0.1,0.1
	c0,0-0.1,0.1-0.1,0c0,0,0-0.1,0-0.1c0,0,0,0-0.1,0c-0.1,0-0.1,0.1,0,0.1c0,0,0,0,0,0.1v0.1c0,0.1,0,0.1,0.1,0.1c0,0,0,0,0,0.1
	c0,0,0,0,0,0c0,0,0,0.1,0,0.1c0,0,0,0,0,0v0c0,0,0,0.1,0,0.1c0,0,0,0-0.1,0c0,0,0,0,0,0.1c0,0,0,0.2,0,0.2c0,0,0.1,0,0.1,0.1
	c0,0,0,0,0,0.1v0.1c0,0,0,0,0,0c0,0,0,0.1,0,0.1c0,0,0,0-0.1,0.1c0,0,0,0.1,0,0.1c0,0,0,0-0.1,0v0.1c0,0,0,0,0.1,0c0,0,0,0.1,0,0.1
	c0,0-0.1,0-0.1,0.1c0,0,0,0,0,0.1s0,0,0,0c0,0,0.1,0,0.1,0c0,0,0,0,0,0c0,0,0,0,0,0c0,0,0,0,0,0c0,0,0,0,0,0.1c0,0,0,0.1,0,0.1
	c0,0,0,0.1,0,0.1c0,0,0,0,0,0c0,0,0,0,0,0c0,0,0,0.1,0,0.1c0,0,0,0.1,0,0.2c0,0,0,0,0,0v0c0,0,0,0.1,0.1,0.1c0,0,0,0,0,0v0
	c0,0,0,0.1,0,0.1c0,0-0.1,0-0.1,0.1v0.1c0,0,0,0,0,0c0,0,0,0.1,0.1,0c0,0,0,0,0,0c0,0,0,0,0,0c0,0,0,0.1,0,0.1s0,0,0,0v0
	c0,0,0,0,0,0c0,0,0,0,0,0c0,0,0,0.1,0,0.1s0,0,0,0h0c0.1,0,0.1,0,0.1,0s0,0,0,0c0,0-0.1,0-0.1,0c0,0-0.1,0-0.1,0c0,0,0,0,0,0
	c0,0,0,0,0,0c0,0,0,0-0.1,0c0,0,0,0,0,0v0.1c0,0,0,0-0.1,0c0,0,0,0,0,0c0,0,0,0,0,0c0,0,0,0,0.1,0h0c0.1,0,0,0.1,0,0.1
	c0,0,0,0.1,0,0.1h0v0.1c0,0,0,0,0,0c0,0,0,0,0,0.1s0,0,0,0l0,0c0,0,0,0,0.1,0c0,0,0,0,0,0c0,0,0.1,0,0,0c0,0,0,0-0.1,0c0,0,0,0,0,0
	v0.1c0,0,0,0,0,0c0,0,0,0,0,0v0.1c0,0,0,0,0,0c0,0,0,0.1,0,0.1s0,0.1,0,0.1c0,0,0,0,0,0v0h0c0,0,0,0,0,0c0,0,0,0,0,0c0,0,0,0,0,0
	c0,0,0,0,0,0c0,0,0,0,0,0c0,0,0,0,0,0v0c0,0,0,0,0,0v0c0,0-0.1,0-0.1,0c0,0,0,0,0,0v0.2c0,0,0,0,0,0v0.2c0,0,0,0,0,0v0.2
	c0,0,0,0,0,0c0,0,0,0-0.1,0c0,0-0.1,0,0,0c0,0,0,0,0.1,0c0,0,0,0.1,0,0.1v0.2c0,0,0,0.1,0,0.2c0,0,0,0,0,0v0.1c0,0-0.1,0-0.1,0v0
	c0,0,0,0,0,0s0,0,0,0s0.1,0,0.1,0c0.1,0,0,0,0,0.1c0,0,0,0,0,0c0,0-0.1,0-0.1,0v0.1c0,0.1,0.1,0.1,0.1,0.1c0,0,0,0,0,0s0,0,0,0v0.1
	c0,0,0,0,0,0c0,0,0,0,0,0v0c0,0,0,0,0,0s0,0,0,0v0c0,0,0,0.1,0,0.1c0,0,0,0,0,0.1c0,0,0,0,0,0h0c0,0,0,0,0,0c0,0-0.1,0,0,0
	c0,0,0,0,0.1,0c0.1,0,0,0.1,0,0.1c0,0-0.1,0.1-0.1,0.1c0,0-0.1,0.1,0,0.1c0.1,0,0.1-0.1,0.1-0.1l0,0c0,0,0,0,0,0.1
	c0,0,0,0.1-0.1,0.1c0,0,0,0.1,0,0.1c0,0,0,0,0,0s0,0,0,0c0,0,0-0.1,0.1,0c0,0-0.1,0.1-0.1,0.1c0,0,0,0,0,0l0,0c0,0,0.1,0,0.1,0
	c0,0,0.1,0,0,0c-0.1,0-0.1,0-0.1,0.1c0,0,0,0,0,0.1c0,0,0,0,0,0c0,0,0,0,0.1,0c0,0,0,0,0,0.1c0,0-0.1,0-0.1,0c0,0-0.1,0-0.1,0
	c0,0,0,0-0.1,0.1c0,0,0,0,0,0.1c0,0,0,0,0,0v0c0,0,0,0-0.1,0c0,0,0,0,0,0c0,0,0,0,0.1,0c0.1,0-0.1,0.1,0,0.1c0,0,0,0,0.1,0
	c0,0,0,0,0,0.1c0,0-0.2,0-0.1,0.1c0,0,0,0,0,0c0,0,0,0,0,0c0,0,0,0.1,0,0.1c0,0,0,0,0-0.1c0,0,0.1,0,0.1,0c0,0.1-0.1,0-0.1,0.1
	c0.1,0,0.1-0.1,0.2-0.1c0,0,0,0,0,0.1c0,0,0,0.1,0,0.1c0,0,0,0,0,0.1c0,0,0,0,0,0.1s0,0.1,0,0.1s0,0,0,0c0,0-0.1,0-0.2,0
	c0,0,0,0,0,0c0,0-0.1,0-0.1,0.1c0,0,0.1,0,0.1,0.1c0,0,0,0,0,0.1c0,0,0,0,0,0c0.1,0,0.1,0,0.1,0.1c0.1,0,0,0.1,0,0.1
	c0,0-0.1,0-0.2,0c0,0,0.1,0.1,0.1,0.1c0,0,0.1,0,0.1,0v0l0,0c0,0-0.1,0.1,0,0.1c0,0,0,0,0.1,0v0.1c0,0-0.1,0-0.1,0.1c0,0,0,0,0,0
	c0,0,0,0,0,0c0,0,0.1,0,0.1,0c0,0,0,0,0,0c0,0-0.1,0-0.1,0c0,0,0,0,0,0c0,0.1,0,0,0,0c0.1,0,0,0.1,0,0.1c0,0.1,0,0.1-0.1,0.1
	c0,0,0,0-0.1,0c0,0,0,0-0.1,0.1c-0.1,0-0.1,0.1,0,0.1c0,0,0,0,0,0c0,0,0,0.1,0,0.1c0,0,0.1,0,0.1,0.1c0,0,0,0,0,0c0,0,0,0,0,0v0.1
	c0,0,0.1,0,0.1,0c0,0,0.1,0,0.1,0c0,0,0,0,0-0.1c0,0,0.1,0,0,0c0,0,0,0,0,0c0,0,0.1,0.1,0,0.1c0,0-0.1,0-0.1,0.1
	c0.1,0,0.1,0,0.1,0.1c0,0,0,0.1,0,0.1c0.1,0,0.1,0,0.1,0c0,0,0-0.1,0.1-0.1c0,0,0,0,0,0c0,0,0,0.1,0,0.1c0,0-0.1,0-0.1,0.1
	c0,0.1,0.1,0.1,0.1,0c0,0,0-0.1,0.1-0.1c0,0.1-0.1,0.2-0.2,0.2c-0.1,0-0.1,0-0.2,0c0,0,0,0.1,0,0.2c0,0,0,0-0.1,0s0,0,0,0.1
	c0,0-0.1,0.1,0,0.1c0,0,0,0,0.1,0c0,0,0,0,0,0.1c0,0-0.1,0.1,0,0.1c0,0,0.1,0,0.1,0c0.1,0,0,0.1,0,0.1c0,0.1,0.1,0.1,0.1,0.1
	c0.1,0,0.1,0.1,0.1,0.1c-0.1,0-0.3,0-0.3,0c0,0.1-0.1,0.1,0,0.2c0,0,0.1,0.1,0.1,0.1c0,0.1-0.1,0-0.1,0.1c0,0,0,0,0,0.1
	c0,0,0,0,0,0.1c0.1,0,0.1,0,0.1,0c0,0,0.1-0.1,0.1-0.1c0,0-0.1-0.1,0-0.1c0.1,0,0.1,0,0.1,0c0,0-0.1,0-0.1,0v0.1c0,0,0,0.1,0,0.1
	c0,0,0,0,0,0.1c0,0,0.1,0,0.1,0c0.1,0,0.1,0,0.1,0c0,0-0.1,0.1-0.1,0.1c-0.1,0-0.3,0-0.2,0.1c0,0,0,0,0,0.1v0.1c0,0.1,0,0,0.1,0.1
	c0,0,0,0.2,0,0.3c0,0-0.1,0.1-0.1,0.1c0,0.1,0.1,0.1,0.2,0.1c0,0,0,0.1,0,0.1c0.1,0,0.1,0,0.2,0c0.1,0.1,0,0.1,0,0.1c0,0,0,0,0,0
	c0,0,0.2-0.1,0.2,0l0,0.1c0,0,0,0,0,0h0c0,0,0,0,0,0c0,0,0,0,0,0c-0.1,0.1,0.1,0.2-0.1,0.3c0,0-0.1,0.1,0,0.1c0.1,0,0.1,0,0.1,0
	c0.2,0,0.3,0,0.2,0.1c0,0,0,0,0,0c0,0,0,0-0.1,0c0,0,0,0,0,0c0,0,0,0.1,0,0.1c0,0,0,0.1,0,0.1c0,0,0.1,0,0.1,0c0,0,0,0,0.1,0
	c0,0,0,0.1,0,0.1c0,0-0.1,0.1-0.1,0.1c-0.1,0.1,0.1,0.1,0.1,0.2c0.1,0.1-0.1,0.1-0.1,0.2c0,0,0.2,0,0.2,0c0,0,0,0.1-0.1,0.1
	c-0.1,0-0.1,0,0,0.1c0,0,0,0.1,0,0.1c0,0,0.1,0,0,0.1c0,0,0,0,0,0v0c-0.1,0.1-0.2,0,0,0c0-0.2-0.2-0.1-0.3,0c0,0.1,0,0.1,0.1,0.1
	c0.1,0,0.1,0.1,0,0.1c0,0-0.1,0.1-0.1,0.1v0.1l0,0c0,0,0,0,0,0c0,0-0.1,0-0.1,0.1c0,0,0.1,0,0.1,0v0l0,0v0c0,0-0.1,0,0,0
	c0,0,0,0,0,0c0,0,0,0.1,0.1,0.1c0,0,0,0,0,0c0,0,0,0,0.1,0c0,0,0-0.1,0-0.1c0,0,0,0,0.1,0c0,0,0,0,0,0c0.1,0,0,0.1,0,0.1s0,0,0,0
	c0,0-0.1,0,0,0h0.1c0,0,0,0,0,0c0,0,0,0,0,0c0,0,0,0,0,0s0,0,0,0.1c0,0,0,0,0,0c0,0,0,0.1,0,0.1c0,0,0,0,0,0c0,0,0,0,0,0
	c0,0,0,0,0,0c0,0,0,0,0,0s0,0,0,0v0h0.1c0,0,0,0.1,0,0.1c0,0,0,0.1,0,0.1c0,0,0,0.1,0,0.1s0.1,0,0.1,0v0c0,0.1,0.1,0,0,0.1
	c0,0-0.1,0,0,0.1c0,0,0,0,0.1,0v0.1c0,0,0.1,0,0.1,0c0,0-0.1,0.1,0,0.1c0,0,0,0,0.1,0c0.1,0.1,0,0.1,0,0.1c0,0,0.1,0,0.1,0.1
	c0,0-0.1,0.1-0.1,0.1c0,0,0,0,0,0.1c0,0-0.1,0-0.1,0c-0.1,0-0.1,0.1-0.1,0.1c0,0.1,0,0.1,0.1,0.1c-0.1,0-0.1,0-0.2,0
	c-0.1,0-0.2,0-0.2,0c-0.1,0-0.2,0.1,0,0.1c0,0,0,0,0.1,0c0,0,0-0.1,0.1-0.1c0,0,0.1,0.1,0.1,0.1c0,0,0,0,0,0c0,0-0.1,0.1-0.1,0.1
	s-0.2,0-0.2,0c0,0,0,0,0,0.1c0,0,0,0,0,0c0,0,0,0,0,0c0,0,0,0,0.1,0c0,0,0,0,0,0.1c0,0-0.1,0-0.1,0c0,0,0,0,0,0.1v0.1c0,0,0,0,0,0.1
	c0,0.1,0,0,0,0.1c0,0,0,0.1,0.1,0.1c0,0.1,0.2,0.1,0.3,0.1c0.2,0,0-0.2,0.1-0.2c0,0,0,0,0.1,0c0,0.1,0,0,0,0.1c0,0.1,0,0.2,0,0.2
	c0,0,0-0.1,0-0.1c0,0,0,0.1,0.1,0.1c0,0.1,0.1,0,0.1,0.1c0.1,0,0,0.1,0.1,0.1c0,0,0,0.1-0.1,0.1c-0.1,0-0.1-0.1-0.1-0.1
	c-0.1,0-0.2,0.1-0.2,0.1c0.1,0.1,0.2-0.1,0.2,0c0,0,0,0.1,0.1,0.1c0,0,0.1,0,0.1,0c0,0,0.1,0,0.1,0c0,0,0,0.2-0.1,0.2
	c0,0,0.1-0.1,0-0.1c-0.1,0-0.2,0.1,0,0.1c0,0,0,0.1-0.1,0.1c0,0,0,0-0.1,0c0,0,0.1,0,0.1,0c0,0.1,0.1,0.1,0.1,0.1
	c0,0.1-0.1,0.1-0.1,0.1c0,0,0,0.1,0,0.1c0,0-0.1,0-0.1,0c0,0-0.1,0-0.1-0.1c0,0,0-0.1,0-0.1c0,0,0,0,0,0.1c0,0,0,0,0,0c0,0,0,0,0,0
	c0,0,0,0,0,0.1c0,0.1,0.1,0.1,0.1,0c0,0,0-0.1,0.1,0c0,0,0,0,0,0c0,0,0,0.1,0.1,0.1c0,0-0.1,0-0.1,0c0,0,0,0-0.1,0h0
	c-0.1,0-0.1,0,0,0.1c0,0,0,0.1,0.1,0.1c0,0,0,0,0,0c0,0,0.1,0,0.1,0c0,0,0,0.1,0.1,0h0c0,0,0,0,0,0.1c0,0,0.1,0,0.1-0.1
	c0.1,0,0,0.1,0,0.1c0,0.1,0.1,0.1,0.1,0.1s-0.1,0-0.1,0.1c0,0,0,0,0.1,0c0,0,0,0,0-0.1c0.1,0,0.1,0,0.1,0.1c0,0,0.1,0,0.1,0
	c0,0-0.1,0.1,0,0.1c0,0,0-0.1,0-0.1c0,0,0,0.1,0,0.1c-0.1,0-0.1,0.1-0.2,0.1c-0.1,0.1-0.1,0.1,0,0.2c0,0,0,0.1,0,0.1
	c0,0-0.1,0-0.1,0c0,0,0,0,0.1,0c0,0,0,0,0.1,0c0,0.1-0.2,0-0.2,0.1c0,0,0,0.1,0,0.1c0,0,0,0.1,0,0.1c0,0,0,0.1,0,0.1c0,0,0,0,0.1,0
	c0,0,0,0,0,0c0.1,0,0.2,0,0.3,0.1c0,0-0.1,0-0.1,0c0,0,0,0-0.1,0.1h-0.1c0,0,0,0,0,0c0,0-0.1,0-0.1,0c0,0,0,0,0,0s0,0,0,0
	c0,0,0,0.1,0,0.1c0,0.1-0.1,0.1-0.1,0.2c0,0,0,0.1,0,0.1c0,0,0,0.1,0,0.1c-0.1,0.1-0.1,0.2-0.2,0.3c0,0-0.1,0.1-0.1,0.1
	c0,0,0,0.1-0.1,0.1c-0.2,0.2-0.5,0.4-0.8,0.5c-0.1,0-0.1,0-0.1,0.1c-0.1,0-0.1,0.1-0.1,0.1c0,0-0.1,0-0.1,0c-0.1,0-0.1,0-0.2,0.1
	c-0.2,0.1-0.4,0-0.6,0h-0.6c-0.1,0-0.3,0-0.4-0.1c-0.2,0-0.5-0.1-0.7-0.2c-0.1,0-0.2-0.1-0.3-0.1c-0.1,0-0.2-0.1-0.3-0.1
	c-0.1,0-0.2-0.1-0.3-0.2c0,0-0.1-0.1-0.1-0.1c0,0-0.1-0.1-0.1-0.1c-0.1,0-0.1-0.1-0.1-0.2c0-0.1-0.1-0.2-0.1-0.3c0,0,0,0-0.1,0
	c0,0,0,0,0-0.1c0,0,0-0.1-0.1-0.2c0-0.1-0.1-0.2-0.1-0.3c0,0,0-0.1,0-0.1c0,0,0-0.1,0-0.2h-0.1c0-0.1,0-0.2,0-0.3c0,0,0-0.1,0-0.1
	v-0.1c0,0,0,0,0,0c0,0,0-0.1,0-0.2c0,0,0-0.1,0-0.2c0,0,0-0.1,0-0.2c0,0,0,0,0-0.1v-0.1c0,0,0,0,0,0s0,0,0,0c0,0,0,0,0-0.1v-0.2
	c0,0-0.1-0.3,0-0.3c0-0.1,0-0.2,0-0.2c0-0.1,0-0.1,0-0.2c0,0-0.1-0.1-0.1-0.1s0,0,0.1-0.1c0,0,0-0.1-0.1-0.2c0-0.1,0-0.3,0-0.5
	c0,0,0-0.1,0-0.2c0,0,0-0.1,0-0.2c0,0,0-0.1,0-0.1c0-0.1,0-0.2,0-0.3c0-0.1,0-0.3,0-0.4c0,0,0,0,0-0.1s0,0,0-0.1c0,0,0-0.1,0-0.1
	c0,0,0-0.1,0-0.1c0,0,0-0.1,0-0.2c0-0.1,0-0.2,0-0.3c0-0.1,0-0.3,0-0.3c0,0,0-0.1,0-0.1c0,0,0-0.1,0-0.2V225c0-0.1,0-0.2,0-0.3v-0.3
	c0-0.1,0-0.2,0-0.3c0,0,0-0.1,0-0.2c0,0,0-0.1,0-0.2c0,0,0.1,0,0.1-0.1v-0.2c0-0.1,0.1-0.2,0-0.3c0,0-0.1-0.1-0.1-0.1v-0.1
	c0-0.1,0-0.2,0-0.3v-0.7c0-0.1,0-0.2,0-0.3c0,0,0-0.1,0-0.1c0-0.1,0-0.1,0-0.2c0.1-0.1,0.1-0.2,0.1-0.3c0,0,0-0.1,0-0.2
	c0-0.1-0.1-0.1,0-0.1c0,0,0-0.1,0-0.1c0,0,0-0.1,0-0.2c0-0.1-0.1-0.2,0-0.3c0-0.1,0-0.2,0-0.3c0-0.1,0-0.2,0-0.3c0-0.1,0-0.1,0-0.2
	c0-0.1,0-0.1,0-0.2v-0.3c0-0.2,0-0.4,0-0.5c0,0,0-0.1,0-0.1c0,0,0-0.1,0-0.2c0-0.1,0-0.2,0-0.3c0-0.1,0-0.2,0-0.3c0-0.1,0-0.2,0-0.3
	c0-0.1,0-0.1,0-0.2c0-0.1,0-0.2,0-0.3c0-0.1,0-0.1,0-0.1c0,0,0-0.1,0-0.2c0,0,0-0.1,0-0.1c0-0.1-0.1-0.1-0.1-0.1c0,0,0-0.1,0-0.2
	c0,0,0.1,0,0.1,0c0.1-0.1,0-0.2,0-0.4l0-0.1c0,0,0,0,0,0c0,0,0-0.1,0-0.1v-0.1c0,0,0-0.1,0-0.2c0,0,0,0,0-0.1v0h0c0-0.1,0-0.2,0-0.3
	c0-0.1,0-0.2,0-0.3v-0.3c0-0.1,0-0.2,0-0.3c0-0.1,0-0.2,0-0.2c0-0.1,0-0.1,0-0.1c0,0-0.1-0.1-0.1-0.1c0,0,0-0.1,0-0.1v-0.3
	c0,0,0-0.1,0-0.1c0-0.1,0-0.2,0-0.4c0,0,0,0,0-0.1c0,0,0,0,0,0c0-0.1,0-0.1,0-0.2c0-0.1,0-0.1,0-0.2c0,0,0-0.1,0-0.1
	c0-0.1,0-0.1,0-0.1c0,0,0-0.1,0-0.2c0-0.1,0-0.4,0-0.5c0,0,0,0,0,0c0-0.1,0-0.2,0-0.3v-0.7c0-0.1,0-0.1,0-0.2c0,0,0-0.1,0-0.2
	c0-0.1,0-0.2,0-0.3v-0.7c0-0.1,0-0.2,0-0.4c0,0,0,0,0-0.1s0,0,0-0.1v-0.2c0-0.1,0-0.2,0-0.3c0-0.1,0-0.2,0-0.3c0-0.1,0-0.1,0-0.1
	c0-0.1,0-0.2,0-0.3c0,0,0-0.1,0-0.1c0-0.1-0.1-0.2,0-0.3c0,0,0,0,0,0c0-0.1,0-0.2,0-0.3V205c0-0.2,0.1-0.5,0-0.7c0-0.1,0-0.1,0-0.1
	c0,0,0.1-0.1,0.1-0.1c0-0.1,0-0.2,0-0.3v-0.1c0,0,0-0.1,0-0.1c0-0.1,0-0.1,0-0.2c0-0.1,0-0.1,0-0.1c0,0,0-0.1,0-0.2c0,0,0,0,0,0
	c-0.1,0-0.2,0-0.2,0.1c0,0,0,0,0,0c0,0,0,0,0,0c-0.1,0-0.1,0-0.2,0c-0.1,0-0.1,0-0.2,0.1c-0.1,0-0.1,0.1-0.2,0.1c0,0-0.1,0-0.1,0.1
	c-0.1,0-0.1,0-0.1,0.1c-0.1,0-0.2,0.1-0.3,0.2c-0.1,0.1-0.2,0.1-0.3,0.2c-0.1,0-0.2,0.1-0.2,0.1c0,0-0.1,0.1-0.1,0.1
	c-0.1,0-0.2,0.1-0.3,0.1c-0.1,0-0.2,0.1-0.2,0.2c-0.1,0.1-0.1,0.1-0.2,0.2c-0.1,0-0.1,0-0.1,0.1c0,0,0,0.1-0.1,0.1
	c-0.1,0-0.1,0-0.1,0c0,0-0.1,0.1-0.1,0.1c-0.1,0.1-0.2,0.1-0.3,0.2c0,0.1-0.2,0.1-0.3,0.2c-0.1,0-0.2,0.1-0.2,0.1
	c-0.1-0.1-0.1,0.1-0.1,0.1c0,0-0.1,0.1-0.2,0.1c-0.1,0-0.1,0.1-0.2,0.2c0,0-0.1,0.1-0.1,0.1c-0.1,0-0.1,0.1-0.1,0.1
	c-0.1,0-0.1,0-0.2,0.1c0,0,0,0.1-0.1,0.1c0,0-0.1,0-0.1,0.1c-0.1,0-0.1,0-0.1,0.1c0,0,0,0.1-0.1,0.1c-0.1,0-0.1,0-0.1,0.1
	s-0.1,0-0.1,0.1c0,0,0,0-0.1,0c0,0,0,0,0,0c0,0,0,0.1-0.1,0.1c0,0,0,0,0,0c0,0-0.1,0-0.1,0c-0.1,0-0.1,0.1-0.1,0.1
	c-0.1,0.1-0.2,0.1-0.2,0.2c-0.1,0-0.1,0.1-0.2,0.1c-0.1,0-0.1,0-0.1,0.1c0,0,0,0.1-0.1,0.1c0,0,0,0-0.1,0c0,0,0,0,0,0.1
	c-0.1,0.1-0.2,0.1-0.3,0.2c0,0-0.1,0.1-0.1,0.1c0,0,0,0,0,0c0,0-0.1,0-0.1,0c0,0-0.1,0.1-0.1,0.1c-0.1,0.1-0.2,0.1-0.3,0.2
	c-0.1,0.1-0.1,0.1-0.2,0.2c-0.1,0.1-0.1,0.1-0.2,0.2c-0.1,0-0.1,0.1-0.1,0.1c-0.1,0-0.1,0-0.1,0.1c-0.1,0.1-0.3,0.3-0.5,0.4
	c-0.1,0.1-0.2,0.1-0.3,0.2c-0.1,0-0.1,0.1-0.1,0.1c0,0,0,0,0,0c0,0,0,0-0.1,0c0,0,0,0.1,0,0.1c0,0-0.1,0-0.1,0c0,0-0.1,0-0.1,0
	c0,0-0.1,0.1-0.1,0.1c0,0,0,0.1-0.1,0.1c0,0-0.1,0-0.1,0.1c0,0.1,0,0.1-0.1,0.1c-0.1,0-0.2,0.1-0.3,0.2c-0.1,0.1-0.2,0.1-0.3,0.2
	c0,0-0.1,0.1-0.1,0.1c-0.1,0-0.1,0.1-0.1,0.1c0,0,0,0-0.1,0c0,0,0,0,0,0c0,0-0.1,0.1-0.1,0.1c-0.1,0-0.2,0.1-0.3,0.2
	c0,0-0.1,0.1-0.1,0.1c0,0-0.1,0-0.1,0c0,0,0,0,0,0c-0.1,0-0.1,0-0.1,0.1c0,0.1-0.1,0.1-0.2,0.2c-0.1,0-0.1,0-0.2,0.1
	c-0.1,0.1-0.2,0.2-0.3,0.2c-0.1,0-0.2,0.1-0.3,0.2c-0.1,0-0.1,0.1-0.3,0.2c0,0-0.1,0-0.1,0.1c0,0,0,0,0,0c0,0,0,0-0.1,0
	c-0.1,0-0.1,0.2-0.3,0.2c-0.2,0.1-0.3,0.2-0.5,0.4c-0.1,0.1-0.2,0.2-0.3,0.3c-0.1,0.1-0.2,0.1-0.3,0.2c-0.1,0-0.1,0.1-0.1,0.1
	c-0.2,0.1-0.4,0.2-0.5,0.4c-0.1,0.1-0.1,0.1-0.3,0.2c-0.1,0.1-0.2,0.1-0.3,0.2c0,0-0.1,0-0.1,0.1c0,0-0.1,0.1-0.1,0.1
	c-0.1,0.1-0.2,0.2-0.2,0.2c-0.1,0-0.2,0.1-0.2,0.2c-0.1,0.1-0.3,0.2-0.4,0.3c-0.1,0.1-0.1,0.1-0.2,0.1v0c-0.1,0-0.1,0.1-0.1,0.1
	c-0.1,0-0.1,0.1-0.2,0.1c0,0-0.1,0-0.1,0.1c0,0-0.1,0.1-0.1,0.1c-0.1,0.1-0.2,0.1-0.3,0.2c0,0,0,0.1-0.1,0.1c0,0-0.1,0.1-0.1,0.1
	c0,0-0.1,0-0.1,0.1c0,0,0,0.1-0.1,0.1c0,0-0.1,0-0.1,0c-0.1,0-0.1,0.1-0.1,0.1c-0.1,0-0.2,0.1-0.2,0.2c0,0,0,0.1-0.1,0.1
	c0,0-0.1,0.1-0.1,0.1c-0.1,0.1-0.1,0.1-0.2,0.2c-0.1,0-0.1,0-0.1,0.1c-0.1,0-0.1,0-0.1,0.1c0,0.1-0.1,0.1-0.2,0.2
	c-0.1,0.1-0.1,0.1-0.2,0.2c0,0,0,0.1,0,0.1c0,0-0.1,0.1-0.1,0.1c-0.1,0.1-0.1,0.1-0.2,0.2c0,0-0.1,0.1-0.1,0.1c-0.1,0-0.1,0-0.1,0.1
	c-0.1,0-0.1,0.1-0.2,0.2c0,0,0,0.1-0.1,0.1c0,0-0.1,0-0.1,0.1c-0.1,0-0.1,0.1-0.2,0.1c-0.1,0-0.1,0.1-0.2,0.1
	c-0.1,0-0.2,0.1-0.2,0.1c-0.1,0.2-0.2,0.2-0.4,0.3c-0.1,0.1-0.1,0.2-0.3,0.3c0,0-0.1,0.1-0.1,0.1c-0.1,0-0.1,0.1-0.1,0.1
	c0,0-0.1,0.1-0.1,0.1c0,0-0.1,0-0.1,0.1c0,0,0,0,0,0v0.1c0,0-0.1,0.1-0.2,0.1c-0.1,0.1-0.1,0.2-0.2,0.2c0,0-0.1,0.1-0.1,0.1
	c-0.1,0-0.1,0.1-0.1,0.2c-0.1,0.1-0.1,0.1-0.2,0.2c0,0-0.1,0-0.1,0.1c-0.2,0-0.3,0.2-0.4,0.4c-0.1,0.2-0.2,0.4-0.4,0.5
	c-0.1,0-0.2,0.1-0.3,0.2c-0.1,0-0.1,0.1-0.2,0.2c-0.1,0-0.1,0.1-0.1,0.1c0,0-0.1,0-0.1,0.1c-0.1,0.1-0.1,0.1-0.2,0.2
	c-0.1,0.1-0.1,0.1-0.2,0.2c0,0-0.1,0-0.1,0.1c0,0-0.1,0-0.1,0.1c0,0,0,0,0,0c-0.1,0.1-0.1,0.2-0.2,0.2c0,0-0.1,0-0.1,0.1
	c0,0-0.1,0.1-0.1,0.1c-0.1,0-0.1,0.1-0.2,0.1c0,0.1-0.1,0.1-0.2,0.2c-0.1,0-0.2,0.1-0.2,0.1c0,0-0.1,0.1-0.1,0.1
	c0,0-0.1,0.1-0.1,0.1c0,0-0.2,0.2-0.2,0.2c0,0-0.1,0.1-0.2,0.1c-0.1,0.1-0.1,0.1-0.2,0.2c0,0,0,0-0.1,0.1c0,0-0.1,0-0.1,0.1
	c-0.1,0,0,0.1-0.1,0.1c0,0-0.1,0-0.1,0c0,0,0,0,0,0c0,0,0,0,0,0h0c0,0,0,0-0.1,0c0,0,0,0-0.1,0.1c0,0,0,0.1-0.1,0.2
	c0,0-0.1,0.1-0.1,0.2c-0.1,0.1-0.1,0.2-0.2,0.2c0,0-0.1,0.1-0.1,0.1c0,0-0.1,0.1-0.1,0.1c0,0,0,0.1,0,0.1c0,0-0.1,0-0.2,0.1
	c0,0,0,0.1-0.1,0.1c0,0-0.1,0-0.1,0c0,0,0,0.1-0.1,0.1c0,0,0,0.1-0.1,0.1c-0.1,0-0.1,0.1-0.1,0.1c0,0,0,0.1-0.1,0.1
	c0,0-0.1,0.1-0.1,0.1c0,0-0.1,0-0.1,0.1c-0.1,0.1-0.1,0.2-0.3,0.2c-0.1,0-0.1,0.1-0.2,0.2c-0.1,0-0.1,0.1-0.2,0.2
	c-0.1,0.1-0.1,0.1-0.2,0.2c0,0,0,0,0,0c0,0,0,0,0,0c-0.1,0.1-0.3,0.2-0.4,0.3c-0.1,0.1-0.1,0.1-0.3,0.2c0,0-0.1,0-0.1,0.1
	c0,0,0,0.1-0.1,0.1c0,0-0.1,0-0.1,0.1c0,0-0.1,0.1-0.1,0.1c0,0.1-0.1,0.1-0.2,0.2c0,0,0,0.1-0.1,0.1c0,0-0.1,0-0.1,0.1
	c-0.1,0-0.1,0.1-0.1,0.1c-0.1,0-0.2,0-0.1,0.1c0,0-0.1,0.1-0.1,0.1c0,0-0.1,0-0.1,0.1c0,0,0,0-0.1,0.1c0,0-0.1,0-0.1,0c0,0,0,0,0,0
	c0,0-0.1,0-0.1,0c0,0-0.1,0.1-0.1,0.1c-0.1,0-0.2,0-0.4,0c-0.1,0-0.1,0-0.2,0c-0.1,0-0.1,0-0.2,0c-0.1,0-0.1,0-0.2,0
	c-0.1,0-0.1,0-0.2,0c-0.1,0-0.1,0-0.2,0c0,0-0.1,0-0.1,0c0,0-0.1,0-0.1,0c-0.1,0-0.3,0-0.4,0c0,0-0.1,0-0.1-0.1c0,0-0.1,0-0.2,0
	c0,0-0.1,0-0.1-0.1c0,0-0.1,0-0.1,0c-0.2-0.1-0.4-0.2-0.6-0.3c-0.1,0-0.1-0.2-0.2-0.2c-0.1,0-0.2,0-0.2-0.1
	c-0.1-0.1-0.1-0.1-0.1-0.2c0,0-0.1-0.1-0.1-0.1c-0.1-0.1-0.1-0.2-0.1-0.3c-0.1,0-0.1-0.1-0.1-0.1c-0.1-0.1-0.1-0.2-0.1-0.3
	c0-0.1,0-0.1,0-0.2c0-0.1,0-0.1,0-0.2c0-0.2-0.1-0.2-0.1-0.4c0-0.1,0.1-0.3,0.1-0.4c0,0,0.1-0.1,0-0.1c0-0.1,0.1-0.2,0.1-0.3
	c0.1-0.1,0.1-0.2,0.2-0.3c0.1-0.1,0.2-0.2,0.3-0.3c0.1-0.2,0.2-0.3,0.4-0.5c0.2-0.2,0.4-0.4,0.5-0.6c0.1-0.1,0.2-0.2,0.3-0.3
	c0.1-0.1,0.2-0.2,0.3-0.3c0.2-0.2,0.4-0.4,0.6-0.6c0.2-0.2,0.3-0.4,0.5-0.5c0.2-0.1,0.4-0.3,0.5-0.5c0.1-0.1,0.2-0.1,0.3-0.2
	c0.1-0.1,0.1-0.2,0.2-0.2c0.1-0.1,0.2-0.1,0.3-0.2c0.1,0,0.1-0.1,0.1-0.2c0.1,0,0.1-0.1,0.2-0.1c0.2-0.2,0.4-0.3,0.6-0.5
	c0.2-0.2,0.4-0.3,0.6-0.5c0.1-0.1,0.2-0.2,0.3-0.3c0.1-0.1,0.2-0.1,0.3-0.2c0.2-0.2,0.4-0.4,0.6-0.6c0.1-0.1,0.2-0.1,0.3-0.2
	c0,0,0,0,0.1-0.1c0,0,0,0,0.1,0c0,0,0-0.1,0.1-0.1c0,0,0.1,0,0.1-0.1c0,0,0.1-0.1,0.1-0.2c0,0,0.1-0.1,0.1-0.1
	c0.1,0,0.1-0.1,0.1-0.1c0.1-0.1,0.2-0.2,0.3-0.2c0.1,0,0.1,0,0.1,0c0,0,0-0.1,0-0.1c0.1,0,0.1-0.1,0.2-0.2c0.1-0.1,0.1-0.1,0.2-0.2
	c0.1-0.1,0.1-0.1,0.3-0.2c0.2-0.2,0.4-0.3,0.6-0.5c0.1-0.1,0.2-0.2,0.3-0.3c0.1-0.1,0.2-0.1,0.3-0.2c0,0,0.1-0.1,0.1-0.1
	c0,0,0.1-0.1,0.2-0.1c0.1-0.1,0.2-0.2,0.4-0.3c0,0,0.2-0.2,0.3-0.2c0.1-0.1,0.2-0.2,0.3-0.2c0,0,0.1-0.1,0.1-0.1
	c0.1-0.1,0.2-0.2,0.3-0.2c0,0,0.1-0.1,0.1-0.1c0.1,0,0.1,0,0.2-0.1c0.1,0,0.1-0.1,0.1-0.1c0,0,0.1-0.1,0.2-0.1
	c0.3-0.1,0.5-0.4,0.7-0.6c0.2-0.1,0.4-0.3,0.6-0.5c0.1-0.1,0.2-0.1,0.3-0.2c0.1,0,0.1,0,0.2-0.1c0,0,0.1-0.1,0.1-0.1
	c0-0.1,0.1-0.2,0.1-0.2c0,0,0.1-0.1,0.2-0.1c0.2-0.2,0.4-0.4,0.6-0.5c0.1-0.1,0.2-0.2,0.3-0.3c0.1-0.1,0.1-0.1,0.1-0.1
	c0,0,0.1-0.1,0.1-0.1c0.1,0,0.2,0,0.3-0.1c0-0.1,0.1-0.1,0.2-0.2c0.1-0.1,0.4-0.2,0.4-0.4c0.1,0,0.1,0,0.1,0c0-0.2,0.4-0.2,0.3-0.3
	c0.1,0,0.3-0.1,0.4-0.2c0.1-0.1,0.3-0.3,0.5-0.4c0.2-0.1,0.3-0.3,0.5-0.4c0,0,0.1-0.1,0.1-0.1c0.1,0,0.1-0.1,0.2-0.1
	c0.1-0.1,0.2-0.2,0.3-0.3c0.2-0.2,0.4-0.3,0.6-0.5c0.2-0.1,0.4-0.4,0.6-0.5c0.1-0.1,0.2-0.2,0.3-0.2c0.1,0,0.1-0.2,0.2-0.2
	c0.1,0,0.2-0.1,0.3-0.2c0.1-0.1,0.2-0.1,0.3-0.2c0.1-0.1,0.2-0.1,0.3-0.2c0.1-0.1,0.2-0.1,0.3-0.2c0.1,0,0.1-0.1,0.1-0.1
	c0.1,0,0.2,0,0.2-0.1c0,0,0.1-0.1,0.1-0.1c0,0,0.1-0.1,0.1-0.1c0-0.1,0-0.1,0.1-0.1c0,0,0.1-0.1,0.1-0.1c0.1-0.1,0.2-0.2,0.3-0.2v0
	c0,0,0.1-0.1,0.1-0.1c0,0,0.1,0,0.2-0.1c0.1,0,0.1-0.1,0.3-0.2c0.1,0,0.2-0.1,0.3-0.2c0,0,0.1,0,0.1-0.1c0,0,0-0.1,0.1-0.1
	c0,0,0,0,0,0c0,0,0.1-0.1,0.1-0.1c0,0,0.1,0,0.1-0.1c0,0,0.1,0,0.1-0.1c0.1-0.1,0.2-0.2,0.3-0.2c0-0.1,0-0.1,0.1-0.1
	c0,0,0-0.1,0.1-0.1c0.1,0,0.2-0.1,0.2-0.2h0.1c0,0,0,0,0,0c0,0,0.1,0,0.1-0.1c0.1,0,0.1-0.1,0.1-0.1c0,0,0.1,0,0.1-0.1
	c0.1,0,0.1-0.1,0.2-0.1c0.1,0,0.2-0.1,0.3-0.1c0,0,0.1-0.1,0.1-0.1c0,0,0.1,0,0.1-0.1c0.1,0,0.1-0.1,0.1-0.1c0,0,0.1,0,0.1,0v0
	c0.2-0.1,0.3-0.2,0.4-0.3c0.2-0.1,0.3-0.2,0.4-0.3c0.1-0.1,0.2-0.1,0.3-0.2c0.1,0,0.1-0.1,0.2-0.1c0.1,0,0.1,0,0.1-0.1
	c0,0,0.1-0.1,0.1-0.1c0,0,0.1,0,0.2-0.1c0,0,0.1-0.1,0.1-0.1c0,0,0.2,0,0.1-0.1c0.1,0,0.1-0.1,0.2-0.1s0.1-0.1,0.2-0.1
	c0.1,0,0.1-0.1,0.2-0.1c0.1,0,0.2,0,0.2-0.1c0.1,0,0.1,0,0.2,0c0,0,0.1-0.1,0.1-0.1c0,0,0.1-0.1,0.1-0.1c0,0,0.1,0,0.1-0.1
	c0.1,0,0-0.1,0.1-0.1c0,0,0.1-0.1,0.1-0.1c0.1,0,0.2-0.1,0.3-0.2c0.1,0,0.1-0.1,0.1-0.1c0,0,0.1,0,0.1-0.1c0.3-0.1,0.5-0.4,0.8-0.5
	c0.3-0.1,0.4-0.3,0.7-0.5c0.2-0.1,0.4-0.3,0.6-0.4c0.1,0,0.1-0.1,0.1-0.1c0,0,0.1,0,0.1,0s0,0,0.1-0.1c0.1,0,0.1-0.1,0.2-0.1
	c0,0,0.1-0.1,0.1-0.1c0.1-0.1,0.2-0.1,0.3-0.2c0.3-0.2,0.5-0.4,0.8-0.5h0c0,0,0,0,0,0c0-0.1,0.2-0.1,0.3-0.2c0,0,0.1-0.1,0.2-0.2
	c0.1,0,0.2-0.1,0.3-0.2c0.1-0.1,0.1-0.2,0.3-0.2c0,0,0.1-0.1,0.2-0.1c0.1,0,0.1-0.1,0.2-0.1c0,0,0.1,0,0.1-0.1c0.1,0,0.1,0,0.2-0.1
	v0h0v-0.1c0.1,0,0,0,0-0.1c0,0,0-0.1,0-0.1c0-0.1,0-0.1,0-0.2V197c0,0,0,0,0.1,0c0-0.1,0,0,0-0.1c0,0,0,0,0-0.1v-0.1c0,0,0,0,0-0.1
	c0,0,0-0.1,0-0.1c0.1,0,0.1,0,0.1-0.1c0,0-0.1-0.1-0.1-0.1c0-0.1,0-0.1,0-0.2c0,0,0-0.1,0-0.1c0,0,0,0,0-0.1c0-0.1,0-0.1,0-0.2
	c0,0,0,0,0-0.1c0,0,0-0.1,0-0.1c0-0.1,0-0.2,0-0.4c0-0.1,0.1-0.3-0.1-0.3h-0.1c-0.1,0-0.1,0-0.2,0c0,0-0.1,0.1-0.1,0.1
	c-0.1,0-0.1,0-0.2,0.1c0,0-0.1,0.1-0.1,0.1c-0.1,0-0.1,0.1-0.2,0.1c-0.1,0,0,0.1-0.1,0.2c0,0-0.2,0-0.2,0c-0.1,0-0.1,0.1-0.1,0.1
	c0,0-0.1,0-0.1,0c0,0,0,0-0.1,0.1c-0.1,0-0.1,0-0.2,0c0,0,0,0-0.1,0.1c0,0-0.1,0-0.1,0c0,0.1-0.1,0.1-0.2,0.1c-0.1,0-0.2,0-0.3,0.1
	c-0.1,0-0.2,0-0.3,0c-0.1,0,0,0.1-0.1,0.1c0,0-0.1,0-0.1,0c0,0,0,0,0.1,0.1c0,0.1-0.1,0-0.2,0c-0.1,0-0.1,0-0.2,0.1
	c-0.1,0-0.2,0-0.2,0.1c0,0.1,0.1,0,0.2,0.1c0,0.1-0.2,0-0.2,0c-0.1,0-0.1,0-0.2,0c0,0-0.1,0-0.1,0h-0.1l0,0c0,0,0-0.1-0.1,0
	c0,0,0,0,0,0.1l-0.1,0c0,0-0.1,0-0.1,0c-0.1,0-0.3,0.1-0.4,0.1c-0.2,0-0.3,0-0.5,0c-0.1,0-0.1,0-0.2,0h-0.2v0c-0.1,0-0.3,0-0.4,0v0
	H125v0c-0.1,0-0.1,0-0.2,0c0,0-0.1,0-0.1,0c-0.1,0-0.1,0-0.2,0c0,0-0.1,0-0.2,0c-0.1,0-0.1,0-0.2-0.1s-0.1,0-0.2,0
	c-0.1,0-0.1,0-0.2,0c-0.1,0-0.1,0-0.2,0c0,0,0,0,0,0.1c-0.1,0-0.1,0-0.1-0.1c0,0-0.1-0.1-0.1-0.1c-0.1,0-0.2-0.1-0.3-0.1
	c-0.1-0.1-0.4-0.2-0.5-0.3c0,0,0,0,0,0c0,0,0-0.1,0-0.1c-0.1-0.1-0.2-0.1-0.3-0.2c-0.1-0.1-0.2-0.2-0.3-0.3c0-0.1-0.1-0.1-0.1-0.1
	c-0.1-0.1,0-0.1,0-0.2c0-0.1-0.1-0.1-0.1-0.1c0-0.1,0-0.1-0.1-0.2c0-0.1-0.1-0.2-0.1-0.3c0-0.1,0-0.2-0.1-0.3c0,0,0-0.1-0.1-0.1
	v-0.1c0-0.2-0.1-0.4-0.1-0.5c-0.1-0.1,0-0.2,0-0.3c0-0.1-0.1-0.2-0.1-0.3c0-0.1,0-0.2,0-0.2c0,0,0,0,0,0c0-0.1,0-0.2,0-0.3
	c0-0.3,0-0.6,0-0.8c0-0.1,0-0.3,0-0.4c0,0,0-0.1,0-0.2c0-0.2,0-0.5,0-0.7c0-0.3,0-0.6,0-0.9c0-0.1,0-0.1,0-0.2c0,0-0.1-0.1-0.1-0.2
	c0-0.1,0.1-0.4,0-0.4c0,0,0-0.1,0-0.2v-0.2c0-0.1,0-0.1,0.1-0.2c0.1,0,0.1-0.1,0.1-0.2c0,0,0.1-0.1,0.1-0.2v-0.2c0-0.2,0-0.5,0-0.7
	c0-0.2,0-0.4,0-0.7c0-0.1,0-0.2,0-0.3v-0.1c0,0,0,0,0,0c0,0,0-0.1,0-0.1c0,0,0,0,0-0.1V185c0,0,0-0.1,0-0.2c0-0.1,0.1-0.1,0.1-0.2
	c0-0.1,0-0.2,0-0.2c0,0,0-0.1,0-0.2c0-0.1,0.1-0.2,0.1-0.3c0,0,0,0,0-0.1c0,0,0-0.1,0-0.1c0-0.1,0-0.2,0-0.3c0-0.2,0.1-0.4,0.1-0.6
	c0-0.1,0.1-0.2,0.1-0.3c0-0.1,0-0.2,0.1-0.3c0.1-0.1,0.1-0.2,0.1-0.3c0-0.1,0-0.2,0.1-0.3c0-0.1,0-0.1,0-0.2c0-0.1,0.1-0.1,0.1-0.2
	c0,0,0-0.1,0-0.1c0,0,0-0.1,0.1-0.1c0,0,0-0.1,0-0.1c0,0,0-0.1,0-0.1c0,0,0-0.1,0.1-0.1c0-0.1,0.1-0.2,0.1-0.3c0,0,0-0.1,0.1-0.1
	c0,0,0-0.1,0-0.1c0,0,0.1-0.1,0.1-0.1c0,0,0-0.1,0-0.1c0,0,0.1-0.1,0.1-0.1c0,0,0,0,0.1,0c0,0,0,0,0,0s0.1,0,0.1,0v-0.1
	c0,0,0-0.1,0.1-0.1c0,0,0.1-0.1,0.1-0.1c0,0,0-0.1,0-0.1h0c0-0.1,0-0.1,0.1-0.2c0-0.1,0.1-0.1,0.1-0.2c0,0,0-0.1,0.1-0.2
	c0,0,0,0,0-0.1c0,0,0-0.1,0-0.1c0,0,0-0.1,0.1-0.1c0,0,0.1-0.2,0.2-0.2c0-0.1,0.1-0.2,0.2-0.3c0,0,0-0.1,0.1-0.2c0,0,0,0,0.1,0
	c0,0,0-0.1,0-0.1c0.1-0.1,0.1-0.1,0.2-0.2c0,0,0-0.1,0.1-0.1c0,0,0,0,0,0c0,0,0,0,0.1,0c0,0,0-0.1,0-0.1c0,0,0-0.1,0.1-0.1
	c0,0,0.1-0.1,0.2-0.2c0.1-0.1,0.3-0.2,0.5-0.4c0.1-0.1,0.3-0.3,0.5-0.3c0,0,0.1-0.1,0.2-0.1c0,0,0.1,0,0.1,0c0,0,0-0.1,0,0
	c0,0.1,0.1,0,0.1,0c0,0,0,0,0.1,0c0,0,0,0,0.1,0c0,0,0.1-0.1,0.1-0.1c0.1,0,0.1-0.1,0.1-0.1c0,0,0.1,0,0.1-0.1
	c0.1,0,0.2-0.1,0.2-0.1c0.1,0,0.1,0,0.2,0c0,0,0.1,0,0.1,0c0,0,0.1,0,0.1-0.1c0.1,0,0.1,0,0.2,0c0.1,0,0.2-0.1,0.3-0.1
	c0.1,0,0.2-0.1,0.3-0.1c0.1,0,0,0,0.1,0c0,0,0.1,0,0.2,0c0,0,0.1,0,0.2,0c0,0,0.1,0,0.1,0c0.1,0,0.1,0,0.2,0c0.1,0,0.1,0,0.2,0
	c0,0,0.1,0,0.1,0c0,0,0.1,0,0.1,0c0.1,0,0.1,0,0.2,0c0,0,0.1,0,0.1,0c0,0,0.1,0.1,0.1,0.1c0.1,0,0.1,0.1,0.1,0.1
	c0,0,0.1,0.1,0.1,0.1c0,0-0.1,0.1,0,0.1c0,0,0,0,0,0c0,0,0,0.1,0,0.1c0,0,0,0.1,0.1,0.1c0,0.1,0,0.2,0,0.3c-0.1,0-0.1,0.2-0.1,0.2
	c0,0,0,0,0,0c0,0,0.1,0.1,0.1,0.1c0,0.1-0.1,0.2-0.1,0.3c0,0,0,0.1,0,0.1c0,0-0.1,0-0.1,0.1c0,0-0.1,0.2,0,0.2c0,0-0.1,0.1-0.1,0.1
	c0,0-0.1,0-0.1,0.1c0,0,0,0.1,0,0.1c0,0,0,0.1,0,0.1c0,0.1-0.1,0-0.1,0c0,0,0,0.1-0.1,0.1c0,0,0,0.1,0,0.1c0,0-0.1,0.2-0.1,0.2
	c0,0.1-0.1,0-0.1,0.1c-0.1,0-0.1,0.1-0.1,0.1c-0.1,0-0.1,0-0.2,0.1v0h0l0,0c0,0-0.2,0.2-0.2,0.2c-0.1,0.1-0.1,0.2-0.1,0.3h-0.1
	c0,0.1-0.1,0.1-0.2,0.2v0c0,0-0.1,0.1-0.1,0.2c0,0-0.1,0.1-0.1,0.1c0,0-0.1,0.1,0,0.2h0c0,0-0.1,0.1-0.1,0.2c0-0.1-0.1,0-0.1,0.1
	c0,0.1,0,0.2-0.1,0.2c0,0,0,0.1,0,0.1c-0.1,0-0.1,0.1-0.1,0.1c-0.1,0-0.1,0.3-0.1,0.4c0,0.1-0.1,0.2-0.1,0.4c0,0.1-0.2,0.2-0.3,0.3
	c0,0.1-0.1,0.2-0.1,0.3c-0.1,0.1-0.1,0.2-0.1,0.4c0,0.1,0,0.2-0.1,0.4c0,0,0,0.1-0.1,0.1c0,0.1,0,0.1,0,0.2c0,0-0.1,0.1-0.1,0.1
	c0,0,0,0.1,0,0.2c0,0.1-0.1,0.2-0.1,0.3c0,0,0,0.1,0,0.2c0,0,0.1,0.5,0,0.5c-0.1,0,0,0.1,0,0.2c0,0.1,0.1,0.1,0,0.2c0,0-0.1,0,0,0.1
	c0,0,0.1,0,0.1,0c0,0.1,0,0.2,0.1,0.1c0,0.1,0.1,0.2,0.1,0.4c0,0.1-0.1,0.3-0.1,0.3c0,0,0,0.1,0,0.1c0,0,0,0-0.1,0.1
	c0,0.1,0,0.2,0,0.2c0,0,0,0.1,0,0.1c0,0.1,0,0.1,0,0.2c0,0.1,0,0.2,0,0.3c-0.1,0.2-0.1,0.5-0.1,0.7c0,0.1,0,0.2,0,0.3
	c0,0.1,0,0.2-0.1,0.3c0,0,0,0.1-0.1,0.1c0,0,0,0.1,0,0.2c0,0,0,0.1,0,0.2c0,0.1,0.1,0.1,0.1,0.3c0,0,0,0.1,0,0.1c0,0,0.1,0,0.1,0.1
	c0,0-0.1,0.1-0.1,0.1c-0.1,0.2,0,0.4,0,0.7c0,0.2,0.1,0.5,0.1,0.7c0,0,0.1,0,0.1,0.1c0.1,0.1,0,0.1,0,0.2c0,0.1,0.1,0.2,0.2,0.3
	c0,0.1,0.1,0.2,0.3,0.2c0,0,0.1,0.1,0.1,0.1c0.1,0,0.1,0,0.2,0.1c0,0,0.1,0,0.1,0h0.1c0.1,0,0.3,0,0.4,0c0.2,0,0.4,0,0.6-0.1
	c0.1,0,0.1,0,0.2-0.1c0.1,0,0.1,0,0.2,0c0,0,0.1,0,0.1-0.1c0,0,0.1,0,0.1,0c0,0,0,0,0.1-0.1c0,0,0.1-0.1,0.1-0.1c0,0,0.1,0,0.1,0
	c0,0,0,0,0,0c0.1,0,0.1,0,0.1-0.1c0,0,0.1,0,0.1,0c0.1,0,0.1-0.1,0.2-0.1c0.1-0.1,0.2-0.2,0.3-0.4c0.1-0.1,0.1-0.1,0.2-0.2
	c0.3-0.3,0.4-0.7,0.5-1.2c0-0.1,0-0.2,0.1-0.3c0,0,0-0.1,0-0.1c0-0.1,0-0.1,0-0.2c0-0.2,0.1-0.4,0.1-0.7c0-0.1,0-0.2,0-0.3
	c0-0.1,0-0.3,0-0.4c0,0,0.1-0.1,0.1-0.1c0,0,0-0.1,0-0.2c0-0.2,0-0.3,0.1-0.5c0-0.1,0-0.2,0-0.3c0,0,0.1-0.3,0-0.3h0
	c0.1-0.1,0-0.2,0-0.3c0-0.1,0-0.2,0-0.3c0-0.1,0.1-0.2,0.1-0.3s0-0.2,0-0.3v-0.1c0,0,0,0,0,0c0,0,0-0.1,0-0.2c0-0.1,0-0.3,0-0.4
	c0-0.1,0-0.3,0.1-0.4c0.1-0.1,0-0.3,0-0.4c0,0,0-0.1,0-0.1c0,0,0,0,0,0c0,0,0,0,0-0.1c0-0.1,0-0.2,0-0.3c0,0-0.1,0-0.1,0
	c0,0,0-0.1,0-0.1c0-0.1,0.1,0,0.1-0.1c0,0,0-0.2,0-0.2c0-0.1,0.1-0.2,0.1-0.3c0-0.1,0-0.2,0-0.3c0-0.1,0-0.2,0-0.3c0,0,0-0.1,0-0.2
	c0-0.1,0-0.1,0-0.2c0,0,0-0.1,0-0.2c0-0.1,0-0.1,0-0.2c0-0.1,0-0.3,0-0.4c0,0,0-0.1,0-0.1c0,0,0-0.1,0-0.2c0-0.1,0-0.2,0-0.3
	c0-0.1,0-0.2,0-0.3s0-0.3,0-0.4V178c0,0,0,0,0-0.1s0,0,0-0.1c0,0,0-0.1,0-0.1c0-0.1,0-0.1,0-0.2c0-0.1,0-0.2,0-0.4c0,0,0.1,0,0-0.1
	c0,0,0,0,0-0.1s0,0,0-0.1c0-0.1,0-0.2,0-0.3c0-0.1,0-0.1,0-0.2v-0.2c0-0.1,0-0.3,0-0.4c0-0.1,0-0.2,0-0.4c0,0,0-0.1,0-0.1
	c0-0.1,0-0.2,0-0.2c0-0.1,0-0.2,0.1-0.3c0-0.1,0-0.2,0-0.3c0,0,0-0.1,0.1-0.1c0-0.1,0-0.1,0-0.2c0-0.1,0.1-0.2,0.1-0.3
	c0,0,0.1,0,0.1,0v-0.1c0,0,0.1-0.1,0.1-0.1c0,0,0,0,0,0h0c0-0.1,0.1-0.2,0.2-0.2c0,0,0.1-0.1,0.2-0.2c0.1-0.1,0.1-0.1,0.2-0.1
	c0.1,0,0.1-0.1,0.2-0.1c0,0,0,0,0,0c0,0.1,0.1,0,0.2,0c0,0,0,0,0-0.1c0,0,0.1,0,0.2,0c0.1,0,0.1,0,0.2,0c0.1,0,0.2-0.1,0.3-0.1
	c0.3-0.1,0.5-0.1,0.8-0.1c0.1,0,0.3,0,0.4,0c0.1,0,0.3,0,0.4,0.1c0.2,0.1,0.5,0.1,0.6,0.3c0,0.1,0.1,0.1,0.2,0.2
	c0,0,0.1,0.1,0.1,0.1c0,0,0,0.1,0.1,0.1c0.1,0,0.1,0.1,0.1,0.2c0,0-0.1,0.1,0,0.1c0.1,0,0.1,0,0.2,0c0,0,0,0,0,0c0,0-0.1,0-0.1,0
	c0,0.1,0.1,0.1,0.1,0.1c0.1,0,0,0.1,0,0.1c0,0,0,0.1,0,0.1v0.2c0,0,0,0.1,0,0.2c0,0.1,0,0.1,0,0.1c0,0,0,0.1,0,0.1
	c0,0-0.1,0-0.1,0.1c0,0,0,0.1,0,0.1c0,0.1,0,0.2,0,0.2c0.1,0,0.1,0,0.1,0.1c0,0,0,0,0,0.1c0,0-0.1,0-0.1,0c-0.1,0,0,0.1,0,0.2
	c0.1,0,0.1,0.1,0,0.1c0,0.1,0,0.1,0,0.1c0,0.1,0,0.1-0.1,0.2c-0.1,0,0,0.2,0,0.3c0,0,0,0.1,0,0.2c0,0,0.1,0.1,0,0.1c0,0-0.1,0,0,0.1
	c0,0.1,0.1,0.1,0.1,0.1c0.1,0.1-0.1,0.1-0.1,0.2c-0.1,0.1,0,0.1,0,0.1c0,0,0,0.1,0,0.1c0,0.1,0,0.1,0,0.1c0,0,0,0.1,0,0.1
	c0,0,0,0.1,0,0.1c0,0,0,0,0,0.1c0,0-0.1,0-0.1,0c-0.1,0,0,0,0,0.1c0,0,0,0.1,0,0.1c-0.1,0,0-0.1-0.1,0c0,0,0,0.1,0,0.1
	c0,0,0.2,0.1,0.1,0.2c0,0,0,0-0.1,0c-0.1,0,0,0.1,0,0.2c0,0-0.1,0.1,0,0.2c0.1,0.1,0.1,0,0.1,0c0.1,0.1-0.1,0.1-0.2,0.2
	c0,0.1,0,0.3,0,0.4c0,0.1,0,0.1,0,0.2c0,0.1,0,0.1,0,0.2c0,0,0.1,0.1,0,0.2c0,0-0.1,0.1-0.1,0.1c0,0,0.1,0,0.1,0.1c0,0,0,0.1,0,0.1
	c0,0.1,0,0.1,0,0.2c0,0.2,0,0.3,0,0.5v0.2c0,0.1-0.1,0.2-0.1,0.3c0,0.3,0,0.6,0,0.9c0,0.3-0.1,0.7-0.1,1c-0.1,0-0.1,0.2-0.1,0.3v0.3
	c0,0.1,0,0.2,0,0.3c0,0.1-0.1,0.2,0,0.2c0,0-0.1,0-0.1,0.1v0.1c0,0.1,0,0.1,0,0.2c0,0.1-0.1,0.3-0.1,0.5c0,0.2,0,0.3,0,0.5
	c0,0.1,0,0.1,0,0.2c0,0-0.1,0.1,0,0.1c0,0.1,0,0.2-0.1,0.3c0,0.1,0,0.2,0,0.3c0,0.1,0,0.2,0,0.3c0,0-0.1,0.1,0,0.2c0,0,0.1,0,0.1,0
	c0,0,0,0.1-0.1,0.1c0,0-0.1,0.1-0.1,0.1v0.2c0,0.1,0,0.3,0,0.4c0,0,0,0.1-0.1,0.2c0,0,0,0.1,0,0.1c0,0,0.1,0,0.1,0c0,0,0,0,0,0.1
	v0.6c0,0.1,0.1,0.1,0.1,0.1c0,0,0,0.1,0,0.1c0,0,0,0,0,0l0,0.1c0,0-0.1,0,0,0.1c0,0,0,0.1,0,0.1s0,0.2-0.1,0.2c-0.1,0-0.1,0-0.1,0.1
	c0,0,0.1,0,0.1,0.1h-0.1c0,0,0,0.3,0.1,0.3c0,0-0.2,0.2,0,0.1c0,0.1,0,0.1-0.1,0.2c-0.1,0.1,0.1,0.1,0.1,0.2c0,0,0,0,0,0.1
	c0,0,0,0,0,0c0,0,0,0,0,0.1c0,0,0,0.1,0,0.1c0,0-0.1,0-0.1,0.1c0,0,0,0,0,0v0.1c0,0.1,0,0.1-0.1,0.1c-0.1,0.1,0,0.2,0,0.3
	c0,0.1-0.1,0.2-0.1,0.3c0,0.1,0.1,0.2,0,0.3c-0.1,0.1,0,0.2,0,0.3c0,0.1,0,0.2,0,0.3c0,0.1,0,0,0,0.1c0,0,0,0.1,0,0.1
	c-0.1,0.1,0,0.1,0,0.1c0,0.1,0,0.1-0.1,0.1c0,0.1,0.1,0.2,0.1,0.2c0,0,0.3-0.1,0.3-0.1s0.1,0,0.1-0.1c0,0,0-0.1,0-0.1c0,0,0,0,0,0
	c0.1,0,0.1-0.1,0.1-0.1c0,0,0.1,0,0.1,0c0,0,0,0,0-0.1c0.1,0,0.1,0,0.1-0.1c0,0,0.1,0,0.1-0.1c0,0,0,0,0.1-0.1c0,0,0.1,0,0.1-0.1
	c0.1,0,0.2-0.1,0.3-0.2c0,0,0.1,0,0.1-0.1c0.1,0,0.1-0.1,0.2-0.1c0.1-0.1,0.2-0.1,0.3-0.2c0.1,0,0.2-0.1,0.3-0.1c0,0,0.1,0,0.2-0.1
	c0.1,0,0-0.1,0.1-0.1c0.1,0,0.1,0,0.2,0c0,0,0.1-0.1,0.1-0.1c0.3-0.2,0.6-0.4,0.9-0.5c0.5-0.3,0.9-0.5,1.4-0.8
	c0.3-0.1,0.5-0.3,0.8-0.5c0.3-0.1,0.5-0.3,0.8-0.4l0,0c0,0,0.1-0.1,0.2-0.1c0.1,0,0.1-0.1,0.2-0.1c0,0,0.1,0,0.1,0
	c0.1,0,0.1-0.1,0.2-0.1c0.1,0,0.1-0.1,0.3-0.2c0.1,0,0.2-0.1,0.3-0.1c0.1-0.1,0.2-0.1,0.3-0.2c0-0.1,0.1-0.1,0.2-0.1
	c0.1,0,0.1-0.1,0.2-0.1c0.1,0,0.2-0.1,0.3-0.2c0.1,0,0.2-0.1,0.3-0.1c0,0,0,0,0.1-0.1c0,0,0.1-0.1,0.1-0.1c0.1-0.1,0.1-0.1,0.3-0.1
	c0.1-0.1,0.2-0.1,0.3-0.2c0.1,0,0.2-0.1,0.3-0.1c0.1,0,0.2-0.1,0.3-0.1c0.1,0,0.2-0.1,0.3-0.1c0,0,0-0.1,0.1-0.1c0-0.1,0.1,0,0.1,0
	c0.1,0,0.1-0.1,0.2-0.2c0,0,0.1,0,0.1,0c0,0,0,0,0-0.1c0,0,0.1-0.1,0.2-0.1c0.1,0,0.1,0.1,0.1,0.1c0.1,0,0.1,0,0.2,0
	c0,0,0.1,0,0.1-0.1c0.1,0,0.1,0,0.1-0.1c0-0.1,0.1-0.1,0.2-0.2c0,0,0.1,0,0.1,0c0,0,0,0,0,0c0,0,0.1,0,0.1,0c0,0,0,0,0,0
	c0,0,0.1,0,0.1,0c0,0,0.1,0,0.1,0c0.1,0,0.1-0.1,0.1-0.1c0-0.1,0.1,0,0.1,0c0,0,0.1-0.1,0.1-0.1c0,0,0.1,0,0.1,0
	c0,0,0.1-0.1,0.1-0.1c0,0,0.1,0,0.1-0.1c0,0,0.1,0,0.1-0.1c0.1,0,0.1,0,0.2-0.1c0.1,0,0.1-0.1,0.2-0.1c0.2-0.1,0.4-0.3,0.6-0.4
	c0.1,0,0.2-0.1,0.3-0.2c0.1,0,0.1,0,0.1,0c0,0,0.1,0,0.1-0.1c0.1,0,0.1-0.1,0.2-0.2c0.1,0,0.2-0.1,0.3-0.1c0.2-0.1,0.3-0.2,0.5-0.3
	c0.1,0,0.2-0.1,0.3-0.2c0.1-0.1,0.2-0.1,0.3-0.2c0.2-0.1,0.4-0.2,0.6-0.3c0.2-0.1,0.4-0.2,0.6-0.3c0,0,0.1,0,0.1-0.1
	c0,0,0.1,0,0.1,0c0,0,0,0,0.1,0s0,0,0.1,0c0,0,0.1-0.1,0.1-0.1c0.2-0.1,0.4-0.2,0.6-0.3c0.2-0.1,0.4-0.3,0.6-0.3c0,0,0.1,0,0.2-0.1
	c0.1,0,0.1-0.1,0.2-0.1c0.1,0,0.1-0.1,0.2-0.1c0,0,0,0,0.1,0c0.1-0.1,0.3-0.1,0.4-0.2c0,0,0.1,0,0.1-0.1c0,0,0.1,0,0.1,0l0,0
	c0-0.1,0.2-0.1,0.3-0.1c0.2-0.1,0.4-0.2,0.6-0.3c0,0,0.1,0,0.1-0.1c0.1,0,0.1,0,0.2-0.1c0.1-0.1,0.2-0.1,0.3-0.1
	c0.4-0.2,0.8-0.5,1.3-0.7c0.2-0.1,0.4-0.2,0.6-0.3c0.1,0,0.3-0.1,0.4-0.2c0.1,0,0.1,0,0.1-0.1c0,0,0.1,0,0.1-0.1
	c0,0,0.1-0.1,0.1-0.1c0,0,0.1,0,0.1-0.1c0.1-0.1,0.2-0.1,0.3-0.1c0.1,0,0.1-0.1,0.2-0.1c0.1-0.1,0.2-0.1,0.4-0.2c0.1,0,0.1,0,0.1,0
	c0.1,0,0.1-0.1,0.2-0.1c0,0,0.1,0,0.1-0.1c0,0,0.1-0.1,0.1-0.1c0-0.1-0.1-0.1-0.1-0.1c-0.1,0-0.2-0.1-0.3-0.1c0,0-0.1-0.1-0.1-0.1
	c-0.1,0-0.1-0.1-0.1-0.1c-0.1,0-0.2-0.1-0.2-0.2c0,0-0.1-0.1-0.1-0.1c0,0,0-0.1-0.1-0.2c0,0,0-0.1,0-0.1c0,0-0.1-0.1-0.1-0.1
	c0,0-0.1-0.1-0.1-0.1c0,0,0-0.1,0-0.2c0-0.1-0.1-0.2-0.1-0.3c0-0.1,0-0.2,0-0.4c0-0.2,0-0.5,0-0.7c0-0.1,0-0.2,0-0.3
	c0-0.1,0-0.1,0-0.2c0,0,0-0.1,0-0.2c0-0.1,0-0.1,0-0.2c0-0.1,0-0.1-0.1-0.1c0-0.1,0-0.1,0-0.2c0-0.1,0-0.1,0-0.2c0,0,0,0,0,0v-0.1
	c0,0,0-0.1,0-0.2v-0.4c0-0.1,0-0.3,0-0.3c0.1-0.1,0.1-0.3,0.1-0.4c0-0.1,0-0.2-0.1-0.3c0-0.1-0.1-0.1-0.1-0.3
	c0.1-0.1,0.1-0.2,0.1-0.4c0,0,0-0.1,0-0.2c0,0,0-0.1,0.1-0.1c0-0.1,0.1-0.2,0.1-0.3c0,0,0-0.1,0-0.1c0,0-0.1,0-0.1,0
	c-0.1,0,0-0.1,0-0.2c0,0,0-0.1,0-0.1c0,0,0,0,0,0c0-0.1,0-0.2,0-0.2c0,0,0.1,0,0.1-0.1c0,0,0-0.1,0-0.2h0c0-0.1,0-0.1,0-0.2
	c0,0,0,0,0-0.1c0,0,0.1,0,0.1,0c0,0,0-0.1,0-0.1c0-0.1,0-0.2,0-0.3v-0.1c0-0.3,0-0.5,0-0.8c0-0.1,0-0.2,0-0.3c0-0.1,0.1-0.3,0-0.3
	c0,0,0,0,0,0c0,0-0.1,0,0,0c0,0,0,0,0,0c0.1,0,0-0.1,0-0.1c0-0.1,0-0.2,0-0.4c0-0.3,0-0.6,0-0.8c0-0.2,0-0.5,0-0.7
	c0-0.1,0-0.1,0-0.2c0,0,0,0,0,0c0,0,0,0-0.1,0c0,0,0-0.1,0-0.1c0,0-0.1-0.1-0.1-0.1c-0.1-0.2-0.3-0.4-0.6-0.4c-0.1,0-0.3,0-0.4,0
	c0,0,0,0,0,0c0,0-0.1,0-0.1,0c-0.1,0,0,0,0,0s-0.1,0-0.1,0c-0.1,0-0.1,0-0.1,0c-0.1,0-0.2,0-0.3,0c-0.1,0-0.2,0.1-0.3,0.1
	c0,0-0.1,0-0.2,0c0,0-0.1,0.1-0.1,0.1c0,0-0.1,0-0.2,0c0,0-0.1,0-0.1,0.1c-0.1,0.1-0.1,0.2-0.2,0.2c-0.1,0-0.1,0-0.2,0
	c0,0-0.1,0-0.1,0.1c0,0-0.1,0-0.1,0.1c0,0,0,0,0,0.1c0,0,0,0,0,0.1c-0.1,0-0.1,0.1-0.2,0.1c0,0.1,0,0.2-0.1,0.3c0,0-0.1,0-0.1,0.1
	c0,0-0.1,0.1-0.1,0.1c-0.1,0-0.2,0.1-0.3,0.2c0,0-0.1,0.1-0.1,0.2c0,0-0.1,0.1-0.1,0c0,0,0,0,0-0.1c0,0-0.1,0-0.1,0
	c0,0,0.1,0.1,0.1,0.1c0,0.1,0,0.2-0.1,0.3c-0.1,0.1-0.2,0.1-0.3,0.2c-0.1,0-0.1,0-0.1,0.1c-0.1,0-0.1,0,0,0.1c0,0.1,0,0.2,0,0.3
	c0,0,0,0.1-0.1,0.1c0,0,0,0.1,0,0.1c0,0-0.1,0-0.1,0v0c0,0,0,0,0,0.1c0,0-0.1,0-0.1,0s-0.1,0-0.1,0.1c0,0.1,0,0.1,0,0.1
	c0,0,0,0.1,0,0.2v0.3c0,0-0.1,0-0.1,0c0,0,0.1,0.1,0.1,0.1c0,0,0,0.1-0.1,0.1c0,0-0.1,0.1-0.1,0.2c0,0,0.1,0,0.2,0
	c0,0.1-0.1,0.1-0.1,0.2c0,0,0,0-0.1,0c0,0-0.1,0-0.1,0c0.1-0.1-0.1-0.1-0.1-0.1c0,0,0.1,0.1,0.1,0.1c0,0-0.1,0-0.1,0c0,0,0,0,0,0
	c-0.1,0.1,0,0.1,0.1,0.1c0.1,0,0.1,0,0.1,0c0,0-0.1,0-0.1,0.1c0,0.1,0,0.1,0,0.1c0,0,0.1,0,0.1,0.1c0,0.1-0.1,0-0.2,0.1
	c0,0,0.1,0,0.2,0c0,0,0.1,0.1,0.1,0.1c0,0.1-0.2,0-0.3,0c0,0-0.1,0.1-0.1,0.2c0,0,0,0.1,0,0.1c0,0,0,0.1,0,0.1c0,0.1,0.1,0,0.1,0.1
	c0,0,0,0.1,0,0.1c0,0,0.1,0.1,0.1,0.1c0,0,0,0.1,0,0.1c0,0.1,0.1,0.1,0,0.2c-0.1,0.1,0,0.2-0.1,0.2c0,0-0.1,0-0.1,0c0,0,0,0.1,0,0
	c0.1,0.1-0.1,0.1-0.2,0.1c0,0.1,0.1,0.1,0.1,0.2c0.1,0,0,0,0,0c0,0-0.1,0-0.1,0c0,0,0,0.1,0,0.1h0c0,0,0,0.1,0,0.1
	c0,0.1,0,0,0.1,0.1c0,0.1,0.1,0.1,0.2,0.2l0,0c0,0,0,0,0,0c0,0,0,0.1,0,0.1c0,0-0.1,0-0.1,0.1c0,0,0.1,0.1,0.1,0.1c0,0,0,0.1,0,0.1
	c0,0-0.1,0.1,0,0.1c0,0,0.1,0,0.1,0c0.1,0,0.1,0.1,0,0.1c-0.1,0-0.1,0-0.1,0.1c-0.1,0-0.1,0-0.2,0c0-0.1,0-0.2,0-0.2
	c-0.1-0.1,0,0.1,0,0.1c0,0-0.1,0,0,0.1c0,0,0.1,0,0,0.1c0,0-0.2,0.1-0.1,0.1c0,0-0.1,0.1-0.1,0.2c0,0,0,0,0.1,0s0,0,0.1,0.1
	c0,0.1,0.1,0.1,0.1,0.1c-0.1,0-0.1,0-0.1,0c-0.1,0-0.1,0-0.1,0.1v0.1c0,0,0,0,0,0.1c0,0.1,0,0.2,0,0.3v0.3c0,0.1,0,0.2,0,0.4v0.2
	c0,0,0,0.1,0,0.2c0,0,0.1,0,0.1,0.1c0,0-0.1,0.1-0.1,0.1c0,0,0,0.1,0.1,0c0.1,0,0.1-0.1,0.1-0.1c0,0,0,0,0,0v0c0,0,0.1,0,0.1,0
	c0,0.1,0,0.2-0.1,0.2c0,0-0.2,0-0.1,0.1c0,0,0.1,0.1,0.1,0.1c0,0-0.1,0-0.1,0c-0.1,0,0,0.1,0,0.1c0,0.1,0,0.1,0.1,0.1
	c0.1,0,0.1,0,0.1,0v0.1c0,0-0.2,0-0.2,0c0,0.1,0.1,0.1,0.2,0.1c0,0.1,0.1,0,0.1,0.1c0,0,0.1,0.1,0.1,0.1c0,0.1-0.1,0.1-0.1,0.2
	c0,0,0,0,0,0.1c0,0,0,0,0,0c0,0,0,0.1,0,0.1c0,0-0.1,0.1-0.1,0.1c0,0.1,0,0,0,0c0,0,0,0,0,0.1c0,0.1,0,0.1,0,0.1c0,0,0.1,0.1,0,0.1
	c-0.1,0-0.1-0.3-0.2-0.2c0,0.1,0,0.1,0,0.2c0,0.1,0,0.1,0.1,0.2c0,0.1,0.1,0.1,0.1,0.2c0,0.1,0,0.1,0,0.2c-0.1,0-0.1,0-0.1,0
	c0,0,0.1,0,0,0.1c0,0-0.1,0-0.1,0.1c-0.1,0-0.1,0.1-0.1,0.1c0,0.1,0.1,0.2-0.1,0.1v0.1c0,0-0.1,0-0.1,0v0.1c0,0,0,0.1,0,0.1
	c0,0,0.1,0,0,0.1c0,0-0.1,0-0.1,0c0,0,0,0,0,0.1c0,0,0,0-0.1,0c0,0,0,0,0,0.1s0,0,0,0.1c0,0,0,0.2,0,0.2c0,0.1-0.3,0-0.2,0.2h0
	c0,0-0.1,0.1-0.2,0h0c0,0,0,0.1-0.1,0.2c0,0,0,0-0.1,0c0,0,0,0,0,0.1c0,0-0.1,0-0.1,0c-0.1,0-0.1,0-0.1,0c-0.1,0-0.1,0-0.2,0.1
	c0,0,0,0.1-0.1,0.1c-0.1,0-0.2,0.1-0.3,0.1c-0.1,0-0.1,0-0.1,0.1s-0.1,0-0.1,0c-0.1,0-0.1,0.1-0.1,0.1c-0.1,0-0.2,0-0.2,0.1
	c0,0-0.1,0.1-0.1,0.1c-0.1,0-0.3,0.1-0.5,0.2c-0.1,0-0.3,0-0.5,0.1c-0.2,0-0.3,0-0.4,0c0,0-0.1,0-0.1,0c0,0-0.1,0-0.1,0
	c0,0-0.1,0-0.2,0c-0.2,0-0.3-0.1-0.4-0.2c-0.2-0.1-0.2-0.1-0.3-0.3c0,0,0-0.1-0.1-0.2c0,0,0-0.1-0.1-0.1v0c0,0,0,0,0,0
	c0-0.1,0-0.3-0.1-0.4v-0.2c0,0,0-0.1,0-0.2c0-0.1,0-0.2,0-0.2c0,0,0,0,0-0.1c0,0,0-0.1,0-0.1v-0.2c0-0.1,0-0.2,0-0.3
	c0-0.1,0-0.1,0-0.2c0,0,0-0.1,0-0.1c0,0,0-0.1,0-0.1c0-0.1,0-0.1,0-0.2c0-0.1,0-0.1,0-0.2c0-0.1,0-0.3,0-0.5c0-0.1,0-0.1,0-0.2
	c0,0,0.1-0.1,0-0.2c0,0,0-0.1,0-0.1v-0.2l0,0c0.1,0,0.1-0.2,0.1-0.2c0-0.1,0-0.2,0-0.3l0,0l0,0c0,0,0-0.1,0-0.2c0-0.1,0-0.1,0-0.2
	c0-0.1,0-0.2,0-0.3c0-0.1,0-0.2,0-0.3c0-0.1,0-0.1,0-0.1c0,0,0-0.1,0-0.1c0-0.2,0-0.3,0-0.5c0-0.2,0-0.3,0-0.5c0-0.1,0-0.1,0-0.2
	c0-0.1,0-0.2,0-0.3c0,0,0,0,0-0.1c0,0,0,0,0-0.1c0-0.1,0-0.1,0-0.2c0,0,0-0.1,0-0.1c0-0.1,0-0.2,0-0.3c0,0-0.1-0.1,0-0.1
	c-0.1-0.1,0-0.2,0-0.3v-0.2c0-0.1,0-0.2,0-0.2c0-0.1,0.1-0.1,0-0.2c0,0,0,0,0,0v-0.1c0-0.1,0-0.3,0-0.5s0-0.3,0-0.5
	c0-0.2,0-0.3,0-0.5c0,0,0,0,0-0.1c0,0,0-0.1,0-0.1c0,0,0-0.1,0-0.1c0,0,0-0.1,0-0.1c0-0.1,0-0.3,0-0.4c0-0.1,0-0.3,0-0.4
	c0-0.1,0-0.3,0-0.5c0.1-0.2,0-0.4,0-0.6c0-0.2,0-0.5,0.1-0.7V167c0-0.1,0-0.3,0-0.4c0-0.2,0.1-0.4,0.2-0.6c0-0.1,0.1-0.2,0.1-0.3
	c0-0.1,0.1-0.2,0.1-0.3c0.1-0.1,0.1-0.2,0.2-0.3c0-0.1,0.1-0.2,0.2-0.2c0-0.1,0.1-0.2,0.2-0.2c0.1-0.1,0.1-0.3,0.3-0.3
	c0.1,0,0.1-0.1,0.1-0.1c0,0,0.1,0,0.1,0c0,0,0,0,0,0c0,0,0.1,0,0.1,0c0,0,0,0,0,0c0,0,0.1-0.1,0.2-0.1c0.1-0.1,0.2-0.1,0.3-0.2
	c0.1,0,0.2-0.1,0.3-0.2c0,0,0.1,0,0.1,0c0,0,0.1,0,0.1,0c0.1,0,0.2-0.1,0.3-0.1c0.3,0,0.5-0.1,0.8-0.1c0.1,0,0.3,0,0.4,0
	c0.1,0,0.3,0.1,0.4,0c0,0,0-0.1,0.1-0.1c0.1,0,0.1,0,0.2-0.1c0.1,0,0.3,0,0.4,0c0.1,0,0.1,0,0.1,0c0.1,0,0.1,0,0.1,0.1
	c0,0,0,0.1,0.1,0.1c0.1,0,0.2,0,0.3,0c0,0,0.1,0,0.1,0c0.1,0,0.1,0,0.1,0c0.1,0,0.2,0,0.3,0c0.1,0,0.1,0,0.2,0c0,0,0.1,0,0.1,0
	c0.1,0,0.1-0.1,0.2-0.1c0.1,0,0.1,0,0.2,0c0.1,0,0.2-0.1,0.3-0.1c0.1,0,0.2-0.1,0.3-0.2c0,0,0-0.1,0.1-0.1c0,0,0.1,0,0.1-0.1
	c0.1,0,0.2-0.1,0.2-0.2c0.1-0.1,0.1-0.1,0.1-0.2c0,0,0.1,0,0.1,0c0,0,0-0.1,0.1-0.1c0,0,0,0,0,0c0.1-0.2,0.3-0.3,0.4-0.4
	c0.1,0,0.1-0.1,0.2-0.1c0,0,0.1-0.1,0.1-0.1c0.1-0.1,0.1-0.1,0.2-0.2c0.1-0.1,0.1-0.2,0.3-0.2c0,0,0.1-0.1,0.1-0.1c0,0,0-0.1,0-0.1
	c0.1-0.1,0.2-0.1,0.3-0.2c0.1-0.1,0.2-0.1,0.3-0.2c0.2-0.1,0.4-0.2,0.6-0.3c0.1,0,0.2-0.1,0.3-0.1c0.1,0,0.1-0.1,0.2-0.1
	c0.1,0,0.1-0.1,0.1-0.1c0.1,0,0.2-0.1,0.3-0.1c0.1,0,0.1,0,0.2-0.1c0.1,0,0.1,0,0.2,0c0,0,0.1,0,0.1,0h0.1c0,0,0.1,0,0.1,0
	C162.9,159.4,163,159.4,163.1,159.4L163.1,159.4z M135.1,216.8C135.1,216.8,135.1,216.8,135.1,216.8
	C135.1,216.8,135.1,216.8,135.1,216.8z M165.7,169.8C165.7,169.8,165.7,169.7,165.7,169.8L165.7,169.8L165.7,169.8z M145.2,167.3
	L145.2,167.3c0.1,0,0.2,0,0.2,0c0.1,0,0.1,0,0.1,0c0,0,0,0,0.1,0c0,0,0.1,0,0.1,0c0,0,0,0,0.1,0c0,0,0,0,0,0l0,0c0,0,0,0,0,0l0,0v0
	c0,0,0,0,0,0v0c0,0,0,0,0,0.1s0,0.1,0,0.1c0,0,0,0,0,0c0,0,0,0,0,0v0c0,0,0,0.1,0,0.1c0,0,0,0,0,0h0l0,0v0l0,0v0c0,0,0,0,0,0v0.1
	c0,0,0,0,0,0c0,0,0,0,0,0c0,0,0,0,0,0v0l0,0c0,0,0,0,0,0h0.1c0,0,0,0,0,0c0,0,0,0,0,0c0,0,0,0,0,0c0,0-0.1,0,0,0l0,0c0,0,0,0,0,0
	c0,0,0,0.1,0,0.1v0c0,0,0.1,0,0,0.1v0c0,0,0,0,0,0l0,0l0,0c0,0,0,0,0,0.1l0,0l0,0c0,0,0,0,0,0c0,0,0,0.1,0,0.1v0.1c0,0,0,0,0,0.1
	v0.2c0,0,0,0,0,0c0,0,0,0.1,0,0.1c0,0,0,0.1,0,0.1c0,0,0,0,0,0v0.1c0,0,0,0-0.1,0c0,0-0.1,0-0.1,0c0,0,0,0,0.1,0v0c0,0,0,0,0,0
	c0,0,0,0,0,0c0,0,0,0,0,0c0,0,0,0,0,0c0,0,0,0,0,0h0c0,0,0,0,0,0.1v0c0,0,0,0,0,0c0,0,0.1,0,0.1,0c0,0,0,0,0,0.1
	c0,0-0.1,0.1-0.1,0.1c0,0,0,0,0,0s0,0,0,0c0,0,0,0,0,0c0,0,0,0,0,0c0,0,0,0,0,0c0,0,0,0,0,0c0,0,0,0,0,0h0.1c0,0,0,0,0,0
	c0,0,0,0,0,0c0,0-0.1,0.1-0.1,0.1l0,0h0v0c0,0,0,0,0,0c0,0,0,0.1,0,0.1c0,0,0,0,0,0v0.1c0,0,0.1,0,0.1,0c0,0-0.1,0-0.1,0
	c0,0-0.1,0-0.1,0c0,0,0,0,0,0c0,0-0.1,0,0,0v0.1h0.1c0,0,0,0.1,0,0.1c0,0,0,0,0,0l0,0c0,0,0,0,0,0c0,0,0,0,0,0v0.1h0c0,0,0,0,0,0
	c0,0,0,0,0,0c0,0-0.1,0-0.1,0l0,0c0,0,0,0,0,0h0c0,0,0,0,0,0.1v0c0,0,0.1,0,0.1,0h0c0,0,0,0,0,0c0,0,0,0,0,0c0,0,0,0-0.1,0v0.1
	c0,0,0,0,0,0c0,0,0,0,0,0c0,0,0,0,0,0h0v0c0,0,0,0,0,0c0,0,0,0-0.1,0c0,0,0,0,0,0c0,0,0,0,0,0c0,0,0,0.1,0,0.1c0,0,0.1,0,0.1,0
	l0,0.1c0,0,0,0.1,0,0.1c0,0,0,0,0,0c0,0,0,0,0,0h-0.1c0,0,0,0,0,0.1s0,0,0,0.1c0,0,0.1,0,0.1,0c0,0,0,0,0,0c0,0,0,0,0,0l0,0
	c0,0,0,0,0,0h0l0,0h0v0c0,0,0,0.1,0,0.2c0,0-0.1,0.1,0,0.1v0l0,0c0,0,0,0,0,0c0,0,0,0,0,0c0,0,0,0.1,0,0.1c0,0,0,0,0,0v0.5
	c0,0,0,0,0,0h0c0,0,0,0,0,0c0,0,0.1,0,0,0c0,0-0.1,0-0.1,0c0,0,0,0.1,0,0.1l0,0h0.1c0,0,0,0,0,0v0l0,0h0c0,0,0,0,0,0c0,0,0,0,0,0
	c0,0,0,0,0,0l0,0c0,0,0,0,0,0s0,0,0,0l0,0c0,0,0,0,0,0v0c0,0,0,0,0,0v0c0,0,0,0.1,0,0.2c0,0.1-0.1,0.1-0.1,0.1c0,0,0,0.1,0,0.2
	c0,0,0,0,0,0.1c0,0,0.1,0,0.1,0.1c0,0,0,0,0,0h0c0,0,0,0,0,0c0,0,0.1,0,0,0c0,0,0,0-0.1,0c-0.1,0-0.1,0.1,0,0.1c0,0,0.1,0,0.1,0l0,0
	c0,0,0,0,0,0.1c0,0-0.1,0-0.1,0v0.1c0,0,0,0.1,0,0.2c0,0,0,0,0.1,0c0,0,0,0,0,0h0c0,0,0,0,0,0c0,0-0.1,0-0.1,0c0,0-0.1,0-0.1,0.1
	c0,0,0,0,0,0.1c0,0,0.1,0,0,0.1c0,0-0.1,0,0,0.1c0,0,0.1,0,0.1,0c0,0,0,0,0,0c0,0,0,0,0,0.1s-0.1,0-0.1,0.1c0,0,0,0,0,0c0,0,0,0,0,0
	c0,0,0,0,0,0c0,0,0,0.2,0,0.2c0,0,0.1,0,0.1,0s0,0,0,0.1c0,0,0.1,0,0.1,0.1c0,0,0,0-0.1,0c0,0,0,0,0,0.1c0,0,0,0.1,0,0.1
	c0,0,0,0.1,0,0.1v0.1c0,0,0,0,0,0.1c-0.1,0-0.1,0.1-0.1,0.2c0,0,0.1,0,0.1,0.1c0,0,0,0,0,0.1c-0.1,0-0.1,0-0.1,0
	c-0.1,0-0.2,0-0.1,0.1c0,0,0,0,0,0c0,0,0,0,0,0.1c0,0,0,0,0,0c0,0-0.1,0-0.1,0c-0.1,0-0.1,0-0.1,0.1c0,0,0,0.1,0,0.2
	c0,0,0.1,0,0,0.1c0,0,0,0-0.1,0c0,0-0.1,0-0.1,0.1c0,0,0,0.1,0,0.2c0,0,0,0.1,0,0.1c0,0,0,0.1,0,0.1v0.1c0,0,0,0,0,0.1
	s0.2,0.1,0.2,0.1l0,0c0,0,0,0,0,0.1c0,0,0.1,0,0.1,0c0,0,0,0-0.1,0.1c0,0,0,0.1,0,0.1c0,0,0,0,0,0h-0.1l0,0l0,0c0,0,0,0-0.1,0
	c0,0,0,0,0,0c0,0-0.1,0.1,0,0c0,0,0.1,0,0-0.1c0,0,0,0,0,0c0,0-0.1,0-0.1,0c0,0,0,0.1,0,0.1c0,0,0,0.1,0,0.1h0.1c0,0,0.1,0,0,0l0,0
	c0,0,0,0,0,0c0,0,0,0.1,0,0.1c0,0,0,0.1,0,0.1c0,0,0.1,0,0.1,0c0,0,0,0,0,0c0,0,0,0,0,0v0.1c0,0,0,0,0,0.1c0,0-0.1,0-0.1,0
	c0,0-0.2-0.1-0.2-0.1s-0.1,0-0.1,0c0,0,0,0,0,0v0.1c0,0,0,0.1,0,0.1c0,0,0,0.1,0,0.1v0.1c0,0,0,0,0,0c0,0,0.1,0,0.1,0.1
	c0,0,0,0.1,0,0.1c-0.1,0.1,0,0.2,0,0.4c0,0.1,0,0.4,0,0.6c0,0.1,0,0.1,0,0.2c0,0.1-0.1,0.2,0,0.3c-0.1,0,0,0,0,0.1c0,0,0,0,0,0
	c0,0,0,0,0,0c0,0,0,0,0,0l-0.1,0v0.1c0,0.1,0,0.2,0,0.4c0,0.1,0,0.2,0,0.4c0,0,0,0.1,0,0.2c0,0,0.1,0,0.1,0.1c0,0.1,0,0.1,0,0.2
	c0,0,0,0.1,0,0.1c0,0,0.1,0,0.1,0c0,0,0,0.1,0,0.1c0,0-0.1,0.1-0.1,0.1c0,0,0,0.1,0,0.1c0.1,0,0,0.1,0,0.1c0,0,0,0,0,0
	c0,0-0.1,0.1,0,0c0,0.1,0,0.2,0,0.3c0,0.1,0,0.2-0.1,0.2c-0.1,0-0.1,0-0.1,0.1c0,0.1,0,0.1-0.1,0.2c-0.1,0.1-0.1,0.1-0.1,0.2
	c-0.1,0.1-0.2,0.3-0.3,0.3c-0.1,0.1-0.2,0.1-0.3,0.2c-0.1,0.1-0.1,0.2-0.2,0.2c0,0-0.1,0-0.1,0c0,0,0,0,0,0.1c0,0-0.1,0-0.2,0
	c0,0-0.3,0.2-0.3,0.2c0,0-0.1,0-0.2,0c0,0,0,0,0,0.1c0,0,0,0-0.1,0c-0.1,0-0.2,0.1-0.3,0.2c0,0-0.4,0.2-0.5,0.3
	c-0.1,0-0.5,0.1-0.5,0.2c-0.1,0-0.3,0-0.4,0c-0.1,0-0.2,0-0.4,0c-0.1,0-0.2,0-0.3-0.1c0,0-0.1-0.1-0.1-0.1c-0.1,0-0.2-0.1-0.3-0.2
	c-0.1-0.1-0.1-0.1-0.1-0.2c0,0-0.1-0.2-0.1-0.3c0-0.1-0.1-0.2-0.1-0.3c0,0,0-0.1,0-0.2c0-0.1,0-0.3,0-0.4c0-0.1,0.1-0.5,0.1-0.6
	v-0.1c0,0,0-0.1,0-0.2c0-0.1,0-0.3,0-0.4c0-0.1,0-0.2,0-0.3c0-0.1,0-0.3,0-0.4s0-0.2,0-0.3c0,0,0.1-0.4,0.1-0.6v-0.2
	c0,0,0.1-0.1,0-0.1c0,0,0,0,0,0h0c0,0,0-0.1,0-0.1c0,0,0-0.1,0-0.1c0,0,0-0.1,0-0.1c0,0,0,0,0,0c0,0,0,0,0-0.1v-0.1c0,0,0-0.3,0-0.3
	c0,0,0-0.1,0-0.1c0,0-0.1,0,0-0.1c0,0,0.1,0,0-0.1c0,0,0.1-0.3,0.1-0.3c0,0,0.1-0.1,0-0.2c0,0,0-0.1,0-0.2c0-0.1,0-0.3,0-0.4
	c0,0,0-0.2,0-0.2c0,0,0-0.1,0-0.1c0,0,0,0,0-0.1c0,0,0,0,0-0.1c0,0,0-0.3,0-0.3c0,0,0-0.1,0-0.2h0c0,0,0,0,0,0v0c0,0,0,0,0,0v0
	c0,0,0,0,0,0c0,0,0,0,0-0.1s0,0,0-0.1c0,0,0-0.1,0-0.2v-0.3c0,0,0,0,0,0s0.1,0,0.1,0c0,0-0.1-0.1-0.1-0.1c0,0,0,0,0,0v0c0,0,0,0,0,0
	c0,0,0,0,0,0c0,0,0,0,0.1,0c0,0,0,0,0-0.1v-0.2c0,0,0-0.1,0-0.1v-0.1c0,0,0,0,0-0.1h0v0c0,0,0,0,0-0.1s0,0,0,0c0,0,0-0.1,0-0.1v-0.2
	c0,0,0,0,0,0v-0.2c0,0,0-0.1,0-0.1c0,0,0-0.1,0-0.2c0,0,0,0,0,0c0,0,0-0.1,0-0.1c0,0,0,0,0,0c0,0,0.1,0,0.1,0c0,0,0-0.1,0-0.1
	s0,0,0-0.1v0c0,0,0,0,0,0l0,0c0,0,0,0,0,0c0,0,0,0,0,0s0,0,0,0c0,0-0.1,0-0.1,0c0,0,0,0,0-0.1s0,0,0,0c0,0,0,0,0,0h0c0,0,0,0,0,0
	v-0.2c0,0,0-0.1,0-0.2c0,0,0-0.2,0-0.2V174c0,0,0,0,0,0h0v-0.1c0,0,0,0,0,0c0,0,0-0.1,0-0.1c0,0,0-0.1,0-0.2c0,0,0-0.2,0-0.3v-0.1
	l0,0c0,0,0,0,0,0s0,0,0,0V173c0,0,0,0,0-0.1c0,0,0-0.1,0-0.1c0,0,0,0,0,0v0c0,0-0.1,0-0.1,0c0,0,0,0,0-0.1c0,0,0-0.1,0-0.1
	c0,0,0,0,0,0l0,0c0,0,0,0,0,0c0,0,0,0,0,0v-0.2c0,0,0-0.1,0-0.2c0,0,0-0.1,0-0.1c0,0,0,0,0,0v-0.1c0,0-0.1,0-0.1-0.1
	c0,0,0.1-0.1,0.1-0.1v-0.2c0,0,0-0.1,0-0.1c0,0,0,0,0,0c0,0-0.1,0,0,0c0,0,0,0,0,0c0,0,0-0.1,0-0.1c0,0,0,0,0,0s0,0,0,0
	c0,0,0-0.2,0-0.2c0,0,0.1,0,0-0.1h0c0,0,0.1-0.2,0.1-0.3c0-0.1,0-0.1,0-0.1l0,0v-0.1c0,0,0-0.1,0-0.1c0,0,0,0,0,0c0,0,0-0.1,0-0.1
	c0,0,0,0,0,0c0,0,0,0,0,0c0,0,0,0,0,0v-0.1c0,0,0,0,0,0c0,0,0,0,0,0c0,0,0,0,0,0c0,0,0.1-0.1,0.1-0.1s0,0,0-0.1c0,0,0.1-0.2,0.1-0.2
	c0,0,0-0.1,0-0.1c0,0,0,0,0,0c0,0,0.1-0.1,0.1-0.1c0,0,0,0,0,0c0,0,0-0.1,0-0.1c0.1,0,0.2-0.1,0.2-0.2c0,0,0.1-0.1,0.1-0.2
	c0,0,0,0,0.1,0c0,0,0,0,0,0c0,0,0.1,0,0.1-0.1c0,0,0,0,0-0.1c0,0,0,0,0.1,0c0,0,0.2-0.2,0.2-0.2l0,0c0,0,0,0,0.4,0
	c0,0,0.1-0.1,0.2-0.1c0,0,0.1,0,0.1-0.1c0,0,0.1,0,0.1,0c0,0,0,0,0.1,0h0c0,0,0,0,0,0c0,0,0.1,0,0.1,0c0,0,0.1,0,0.1,0
	c0,0,0,0,0.1,0c0,0,0.1,0,0.1,0h0.1c0,0,0.1,0,0.1,0c0,0,0.1,0,0.1,0h0.1c0,0,0,0,0.1,0.1c0,0,0,0,0,0c0,0,0.2,0,0.3,0
	c0,0,0.1,0,0.1,0C145.1,167.4,145.2,167.4,145.2,167.3C145.2,167.4,145.2,167.3,145.2,167.3L145.2,167.3z M105.9,174.2
	C105.9,174.2,105.9,174.2,105.9,174.2c0.1,0,0.1,0.1,0.1,0.1c0.1,0,0,0,0,0c0,0,0.1,0,0.1,0c0,0,0.1,0,0.1,0c0,0,0,0,0,0
	c0,0,0.1,0,0.1,0c0,0,0,0,0,0c0.1,0,0.1,0,0.1,0.1c0,0,0,0.1,0.1,0.1c0,0,0,0.1,0,0.1c0,0,0.1,0,0.1,0.1v0.1c0,0,0,0,0,0
	c0,0,0,0,0.1,0.1c0,0,0,0.1,0,0.1c0.1,0,0.1,0.1,0.1,0.2c0,0.1,0,0.2,0.1,0.2v0.1c0,0.1,0.1,0.2,0,0.4c0,0,0,0,0,0.1v0.1
	c0,0,0,0,0,0c0,0,0,0,0,0.1c0,0,0.1,0,0.1,0.1H107c0,0,0,0,0,0.1c-0.1,0-0.1,0-0.1,0.1c0,0.1,0,0.1,0,0.2c0,0.1-0.1,0.1-0.1,0.2
	c0,0,0,0-0.1,0.1c0,0,0,0,0,0c0,0,0,0.1,0,0.1c0,0,0,0,0,0.1c0,0,0,0.1-0.1,0.1c0,0-0.1,0.1-0.1,0.1c0,0.1,0,0.1-0.1,0.1
	c-0.1,0-0.1,0-0.1,0.1c0,0.1,0.1,0.1,0,0.1v0c0,0-0.1,0-0.2,0.1c0,0,0,0,0,0.1c0,0.1-0.1,0.1-0.2,0.1c-0.1,0-0.1,0-0.1,0.1
	c0,0-0.1,0.1-0.1,0.1c-0.1,0-0.1,0,0,0c-0.1,0-0.2,0-0.2,0.1c0,0-0.2,0.1-0.2,0.1c0,0-0.1,0.1-0.1,0.1c0,0-0.1,0-0.1,0c0,0,0,0,0,0
	c0,0-0.1,0-0.1,0.1c0,0-0.1,0-0.1,0c0,0,0,0,0,0c0,0,0,0,0,0s-0.1,0-0.1,0.1c0,0,0,0-0.1,0.1l0,0c0,0,0,0-0.1,0c0,0-0.1,0-0.1,0
	c0,0,0,0.1-0.1,0.1c0,0.1-0.3,0-0.2,0.1c0,0-0.1,0-0.1,0c0,0-0.1,0-0.1,0.1c0,0-0.1,0-0.1,0c0,0,0,0,0,0c0,0-0.1,0-0.2,0.1
	c0,0,0,0,0,0.1c0,0-0.1,0-0.1,0c-0.1,0-0.1,0-0.1,0c-0.1,0-0.1-0.1-0.2-0.1v0c0,0,0,0-0.1,0c0,0-0.1,0-0.1,0c0,0-0.1,0-0.1,0
	c0,0,0,0,0,0c-0.1,0-0.1,0-0.2,0c0,0,0,0,0,0c0,0,0,0,0,0c0,0-0.1,0-0.2,0h-0.1c-0.1,0,0,0-0.1,0c0,0-0.1,0-0.1-0.1
	c-0.1-0.1,0-0.1,0-0.2c0,0-0.1,0-0.1,0c0,0,0-0.1,0-0.1c0,0,0,0,0,0l0,0v-0.1c0-0.1-0.1-0.1-0.1-0.2v-0.1c0,0-0.1,0-0.1-0.1
	c0,0,0,0,0-0.1c0,0,0-0.1,0-0.1c0,0,0,0,0,0c0,0,0,0,0,0c0,0,0-0.1,0-0.1c0-0.1,0-0.1,0-0.2c0-0.1,0-0.2,0-0.2c0,0,0,0,0.1-0.1
	c0,0,0-0.1,0-0.1c0,0,0.1-0.1,0.1-0.2c0-0.1,0-0.1,0-0.2c0,0,0,0,0.1,0c0,0,0,0,0-0.1c0,0,0.1,0,0.1-0.1c0,0,0.1-0.1,0.1-0.1
	c0.1,0,0.1-0.1,0.1-0.1c0,0,0-0.1,0-0.1c0,0,0.1-0.1,0.1-0.1c0.1,0,0.1,0,0.1-0.1c0.1-0.1,0.1-0.2,0.3-0.4c0.1,0,0.2-0.1,0.2-0.1
	c0.1-0.1,0.1-0.1,0.2-0.2c0-0.1,0.1-0.1,0.2-0.1c0.1-0.1,0.1-0.1,0.2-0.2c0.1-0.1,0.3-0.2,0.4-0.4c0,0,0.1-0.1,0.1-0.1
	c0.1,0,0.1-0.1,0.2-0.1c0.1,0,0.2-0.1,0.3-0.1c0,0,0.1,0,0.1,0c0,0,0.1,0,0.1-0.1c0.1,0,0.2-0.1,0.3-0.1c0,0,0.1,0,0.1,0
	c0,0,0,0,0,0h0.1c0,0,0.1,0,0.1,0c0,0,0.1,0,0.1,0C105.7,174.2,105.8,174.2,105.9,174.2L105.9,174.2z M117.8,179.8
	c0.1,0,0.3,0,0.4,0.1c0,0,0.1,0,0.2,0c0.1,0,0.1,0,0.1,0.1c0.1,0,0.1,0.1,0.2,0.2c0,0,0.1,0.1,0.1,0.1c0,0,0,0,0,0.1l0,0
	c0,0,0.1,0.1,0.1,0.1c0.1,0,0.1,0,0.1,0.1c0.1,0.1,0,0.1,0,0.1c0,0,0,0,0,0s0,0,0,0.1c0,0,0.1,0.1,0.1,0.1c0,0,0,0,0.1,0l0,0
	c0,0,0,0,0,0l0,0c0,0,0,0,0,0c0,0,0,0,0.1,0c0,0,0,0.1,0,0.1h0c0,0,0,0.1,0,0.1c0,0,0,0.1,0.1,0.1v0c0,0.1,0,0.1-0.2,0.3
	c0,0.1,0,0.1,0,0.2s-0.1,0.4,0,0.3c0,0.1,0,0.2-0.1,0.3c0,0-0.1,0.1-0.1,0.1c0,0,0,0.1,0,0.1c0,0-0.1,0-0.1,0.1c0,0-0.1,0.1-0.1,0.1
	c0,0.1-0.1,0.1-0.1,0.2c-0.2,0-0.2,0.3-0.4,0.3c-0.1,0-0.1,0-0.1,0c0,0,0,0,0,0c0,0,0,0-0.1,0c-0.1,0-0.1,0.1-0.2,0.2
	c-0.1,0-0.2,0.1-0.3,0.1c0,0-0.1,0-0.1,0.1c0,0-0.1,0.1-0.1,0.1c0,0,0,0-0.1,0c0,0,0,0,0,0c0,0,0,0-0.1,0.1c0,0.1-0.1,0.1-0.2,0.2
	c0,0-0.1,0.1-0.2,0.1c0,0.1-0.1,0.1-0.2,0.1c-0.1,0-0.1,0.1-0.2,0.1c0,0,0,0,0,0c0,0-0.1,0-0.1,0s0,0.1-0.1,0.1c0,0,0,0,0,0
	c0,0,0,0-0.1,0c0,0,0,0-0.1,0.1c0,0,0,0-0.1,0c0,0-0.1,0.1-0.1,0.1c-0.1,0-0.1,0-0.1,0.1l0,0c0,0-0.1,0-0.1,0c0,0,0,0,0,0
	c0,0.1-0.1,0.1-0.1,0.1c-0.1,0.1-0.1,0.2-0.2,0.3c0,0.1-0.1,0.2-0.2,0.2c0,0.1-0.1,0.1-0.2,0.2c-0.1,0.1-0.1,0.2-0.2,0.2
	c-0.1,0-0.1,0.1-0.1,0.1c0,0,0,0.1,0,0.1c-0.1,0-0.1,0.1-0.1,0.1c0,0-0.1,0.1-0.1,0.2c0,0.1,0,0.1,0,0.2c0,0.1,0,0.1,0.1,0.2
	c0,0.1-0.1,0.1-0.2,0.2c0,0,0,0.1,0,0.1c0,0,0.1,0,0.1,0.1c-0.1,0-0.1,0-0.1,0c0,0,0,0.1,0,0.2c0,0,0,0.1,0,0.2c0,0.1,0,0.1,0,0.1
	c0,0-0.1,0.1-0.2,0.1c0,0,0,0.1,0,0.1c0,0,0,0.1,0,0.1c0,0,0,0.1,0,0.1c0,0,0,0.1,0,0.1c0,0.1,0,0.1,0,0.1c0,0,0,0,0,0.1
	c0,0,0,0-0.1,0c-0.1,0,0,0-0.1,0.1c-0.1,0-0.1,0-0.1,0.1c0.1,0,0.1,0.1,0.1,0.2c0,0,0,0-0.1,0.1c0,0,0,0,0,0.1c0,0-0.1,0.1,0,0.1
	c0,0,0,0.1,0,0.2c0,0,0,0.1,0,0.2l0,0c0,0,0,0.1,0,0.1c0,0,0,0,0,0.1c0,0,0,0,0,0c0,0.1,0,0.2,0,0.3c0,0.1,0,0.2,0,0.3
	c0,0,0,0.1,0,0.1c0,0,0,0.1,0,0.1c0,0.1-0.1,0.1-0.1,0.2c0,0.1,0,0.2,0,0.3c0,0.1,0.1,0.2,0,0.2c0,0,0,0.1,0.1,0.2
	c0,0.1-0.1,0.1-0.1,0.2c0,0.1,0,0.2,0,0.3c0,0.1,0,0.2,0,0.3v0.3c0,0,0,0.1,0,0.2c0,0,0,0.1,0,0.1c-0.1,0,0,0.1,0,0.1
	c0,0-0.1,0.1-0.1,0.1v0.6c0,0.1,0,0.2,0,0.3c0,0.1,0,0.2,0,0.3c0,0,0.1,0,0,0c0,0-0.1,0-0.1,0.1c0,0,0,0.2,0,0.2
	c0,0.1,0.1,0.1,0,0.2c0,0,0,0.2-0.1,0.2c-0.1,0.1,0,0.2,0,0.3c0,0,0,0.1,0,0.1c0,0,0,0.1,0,0.1c0,0.1,0,0.2,0,0.3c0,0.1,0,0.2,0,0.4
	c0,0.1,0,0.3,0,0.4c0,0.1,0,0.1-0.1,0.2c0,0,0,0.1,0,0.1v0.1c0,0-0.1,0.2-0.1,0.2c0,0.1,0,0.2-0.1,0.3c-0.1,0.1-0.1,0.1-0.2,0.2
	c0,0.1-0.1,0.2-0.1,0.3c0,0-0.1,0.1-0.1,0.1c0,0,0,0-0.1,0.1c-0.1,0.1-0.2,0.2-0.3,0.3c0,0-0.1,0.1-0.1,0.1c0,0,0,0.1,0,0.1
	c0,0-0.1,0-0.1,0c-0.1,0-0.1,0.1-0.1,0.1c-0.1,0-0.1,0-0.1,0.1c0,0.1-0.1,0.1-0.1,0.1c-0.1,0-0.1,0-0.1,0c-0.1,0-0.1,0-0.1,0
	c0,0,0,0,0,0c0,0,0,0-0.1,0c0,0,0,0-0.1,0c0,0,0,0-0.1,0c0,0-0.1,0-0.1,0.1c-0.1,0-0.2,0.1-0.3,0.1c-0.1,0-0.3,0-0.3,0.1
	c0,0-0.1,0-0.1,0c0,0.1-0.2,0-0.2,0.1c-0.1,0-0.2,0.1-0.3,0.1c0,0-0.1,0-0.1,0c0,0,0,0,0,0c0,0,0,0-0.1,0c-0.1,0-0.2,0-0.3,0
	c-0.1,0-0.2-0.1-0.2,0c-0.1,0-0.1,0-0.2-0.1c-0.1,0-0.1-0.1-0.2-0.1v-0.1c0,0,0,0,0,0c0,0-0.1,0-0.1,0c0,0,0,0,0,0c0,0,0,0,0,0
	c0,0,0,0,0-0.1c0,0-0.1,0-0.1-0.1c-0.1-0.1-0.1-0.1-0.1-0.1c0,0-0.1-0.1-0.1-0.1c0,0,0-0.1,0-0.1c0,0-0.1,0-0.1,0c0,0,0-0.1,0-0.1
	c0-0.1,0-0.1,0-0.1c0,0,0-0.1,0-0.1c0,0,0-0.1,0-0.1c0-0.1,0-0.2,0-0.3c0-0.1,0-0.2,0-0.4c0-0.1,0-0.2,0-0.3c0-0.1,0-0.2,0-0.3
	c0-0.1-0.1-0.2,0-0.3c0,0,0-0.1,0-0.2c0-0.1,0-0.1-0.1-0.2c0-0.1,0-0.1,0-0.1c0,0,0-0.1,0-0.2c0-0.1,0.1-0.2,0.1-0.3
	c0-0.1,0-0.2,0-0.3c0-0.1,0-0.2,0-0.3c0,0,0-0.1,0-0.2c0-0.1-0.1-0.1,0-0.1c0.1-0.1,0.1-0.2,0-0.3v0c0-0.1,0-0.2,0-0.3
	c0,0,0-0.1-0.1-0.1c0,0-0.1,0-0.1-0.1c0,0,0.1-0.1,0.1-0.1c0,0,0-0.1,0-0.2c0,0,0-0.1,0-0.2c0,0,0-0.1,0-0.2c0,0,0-0.1,0.1-0.1
	c0,0,0-0.1,0-0.1c0,0,0,0,0-0.1c0,0,0,0,0-0.1c0-0.1,0-0.1-0.1-0.1c-0.1-0.1,0-0.2,0-0.3c0,0-0.1-0.1-0.1-0.2c0-0.1,0.1-0.1,0.1-0.1
	c0,0,0.1-0.2,0-0.2c-0.1,0,0-0.4,0-0.4c-0.1,0,0-0.1,0-0.2c0,0,0-0.1,0-0.1c-0.1,0-0.1-0.3,0-0.3c0-0.1,0.1-0.2,0.1-0.3
	c0,0,0-0.1,0.1-0.1c0,0,0-0.1,0-0.1c0,0,0,0,0-0.1c0,0,0,0,0-0.1v-0.2c0-0.1,0-0.2,0.1-0.2c-0.1,0,0-0.1,0-0.1v-0.2
	c0-0.1,0-0.2,0-0.4c0-0.1,0-0.2,0-0.3s0-0.2,0-0.3c0-0.1,0-0.2,0-0.4c0-0.1,0-0.2,0-0.3c0-0.1,0-0.2,0-0.3c0,0,0-0.1,0-0.1
	c0,0,0-0.1,0-0.2c0-0.2,0.1-0.4,0.1-0.6c0-0.2,0.1-0.4,0-0.5V187c0,0,0.1-0.2,0-0.2c0,0,0-0.1,0-0.1c0,0,0-0.1,0-0.1
	c0-0.1,0-0.2,0-0.3c0-0.2,0-0.4,0-0.6c0-0.2,0.1-0.4,0.1-0.7c0-0.1,0.1-0.3,0.1-0.4c0-0.1,0.1-0.2,0.1-0.3c0,0,0-0.1,0-0.2
	c0-0.1,0.1-0.2,0.1-0.3c0.1-0.1,0.1-0.2,0.1-0.3c0.1-0.1,0.1-0.1,0.1-0.2c0,0,0-0.1,0.1-0.1c0,0,0,0,0,0c0,0,0,0,0,0
	c0-0.1,0.1-0.1,0.1-0.2c0.1-0.1,0.1-0.1,0.2-0.2c0.1-0.1,0.3-0.2,0.5-0.4c0,0,0,0,0,0c0,0,0,0,0.1,0c0,0,0.1,0,0.1-0.1
	c0.1,0,0.1-0.1,0.1-0.1c0,0,0.1,0,0.1-0.1c0,0,0.1,0,0.1,0s0.1,0,0.1,0c0.1,0,0.1,0,0.1-0.1c0.1,0,0.3-0.1,0.4-0.1
	c0.1,0,0.3-0.1,0.4-0.1v0c0,0,0.1,0,0.1,0c0,0,0.1,0,0.1,0c0.1,0,0.1,0,0.2,0c0.1,0,0.2,0,0.3,0c0.2,0,0.4,0,0.6,0c0,0,0.1,0,0.2,0
	c0.1,0,0.1,0,0.1,0c0,0,0.1,0,0.1,0c0.1,0,0.2-0.1,0.4-0.1c0.1,0,0.2,0,0.3-0.1c0.1,0,0.1-0.1,0.1-0.1c0,0,0.1,0,0.3,0
	c0.1,0,0.2,0,0.3,0c0,0,0,0,0,0c0,0-0.1,0-0.1,0c0-0.1,0.1-0.1,0.2-0.1v0c0,0,0.1,0,0.1,0c0,0,0.2,0,0.2,0c0.1,0,0-0.1,0.1-0.1
	c0,0,0.1,0,0.1,0c0,0,0.1,0,0.1,0c0,0,0,0,0.1,0c0,0,0,0,0,0c0,0,0,0,0.1,0c0,0,0.1,0,0.1-0.1c0,0-0.1,0-0.1,0c0,0,0,0,0.1,0
	c0,0,0,0,0,0h0c0,0,0,0.1,0,0.1c0,0,0.1,0,0.1,0v0c0,0,0,0,0-0.1c0,0,0.1,0,0.1,0c0.1,0,0.1,0,0.2,0c0,0,0,0,0,0c0,0,0,0,0,0
	c0,0,0,0,0.1,0c0.1,0,0.1,0,0.1,0s0.1,0,0.1,0c0.1,0,0.1,0,0.2,0c0.1,0,0.1,0,0.2,0L117.8,179.8
	C117.8,179.8,117.8,179.8,117.8,179.8L117.8,179.8z M103.2,185.9c0.1,0,0.1,0,0.2,0c0.1,0,0.3,0,0.4,0c0.1,0,0.1,0.1,0.3,0.1
	c0,0,0,0.1,0.2,0.2c0.1,0.1,0.1,0.1,0.2,0.2c0.1,0.1,0.1,0.3,0.1,0.4c0,0.1,0,0.2,0.1,0.2c0,0.1,0,0.1,0.1,0.1v0
	c-0.1,0-0.1,0.3-0.1,0.3c0.1,0.1,0.1,0.3,0.3,0.3c0,0.1-0.3,0.1-0.4,0.1c0,0.1-0.1,0.3,0,0.4c0,0.1,0.1,0.3,0.1,0.4
	c0,0.1,0.1,0.2,0.1,0.2c0,0,0.1,0,0.1,0c0,0-0.1,0.1-0.1,0.1c0,0,0,0.2,0,0.2c0,0.1,0.1,0.1,0.1,0.2c0,0,0,0.2-0.1,0.2
	c0,0.1-0.1,0.2-0.2,0.4c0,0.1,0,0.2,0,0.2c0,0,0,0,0,0.1c0,0,0,0.1,0,0.1c0,0.1,0,0.2,0,0.3c0,0.1-0.1,0.1,0,0.3c0,0,0,0.1,0,0.1
	c0,0.1,0,0.1-0.1,0.1c0,0.1,0,0.2,0,0.3c0,0.1-0.1,0.2-0.1,0.3c0,0.1,0,0.2,0,0.3c0,0.1-0.1,0.1-0.1,0.2c0,0.1,0,0.2,0,0.3
	c0,0.2,0.1,0.4,0.1,0.6c0,0.1,0,0.2-0.1,0.3c0,0.1,0,0.2,0,0.3v0.3c0,0.1,0,0.2,0,0.3c0,0-0.1,0-0.1,0.1c-0.1,0.1,0,0.1,0,0.1
	c0,0.1,0,0.3-0.1,0.4c0,0-0.1,0-0.1,0.1c-0.1,0.1,0,0.2,0,0.3c0,0.1,0,0.2,0,0.3c0,0.1,0,0.2,0,0.3c0,0.1,0,0.2-0.1,0.3
	c0,0,0,0.1,0,0.1c0,0.1,0,0.1,0,0.2h0c-0.1,0.1,0,0.2,0,0.3s-0.1,0.2-0.1,0.3c0,0.1,0,0.2,0,0.3c0,0.1-0.1,0.2-0.1,0.3
	c0,0.1,0,0.2,0,0.4c0,0,0,0.1,0,0.2c0,0,0,0.1,0,0.1c0,0.1,0,0.2,0,0.3c0,0,0,0.1,0,0.1c0,0,0,0,0,0.1c0,0.1,0,0.2,0,0.3h0
	c0,0,0,0.1,0,0.1v0.1c0,0,0,0,0,0.1c0,0.1-0.1,0.1-0.1,0.2c0,0,0,0,0,0.1c0,0.1,0,0.1,0.1,0.2c0,0.1,0,0.2-0.1,0.3
	c0.1,0.1,0,0.3,0.1,0.5c0.1,0,0,0.1,0,0.2c0,0,0,0.1,0,0.2c0,0.1,0,0.1-0.1,0.2c0,0,0,0.2-0.1,0.2v0c0,0.1,0,0.1,0,0.1
	c0,0,0,0.1,0,0.1c0,0.1,0,0.2,0,0.3v0.2c0,0.1,0,0.1,0,0.1c-0.1,0.1,0,0.2,0,0.3c0,0.1-0.1,0.2-0.2,0.3v0.2c0,0.1,0,0.1,0.1,0.1
	c0.2,0,0.3-0.1,0.3,0.1c0,0-0.1,0.1-0.1,0.2c0,0,0,0.1,0,0.1c0,0-0.1,0-0.1,0c-0.1,0-0.2-0.1-0.2-0.1c-0.1,0.1-0.1,0.2-0.1,0.3
	c-0.1,0.1-0.2,0-0.3,0c-0.2,0-0.1,0-0.2,0.1c-0.1,0.1-0.3,0.2-0.4,0.3c-0.1,0-0.2,0.1-0.3,0.1c-0.1,0.1-0.1,0.1-0.2,0.2
	c0,0-0.2,0.1-0.3,0.2c-0.1,0.1-0.3,0.2-0.4,0.2c-0.1,0-0.2,0.1-0.3,0.1c0,0-0.1,0-0.1,0c-0.1,0-0.1,0.1-0.1,0.1c-0.1,0-0.2,0-0.3,0
	c-0.1,0-0.1,0-0.1,0c0,0-0.1,0-0.1,0c-0.2,0-0.4,0-0.6-0.1c-0.1,0-0.2-0.1-0.3-0.1c-0.1,0-0.1,0-0.1,0c0,0,0-0.1-0.1-0.1
	c0,0-0.1-0.1-0.1-0.2c0-0.1,0-0.2-0.1-0.3c0-0.1-0.1-0.2-0.1-0.3c0-0.1,0-0.2,0-0.3c0.1-0.1,0-0.3-0.1-0.1v-1.4c0-0.2,0-0.4,0-0.6
	c0-0.1,0-0.2,0-0.3c0.1-0.1,0-0.2,0-0.3c0-0.1,0-0.2,0-0.3c0-0.1,0-0.2,0-0.3c0-0.4,0-0.7,0-1.1c0-0.2,0.1-0.3,0-0.5c0,0,0,0,0,0
	c0,0,0-0.1,0-0.1c0-0.2,0-0.4,0.1-0.6c0.1-0.2,0.1-0.4,0.1-0.6c0-0.1-0.1-0.2-0.1-0.3c0-0.1,0.1-0.2,0.1-0.3c0,0-0.2-0.6,0-0.4
	c0.1-0.1,0-0.3,0.1-0.5c-0.1-0.1,0-0.2,0-0.4c0-0.1,0.1-0.3,0-0.4c0.2-0.3,0.1-0.8,0.1-1.2c0,0,0-0.1,0-0.2c0-0.1,0-0.2,0-0.3
	c0-0.2,0-0.4,0-0.5c0-0.1-0.1-0.2,0-0.3c0-0.1,0.1-0.1,0.1-0.2c-0.1-0.1,0-0.6,0-0.8c0-0.2,0.1-0.4,0.1-0.6c0-0.2,0.1-0.5,0.1-0.7
	c0-0.2,0-0.5,0-0.7c0-0.2,0.2-0.4,0-0.6c0,0,0,0,0,0c0.1,0,0.1-0.3,0.1-0.4c0.1-0.1,0.1-0.3,0.2-0.4c0.1-0.4,0.3-0.7,0.5-1.1
	c0.1-0.2,0.2-0.3,0.3-0.5c0.1-0.1,0.2-0.3,0.4-0.4c0-0.1,0.2-0.2,0.2-0.3c0,0,0.1-0.1,0.1-0.1c0,0,0.1,0,0.2,0c0,0,0,0,0,0
	c0.1-0.1,0.2-0.1,0.3-0.2c0.1,0,0.2-0.1,0.3-0.2c0.3-0.2,0.7-0.4,1.1-0.5C102.8,186,103,185.9,103.2,185.9L103.2,185.9L103.2,185.9z
	 M134.9,216.8C134.9,216.8,134.9,216.8,134.9,216.8C134.9,216.9,135,216.8,134.9,216.8c0.1,0.1,0.1,0.1,0.2,0.1c0,0,0,0,0,0
	C135,216.8,135,216.8,134.9,216.8L134.9,216.8z"/>
</svg>
